<svg width="40" height="40" viewBox="0 0 40 40" fill="none" xmlns="http://www.w3.org/2000/svg">
<path d="M20 0.5C30.7696 0.5 39.5 9.23045 39.5 20C39.5 30.7696 30.7696 39.5 20 39.5C9.23045 39.5 0.5 30.7696 0.5 20C0.5 9.23045 9.23045 0.5 20 0.5Z" fill="white"/>
<path d="M20 0.5C30.7696 0.5 39.5 9.23045 39.5 20C39.5 30.7696 30.7696 39.5 20 39.5C9.23045 39.5 0.5 30.7696 0.5 20C0.5 9.23045 9.23045 0.5 20 0.5Z" stroke="#CDD1D5"/>
<path fill-rule="evenodd" clip-rule="evenodd" d="M16.4053 27.7351C16.7009 28.0636 17.2067 28.0902 17.5351 27.7946L25.5351 20.5949C25.7037 20.4432 25.8 20.2271 25.8 20.0003C25.8 19.7735 25.7037 19.5574 25.5351 19.4057L17.5351 12.2052C17.2068 11.9096 16.7009 11.9362 16.4053 12.2646C16.1098 12.593 16.1364 13.0988 16.4648 13.3944L23.8041 20.0002L16.4648 26.6053C16.1364 26.9009 16.1098 27.4067 16.4053 27.7351Z" fill="#2D2440"/>
</svg>
