<svg width="21" height="21" viewBox="0 0 21 21" fill="none" xmlns="http://www.w3.org/2000/svg">
<mask id="mask0_975_1569" style="mask-type:luminance" maskUnits="userSpaceOnUse" x="0" y="0" width="21" height="21">
<path d="M10.3576 19.7153C11.5867 19.7168 12.804 19.4754 13.9395 19.0051C15.075 18.5347 16.1064 17.8446 16.9744 16.9744C17.8446 16.1064 18.5347 15.075 19.0051 13.9395C19.4754 12.804 19.7168 11.5867 19.7153 10.3576C19.7168 9.12856 19.4754 7.91129 19.0051 6.77577C18.5347 5.64025 17.8446 4.60886 16.9744 3.74086C16.1064 2.87067 15.075 2.18058 13.9395 1.71021C12.804 1.23985 11.5867 0.998491 10.3576 1.00001C9.12856 0.998491 7.91129 1.23985 6.77577 1.71021C5.64025 2.18058 4.60886 2.87067 3.74086 3.74086C2.87067 4.60886 2.18058 5.64025 1.71021 6.77577C1.23985 7.91129 0.998491 9.12856 1.00001 10.3576C0.998491 11.5867 1.23985 12.804 1.71021 13.9395C2.18058 15.075 2.87067 16.1064 3.74086 16.9744C4.60886 17.8446 5.64025 18.5347 6.77577 19.0051C7.91129 19.4754 9.12856 19.7168 10.3576 19.7153Z" fill="white" stroke="white" stroke-width="2" stroke-linejoin="round"/>
<path d="M6.6145 10.3576L9.42179 13.1649L15.0364 7.55035" stroke="black" stroke-width="2" stroke-linecap="round" stroke-linejoin="round"/>
</mask>
<g mask="url(#mask0_975_1569)">
<path d="M-0.871582 -0.871521H21.5868V21.5868H-0.871582V-0.871521Z" fill="#6E5BB8"/>
</g>
</svg>
