<svg width="23" height="23" viewBox="0 0 23 23" fill="none" xmlns="http://www.w3.org/2000/svg">
<g clip-path="url(#clip0_975_1600)">
<path d="M3.36958 19.6306C2.27121 18.5697 1.39512 17.3008 0.792413 15.8977C0.189709 14.4947 -0.127532 12.9857 -0.140801 11.4587C-0.15407 9.93173 0.1369 8.41742 0.71513 7.00411C1.29336 5.5908 2.14727 4.3068 3.22704 3.22704C4.3068 2.14727 5.5908 1.29336 7.00411 0.71513C8.41742 0.1369 9.93173 -0.15407 11.4587 -0.140801C12.9857 -0.127532 14.4947 0.189709 15.8977 0.792413C17.3008 1.39512 18.5697 2.27121 19.6306 3.36958C21.7254 5.5385 22.8845 8.44343 22.8583 11.4587C22.8321 14.474 21.6227 17.3583 19.4905 19.4905C17.3583 21.6227 14.474 22.8321 11.4587 22.8583C8.44343 22.8845 5.5385 21.7254 3.36958 19.6306ZM10.3501 5.75008V12.6501H12.6501V5.75008H10.3501ZM10.3501 14.9501V17.2501H12.6501V14.9501H10.3501Z" fill="#A89BD4"/>
</g>
<defs>
<clipPath id="clip0_975_1600">
<rect width="23" height="23" fill="white"/>
</clipPath>
</defs>
</svg>
