<svg width="25" height="25" viewBox="0 0 25 25" fill="none" xmlns="http://www.w3.org/2000/svg">
<path d="M12.2501 22.4584C6.61202 22.4584 2.04175 17.8881 2.04175 12.25C2.04175 6.61196 6.61202 2.04169 12.2501 2.04169C17.8881 2.04169 22.4584 6.61196 22.4584 12.25C22.4584 17.8881 17.8881 22.4584 12.2501 22.4584ZM8.16675 14.2917V16.3334H16.3334V14.2917H8.16675ZM8.16675 11.2292C8.57286 11.2292 8.96234 11.0679 9.24951 10.7807C9.53667 10.4935 9.698 10.104 9.698 9.69794C9.698 9.29182 9.53667 8.90234 9.24951 8.61518C8.96234 8.32801 8.57286 8.16669 8.16675 8.16669C7.76064 8.16669 7.37116 8.32801 7.08399 8.61518C6.79683 8.90234 6.6355 9.29182 6.6355 9.69794C6.6355 10.104 6.79683 10.4935 7.08399 10.7807C7.37116 11.0679 7.76064 11.2292 8.16675 11.2292ZM16.3334 11.2292C16.7395 11.2292 17.129 11.0679 17.4162 10.7807C17.7033 10.4935 17.8647 10.104 17.8647 9.69794C17.8647 9.29182 17.7033 8.90234 17.4162 8.61518C17.129 8.32801 16.7395 8.16669 16.3334 8.16669C15.9273 8.16669 15.5378 8.32801 15.2507 8.61518C14.9635 8.90234 14.8022 9.29182 14.8022 9.69794C14.8022 10.104 14.9635 10.4935 15.2507 10.7807C15.5378 11.0679 15.9273 11.2292 16.3334 11.2292Z" fill="#AEAEB2"/>
</svg>
