<svg width="23" height="23" viewBox="0 0 23 23" fill="none" xmlns="http://www.w3.org/2000/svg">
<path d="M11.463 12.8005L6.7822 17.4813C6.60706 17.6565 6.38417 17.744 6.11351 17.744C5.84285 17.744 5.61996 17.6565 5.44483 17.4813C5.26969 17.3062 5.18213 17.0833 5.18213 16.8127C5.18213 16.542 5.26969 16.3191 5.44483 16.144L10.1256 11.4632L5.44483 6.78238C5.26969 6.60725 5.18213 6.38435 5.18213 6.11369C5.18213 5.84304 5.26969 5.62014 5.44483 5.44501C5.61996 5.26988 5.84285 5.18231 6.11351 5.18231C6.38417 5.18231 6.60706 5.26988 6.7822 5.44501L11.463 10.1258L16.1438 5.44501C16.3189 5.26988 16.5418 5.18231 16.8125 5.18231C17.0831 5.18231 17.306 5.26988 17.4812 5.44501C17.6563 5.62014 17.7439 5.84304 17.7439 6.11369C17.7439 6.38435 17.6563 6.60725 17.4812 6.78238L12.8004 11.4632L17.4812 16.144C17.6563 16.3191 17.7439 16.542 17.7439 16.8127C17.7439 17.0833 17.6563 17.3062 17.4812 17.4813C17.306 17.6565 17.0831 17.744 16.8125 17.744C16.5418 17.744 16.3189 17.6565 16.1438 17.4813L11.463 12.8005Z" fill="black"/>
</svg>
