<svg width="25" height="25" viewBox="0 0 25 25" fill="none" xmlns="http://www.w3.org/2000/svg">
<path d="M12.2501 2.04163C6.62529 2.04163 2.04175 6.62517 2.04175 12.25C2.04175 17.8748 6.62529 22.4583 12.2501 22.4583C17.8749 22.4583 22.4584 17.8748 22.4584 12.25C22.4584 6.62517 17.8749 2.04163 12.2501 2.04163ZM8.67717 9.18746C9.52446 9.18746 10.2084 9.87142 10.2084 10.7187C10.2084 11.566 9.52446 12.25 8.67717 12.25C7.82987 12.25 7.14592 11.566 7.14592 10.7187C7.14592 9.87142 7.82987 9.18746 8.67717 9.18746ZM16.5784 16.5783C16.3028 16.8539 15.9965 17.1091 15.6801 17.3235C15.3534 17.5481 15.0063 17.7318 14.6388 17.885C14.2611 18.0483 13.8732 18.1606 13.4853 18.2423C12.6701 18.4072 11.8301 18.4072 11.0149 18.2423C10.627 18.1606 10.239 18.0381 9.86133 17.885C9.49383 17.7318 9.14675 17.5379 8.82008 17.3235C8.49513 17.1033 8.19101 16.8539 7.91154 16.5783C7.63511 16.3033 7.38557 16.0024 7.16633 15.68L8.86092 14.5366C9.00383 14.751 9.17737 14.9552 9.36112 15.1389C9.92282 15.7063 10.6406 16.0936 11.4232 16.2516C12.235 16.4176 13.0779 16.3358 13.8426 16.0168C14.0876 15.9148 14.3224 15.7923 14.5367 15.6391C14.7511 15.4962 14.9553 15.3227 15.139 15.1389C15.3228 14.9552 15.4963 14.751 15.6392 14.5366L17.3338 15.68C17.1195 16.0066 16.8642 16.3129 16.5886 16.5885L16.5784 16.5783ZM15.823 12.25C14.9757 12.25 14.2917 11.566 14.2917 10.7187C14.2917 9.87142 14.9757 9.18746 15.823 9.18746C16.6703 9.18746 17.3542 9.87142 17.3542 10.7187C17.3542 11.566 16.6703 12.25 15.823 12.25Z" fill="#34C759"/>
</svg>
