<svg width="25" height="25" viewBox="0 0 25 25" fill="none" xmlns="http://www.w3.org/2000/svg">
<path d="M12.0833 24.1667C5.40971 24.1667 0 18.757 0 12.0833C0 5.40971 5.40971 0 12.0833 0C18.757 0 24.1667 5.40971 24.1667 12.0833C24.1667 18.757 18.757 24.1667 12.0833 24.1667ZM10.875 15.7083V18.125H13.2917V15.7083H10.875ZM13.2917 13.7206C14.2628 13.4279 15.0964 12.7962 15.6409 11.9404C16.1853 11.0847 16.4042 10.0619 16.2578 9.05823C16.1114 8.0546 15.6094 7.13695 14.8432 6.47239C14.077 5.80782 13.0976 5.44057 12.0833 5.4375C11.1056 5.4372 10.1579 5.77571 9.40157 6.39543C8.64526 7.01515 8.12705 7.87778 7.93513 8.83654L10.3059 9.31142C10.3732 8.97481 10.5346 8.66424 10.7715 8.41582C11.0084 8.1674 11.311 7.99137 11.644 7.90819C11.977 7.82501 12.3268 7.83811 12.6527 7.94596C12.9786 8.05382 13.2672 8.252 13.4848 8.51744C13.7024 8.78287 13.8402 9.10466 13.8822 9.44535C13.9241 9.78605 13.8684 10.1316 13.7216 10.4419C13.5747 10.7522 13.3428 11.0144 13.0528 11.198C12.7628 11.3816 12.4266 11.4791 12.0833 11.4792C11.7629 11.4792 11.4555 11.6065 11.2289 11.8331C11.0023 12.0597 10.875 12.367 10.875 12.6875V14.5H13.2917V13.7206Z" fill="#6E5BB8"/>
</svg>
