<svg width="60" height="60" viewBox="0 0 60 60" fill="none" xmlns="http://www.w3.org/2000/svg">
<g clip-path="url(#clip0_975_1652)">
<path d="M13.185 26.25C15.7809 26.25 18.3185 27.0198 20.4769 28.462C22.6353 29.9042 24.3175 31.954 25.3109 34.3523C26.3043 36.7506 26.5642 39.3896 26.0578 41.9356C25.5514 44.4816 24.3013 46.8202 22.4658 48.6558C20.6302 50.4913 18.2916 51.7414 15.7456 52.2478C13.1996 52.7542 10.5606 52.4943 8.16228 51.5009C5.764 50.5075 3.71415 48.8253 2.27196 46.6669C0.829768 44.5085 0.06 41.9709 0.06 39.375L0 37.5C0 30.5381 2.76562 23.8613 7.68845 18.9384C12.6113 14.0156 19.2881 11.25 26.25 11.25V18.75C23.7866 18.7434 21.3464 19.2252 19.0704 20.1675C16.7944 21.1098 14.7277 22.494 12.99 24.24C12.3145 24.914 11.6914 25.6386 11.1263 26.4075C11.7987 26.3 12.4838 26.2463 13.1813 26.2463L13.185 26.25ZM46.935 26.25C49.5309 26.25 52.0685 27.0198 54.2269 28.462C56.3853 29.9042 58.0675 31.954 59.0609 34.3523C60.0543 36.7506 60.3142 39.3896 59.8078 41.9356C59.3014 44.4816 58.0513 46.8202 56.2158 48.6558C54.3802 50.4913 52.0416 51.7414 49.4956 52.2478C46.9496 52.7542 44.3106 52.4943 41.9123 51.5009C39.514 50.5075 37.4642 48.8253 36.022 46.6669C34.5798 44.5085 33.81 41.9709 33.81 39.375L33.75 37.5C33.75 30.5381 36.5156 23.8613 41.4384 18.9384C46.3613 14.0156 53.0381 11.25 60 11.25V18.75C57.5366 18.7434 55.0964 19.2252 52.8204 20.1675C50.5444 21.1098 48.4777 22.494 46.74 24.24C46.0645 24.914 45.4414 25.6386 44.8763 26.4075C45.5488 26.3 46.235 26.25 46.935 26.25Z" fill="white"/>
</g>
<defs>
<clipPath id="clip0_975_1652">
<rect width="60" height="60" fill="white"/>
</clipPath>
</defs>
</svg>
