<svg width="201" height="32" viewBox="0 0 201 32" fill="none" xmlns="http://www.w3.org/2000/svg">
<path d="M8.15989 30.816C7.03989 30.816 6.11189 30.544 5.37589 30C4.67189 29.424 4.17589 28.624 3.88789 27.6C3.59989 26.576 3.56789 25.36 3.79189 23.952C3.98389 22.768 4.33589 21.552 4.84789 20.304C5.39189 19.056 6.01589 17.84 6.71989 16.656C7.00789 16.176 7.13589 15.84 7.10389 15.648C7.10389 15.424 6.92789 15.312 6.57589 15.312H4.27189C3.50389 15.312 2.87989 15.392 2.39989 15.552C1.95189 15.68 1.58389 15.904 1.29589 16.224C1.03989 16.512 0.831891 16.896 0.671891 17.376C0.607891 17.504 0.479891 17.552 0.287891 17.52C0.0958907 17.488 0.0318907 17.392 0.0958907 17.232C0.575891 15.856 1.00789 14.768 1.39189 13.968C1.80789 13.136 2.30389 12.544 2.87989 12.192C3.45589 11.808 4.20789 11.616 5.13589 11.616H9.59989C9.85589 11.616 10.0159 11.648 10.0799 11.712C10.1439 11.776 10.1119 11.936 9.98389 12.192C9.37589 13.632 8.76789 15.2 8.15989 16.896C7.58389 18.56 7.21589 19.968 7.05589 21.12C6.76789 22.976 6.95989 24.448 7.63189 25.536C8.33589 26.592 9.31189 27.12 10.5599 27.12C11.3279 27.12 12.0799 26.832 12.8159 26.256C13.5519 25.68 14.2399 24.944 14.8799 24.048C15.5199 23.12 16.0479 22.144 16.4639 21.12C16.9119 20.096 17.1999 19.136 17.3279 18.24C17.4879 17.28 17.4239 16.608 17.1359 16.224C16.8799 15.84 16.4959 15.648 15.9839 15.648C15.5999 15.648 15.2479 15.776 14.9279 16.032C14.6079 16.288 14.3679 16.816 14.2079 17.616C14.0159 18.512 13.9839 19.504 14.1119 20.592C14.2719 21.68 14.5919 22.72 15.0719 23.712C15.5519 24.704 16.1919 25.52 16.9919 26.16C17.8239 26.8 18.8159 27.12 19.9679 27.12C20.7679 27.12 21.5359 26.864 22.2719 26.352C23.0399 25.808 23.6799 25.056 24.1919 24.096C24.7359 23.104 25.0719 21.952 25.1999 20.64C25.2959 19.872 25.2799 19.232 25.1519 18.72C25.0559 18.208 24.8799 17.744 24.6239 17.328C24.3679 16.88 24.0319 16.432 23.6159 15.984C23.2959 15.632 23.0079 15.264 22.7519 14.88C22.4959 14.496 22.3679 14.048 22.3679 13.536C22.3679 12.704 22.6239 12.112 23.1359 11.76C23.6799 11.376 24.3039 11.184 25.0079 11.184C25.6799 11.184 26.2239 11.36 26.6399 11.712C27.0559 12.032 27.3439 12.64 27.5039 13.536C27.6639 14.4 27.6639 15.632 27.5039 17.232C27.3439 19.056 26.9439 20.8 26.3039 22.464C25.6639 24.096 24.8799 25.536 23.9519 26.784C23.0239 28.032 21.9999 29.024 20.8799 29.76C19.7919 30.464 18.7039 30.816 17.6159 30.816C16.5919 30.816 15.7119 30.496 14.9759 29.856C14.2719 29.216 13.7119 28.336 13.2959 27.216C12.9119 26.064 12.6879 24.704 12.6239 23.136C12.5919 21.536 12.7359 19.808 13.0559 17.952C13.3439 16.416 13.6799 15.168 14.0639 14.208C14.4479 13.216 14.8959 12.496 15.4079 12.048C15.9519 11.6 16.5439 11.376 17.1839 11.376C18.0479 11.376 18.6239 11.76 18.9119 12.528C19.2319 13.296 19.2639 14.48 19.0079 16.08C18.7519 17.904 18.2719 19.696 17.5679 21.456C16.8639 23.184 15.9999 24.768 14.9759 26.208C13.9839 27.616 12.8959 28.736 11.7119 29.568C10.5599 30.4 9.37589 30.816 8.15989 30.816ZM31.3405 30.624C30.6045 30.624 29.9965 30.4 29.5165 29.952C29.0685 29.504 28.8445 28.896 28.8445 28.128C28.8445 27.392 29.0685 26.816 29.5165 26.4C29.9645 25.952 30.5725 25.728 31.3405 25.728C32.1085 25.728 32.7005 25.952 33.1165 26.4C33.5645 26.816 33.7885 27.392 33.7885 28.128C33.7885 29.792 32.9725 30.624 31.3405 30.624ZM55.5374 23.856C55.5694 24.08 55.5534 24.336 55.4894 24.624C55.4574 24.88 55.4414 25.136 55.4414 25.392C55.4414 25.616 55.4254 25.856 55.3934 26.112C55.3614 26.368 55.3134 26.624 55.2494 26.88C55.1534 27.104 55.1214 27.344 55.1534 27.6C55.1854 27.824 55.1854 28.064 55.1534 28.32C55.0894 28.448 55.0094 28.592 54.9134 28.752C54.8494 28.912 54.7694 29.072 54.6734 29.232C54.6414 29.36 54.5934 29.504 54.5294 29.664C54.4654 29.792 54.4014 29.936 54.3374 30.096C54.1134 30.192 53.8894 30.288 53.6654 30.384C53.4734 30.512 53.2814 30.608 53.0894 30.672C52.6734 30.768 52.2254 30.784 51.7454 30.72C51.2974 30.656 50.8494 30.688 50.4014 30.816C50.3374 30.848 50.2574 30.88 50.1614 30.912C50.0974 30.944 50.0014 30.992 49.8734 31.056C49.7454 31.088 49.5854 31.12 49.3934 31.152C49.2334 31.184 49.0734 31.216 48.9134 31.248C48.7854 31.248 48.6574 31.248 48.5294 31.248C48.4334 31.248 48.3534 31.232 48.2894 31.2C48.0974 31.104 47.9054 31.056 47.7134 31.056C47.5534 31.056 47.3934 31.088 47.2334 31.152C47.1054 31.152 46.9774 31.136 46.8494 31.104C46.7214 31.072 46.5774 31.04 46.4174 31.008C46.2574 31.168 46.0494 31.296 45.7934 31.392C45.5374 31.488 45.2654 31.504 44.9774 31.44C44.6894 31.408 44.4334 31.472 44.2094 31.632C44.0174 31.536 43.8414 31.456 43.6814 31.392C43.5534 31.328 43.4094 31.28 43.2494 31.248C43.0254 31.216 42.8014 31.232 42.5774 31.296C42.3854 31.36 42.1614 31.376 41.9054 31.344C41.6494 31.28 41.3934 31.28 41.1374 31.344C40.9134 31.408 40.6734 31.44 40.4174 31.44C40.1614 31.408 39.9214 31.392 39.6974 31.392C39.4734 31.424 39.2654 31.472 39.0734 31.536C39.0414 31.44 38.9934 31.36 38.9294 31.296C38.8654 31.264 38.8334 31.232 38.8334 31.2C38.6094 30.208 38.4974 29.136 38.4974 27.984C38.5614 27.664 38.5774 27.36 38.5454 27.072C38.5134 26.752 38.4974 26.416 38.4974 26.064C38.2734 25.424 38.1294 24.784 38.0654 24.144C38.0334 23.504 38.0334 22.848 38.0654 22.176C38.0974 21.536 38.1294 20.88 38.1614 20.208C38.1934 19.536 38.2254 18.848 38.2574 18.144C38.2574 17.888 38.2734 17.616 38.3054 17.328C38.3374 17.04 38.3854 16.768 38.4494 16.512C38.5774 16.192 38.6574 15.872 38.6894 15.552C38.7214 15.2 38.7374 14.848 38.7374 14.496C38.7374 14.208 38.7374 13.92 38.7374 13.632C38.7374 13.312 38.7214 12.992 38.6894 12.672C38.6894 12.544 38.6894 12.4 38.6894 12.24C38.6894 12.08 38.6734 11.92 38.6414 11.76C38.5774 11.504 38.5294 11.248 38.4974 10.992C38.4654 10.736 38.4494 10.496 38.4494 10.272C38.4814 10.112 38.4814 9.95202 38.4494 9.79202C38.4494 9.63202 38.4334 9.47202 38.4014 9.31202C38.3694 9.18402 38.3694 9.04002 38.4014 8.88001C38.4334 8.72002 38.4334 8.57602 38.4014 8.44802C38.3694 8.22402 38.3534 8.01602 38.3534 7.82402C38.3534 7.63202 38.3854 7.44002 38.4494 7.24802C38.4814 7.05602 38.4654 6.84802 38.4014 6.62402C38.3694 6.36802 38.3374 6.11202 38.3054 5.85602C38.3054 5.56802 38.3374 5.31202 38.4014 5.08802C38.4974 4.70402 38.5614 4.32001 38.5934 3.93601C38.6254 3.52002 38.6574 3.15202 38.6894 2.83201C38.7534 2.57602 38.8494 2.38402 38.9774 2.25602C39.1374 2.09602 39.2014 1.92002 39.1694 1.72801C39.1374 1.53601 39.2174 1.40802 39.4094 1.34402C39.6014 1.24802 39.6174 1.08802 39.4574 0.864017C39.6814 0.864017 39.8094 0.880016 39.8414 0.912016C40.4494 1.16801 40.9774 1.20001 41.4254 1.00801C41.6174 1.04001 41.8094 1.07201 42.0014 1.10402C42.1934 1.13602 42.3694 1.15202 42.5294 1.15202C42.6894 1.18402 42.8654 1.18402 43.0574 1.15202C43.2494 1.12002 43.4254 1.08802 43.5854 1.05601C43.9694 0.960015 44.3374 0.880015 44.6894 0.816014C45.0734 0.720016 45.4574 0.672016 45.8414 0.672016C46.1934 0.608015 46.5134 0.608015 46.8014 0.672016C46.8974 0.672016 47.0414 0.736016 47.2334 0.864017C47.2014 0.992015 47.1694 1.12001 47.1374 1.24801C47.1374 1.37601 47.1214 1.50401 47.0894 1.63202C47.1214 1.79202 47.1534 1.96801 47.1854 2.16001C47.2494 2.32001 47.2814 2.49601 47.2814 2.68802C47.3134 2.84802 47.3614 3.02402 47.4254 3.21601C47.5214 3.37601 47.6014 3.55202 47.6654 3.74402C47.5694 3.93602 47.4734 4.16002 47.3774 4.41602C47.2814 4.64002 47.1854 4.86402 47.0894 5.08802C47.1534 5.21601 47.2014 5.34401 47.2334 5.47201C47.2654 5.56802 47.2974 5.68002 47.3294 5.80802C47.2014 6.38402 47.0734 6.96002 46.9454 7.53602C46.8494 8.11202 46.7854 8.70402 46.7534 9.31202C46.7214 9.47202 46.6734 9.64802 46.6094 9.84002C46.5774 10 46.5294 10.192 46.4654 10.416C46.5294 10.544 46.5934 10.688 46.6574 10.848C46.7214 10.976 46.7694 11.12 46.8014 11.28L46.6094 12.24C46.6094 12.368 46.6094 12.512 46.6094 12.672C46.6094 12.8 46.5774 12.912 46.5134 13.008C46.4174 13.232 46.3534 13.456 46.3214 13.68C46.3214 13.904 46.2894 14.144 46.2254 14.4C46.2254 14.816 46.2094 15.248 46.1774 15.696C46.1454 16.112 46.1454 16.544 46.1774 16.992C46.1774 17.28 46.1294 17.552 46.0334 17.808C45.9694 18.032 45.9054 18.304 45.8414 18.624C45.9054 18.752 45.9534 18.88 45.9854 19.008C46.0174 19.136 46.0494 19.28 46.0814 19.44C46.0494 19.6 46.0014 19.776 45.9374 19.968C45.9054 20.128 45.8574 20.304 45.7934 20.496C45.8894 20.72 45.9854 20.944 46.0814 21.168C46.1774 21.392 46.2734 21.632 46.3694 21.888C46.4334 22.016 46.4814 22.144 46.5134 22.272C46.5454 22.368 46.5774 22.48 46.6094 22.608C46.7054 22.864 46.8014 23.024 46.8974 23.088C47.0254 23.152 47.2014 23.168 47.4254 23.136C47.8734 23.008 48.3374 22.912 48.8174 22.848C49.2974 22.784 49.7774 22.704 50.2574 22.608C50.3534 22.576 50.5134 22.56 50.7374 22.56C51.0254 22.56 51.3134 22.528 51.6014 22.464C51.9214 22.4 52.2094 22.288 52.4654 22.128C53.0414 21.776 53.6334 21.648 54.2414 21.744C54.4014 21.776 54.5614 21.776 54.7214 21.744C54.8814 21.712 55.0414 21.728 55.2014 21.792C55.2334 21.824 55.2654 21.888 55.2974 21.984C55.3294 22.048 55.3454 22.112 55.3454 22.176C55.4414 22.464 55.4894 22.752 55.4894 23.04C55.5214 23.296 55.5374 23.568 55.5374 23.856ZM66.4015 4.56001C66.4975 4.78402 66.5295 5.02402 66.4975 5.28001C66.4655 5.50401 66.4175 5.72802 66.3535 5.95202C66.3215 6.14402 66.2575 6.33602 66.1615 6.52802C66.0655 6.68801 65.9855 6.84802 65.9215 7.00802C65.7935 7.20002 65.6495 7.37602 65.4895 7.53602C65.3615 7.69602 65.2335 7.85602 65.1055 8.01602C65.0095 8.04802 64.9295 8.11202 64.8655 8.20801C64.8015 8.27202 64.7215 8.33602 64.6255 8.40002C64.4015 8.56002 64.0495 8.72002 63.5695 8.88001C63.0895 9.00802 62.7055 9.07202 62.4175 9.07202C62.2575 9.07202 62.1295 9.04002 62.0335 8.97602C61.8415 8.97602 61.6495 8.97602 61.4575 8.97602C61.2655 8.94402 61.0895 8.92802 60.9295 8.92802C60.8335 8.86402 60.7215 8.80002 60.5935 8.73602C60.4975 8.67202 60.4175 8.60802 60.3535 8.54401C60.1935 8.48002 60.0175 8.44802 59.8255 8.44802C59.6655 8.44802 59.5055 8.44802 59.3455 8.44802C59.2175 8.35202 59.0575 8.27202 58.8655 8.20801C58.7055 8.11202 58.5455 8.03202 58.3855 7.96802L58.0975 7.10401C58.1295 6.84802 58.1615 6.57602 58.1935 6.28802C58.2255 5.96802 58.1935 5.64802 58.0975 5.32802C58.0015 5.26402 58.0015 5.18402 58.0975 5.08802C58.1935 4.86402 58.1935 4.64002 58.0975 4.41602C58.0015 4.19202 58.0015 3.96802 58.0975 3.74402C58.1295 3.68002 58.1455 3.58401 58.1455 3.45601C58.0495 3.26402 58.0495 3.08802 58.1455 2.92802C58.2415 2.73602 58.3215 2.57602 58.3855 2.44802C58.3535 2.35202 58.3375 2.25601 58.3375 2.16001C58.3375 2.03202 58.3375 1.93602 58.3375 1.87201C58.3695 1.84002 58.3855 1.80802 58.3855 1.77602C58.4175 1.71202 58.4655 1.66401 58.5295 1.63202C58.7855 1.56802 58.9935 1.45602 59.1535 1.29601C59.3455 1.10401 59.5535 0.960015 59.7775 0.864017C60.0015 0.672015 60.2415 0.512014 60.4975 0.384014C60.7855 0.256016 61.0575 0.128016 61.3135 1.62125e-05C61.5695 1.62125e-05 61.7935 1.62125e-05 61.9855 1.62125e-05C62.1775 1.62125e-05 62.3695 0.0320158 62.5615 0.096015C62.6575 0.128015 62.7695 0.144014 62.8975 0.144014C63.0255 0.144014 63.1535 0.144014 63.2815 0.144014C63.7295 0.0800152 64.0815 0.256016 64.3375 0.672016C64.4015 0.832016 64.5135 0.928016 64.6735 0.960015C64.8335 0.992015 64.9775 1.04002 65.1055 1.10402C65.4255 1.39202 65.6335 1.76002 65.7295 2.20802C65.7935 2.40002 65.8575 2.59202 65.9215 2.78401C66.0175 2.97602 66.0815 3.16802 66.1135 3.36002C66.1775 3.55202 66.2255 3.76002 66.2575 3.98402C66.3215 4.17602 66.3695 4.36802 66.4015 4.56001ZM66.1135 15.6C66.0495 15.792 66.0175 16.016 66.0175 16.272C66.0175 16.496 66.0175 16.736 66.0175 16.992C66.0495 17.216 66.0495 17.456 66.0175 17.712C65.9855 17.936 65.9695 18.16 65.9695 18.384L65.6335 18.864C65.7935 19.024 65.8895 19.2 65.9215 19.392C65.9535 19.584 65.9695 19.792 65.9695 20.016C65.9695 20.24 65.9695 20.48 65.9695 20.736C65.9695 20.96 65.9535 21.2 65.9215 21.456C65.8895 21.68 65.8255 21.92 65.7295 22.176C65.6335 22.432 65.5535 22.704 65.4895 22.992C65.4895 23.312 65.4735 23.696 65.4415 24.144C65.4415 24.56 65.4575 24.976 65.4895 25.392C65.5215 26 65.4895 26.624 65.3935 27.264C65.2975 27.872 65.1055 28.448 64.8175 28.992C64.8175 29.248 64.8495 29.504 64.9135 29.76C64.9775 29.984 65.0415 30.224 65.1055 30.48C65.1055 30.512 65.0895 30.544 65.0575 30.576C65.0255 30.64 65.0095 30.704 65.0095 30.768C64.8495 30.992 64.6575 31.184 64.4335 31.344C64.4015 31.344 64.3695 31.36 64.3375 31.392H64.1455C63.7935 31.392 63.4255 31.408 63.0415 31.44C62.6895 31.504 62.2895 31.488 61.8415 31.392C61.7135 31.328 61.5695 31.248 61.4095 31.152C61.2815 31.056 61.1375 30.976 60.9775 30.912C60.8495 30.912 60.6895 30.896 60.4975 30.864C60.3375 30.864 60.1775 30.848 60.0175 30.816C59.7615 30.528 59.5055 30.224 59.2495 29.904C59.1535 29.84 59.0415 29.792 58.9135 29.76C58.7855 29.728 58.6575 29.68 58.5295 29.616C58.3055 29.456 58.2255 29.2 58.2895 28.848C58.3535 28.496 58.4335 28.192 58.5295 27.936C58.6255 27.52 58.6095 27.12 58.4815 26.736L58.2895 26.064C58.2895 25.808 58.2735 25.568 58.2415 25.344C58.2095 25.12 58.2095 24.896 58.2415 24.672C58.2735 24.352 58.2735 24.048 58.2415 23.76C58.2415 23.472 58.2415 23.168 58.2415 22.848C58.2735 22.4 58.2895 21.968 58.2895 21.552C58.2895 21.104 58.2895 20.672 58.2895 20.256C58.2895 20.096 58.3055 20 58.3375 19.968C58.4975 19.712 58.5775 19.472 58.5775 19.248C58.5775 18.992 58.5775 18.736 58.5775 18.48C58.5455 18.224 58.5455 17.968 58.5775 17.712C58.6415 17.424 58.6415 17.168 58.5775 16.944C58.5775 16.656 58.5775 16.384 58.5775 16.128C58.5775 15.84 58.5935 15.552 58.6255 15.264C58.6575 15.104 58.6735 14.944 58.6735 14.784C58.7055 14.592 58.6895 14.384 58.6255 14.16C58.9135 14.032 59.1535 13.936 59.3455 13.872C59.5695 13.808 59.7775 13.776 59.9695 13.776C60.0975 13.776 60.2255 13.776 60.3535 13.776C60.5135 13.776 60.6575 13.76 60.7855 13.728C61.1055 13.664 61.3775 13.6 61.6015 13.536C61.7615 13.568 61.8895 13.632 61.9855 13.728C62.1135 13.792 62.2415 13.856 62.3695 13.92C62.5935 13.92 62.8175 13.872 63.0415 13.776C63.2655 13.744 63.4575 13.76 63.6175 13.824C63.8095 13.888 63.9535 14.048 64.0495 14.304C64.0815 14.336 64.0975 14.368 64.0975 14.4C64.1295 14.432 64.1615 14.464 64.1935 14.496L64.5295 14.688C64.7535 14.72 64.9455 14.688 65.1055 14.592C65.2655 14.464 65.4255 14.384 65.5855 14.352C65.7775 14.352 65.8895 14.432 65.9215 14.592C66.0175 14.816 66.0815 15.152 66.1135 15.6ZM94.0383 20.112C94.0063 20.24 93.9423 20.432 93.8463 20.688C93.7823 20.944 93.7183 21.216 93.6543 21.504C93.6223 21.632 93.5903 21.76 93.5583 21.888C93.5583 21.984 93.5583 22.08 93.5583 22.176C93.5263 22.336 93.5103 22.496 93.5103 22.656C93.5103 22.784 93.5103 22.896 93.5103 22.992C93.2863 23.408 93.0623 23.824 92.8383 24.24C92.6463 24.624 92.5023 25.04 92.4063 25.488C92.2783 26 92.0703 26.48 91.7823 26.928C91.4943 27.344 91.2223 27.776 90.9663 28.224C90.8383 28.352 90.7263 28.48 90.6303 28.608C90.5343 28.704 90.4383 28.816 90.3423 28.944C89.9903 29.072 89.6543 29.232 89.3343 29.424C89.0143 29.584 88.7263 29.792 88.4703 30.048C88.4383 30.08 88.3743 30.112 88.2783 30.144C88.2143 30.176 88.1503 30.208 88.0863 30.24C87.7343 30.368 87.3823 30.512 87.0303 30.672C86.6783 30.832 86.3263 30.992 85.9743 31.152L84.6783 30.96C84.4543 30.992 84.2303 31.04 84.0063 31.104C83.7823 31.2 83.5743 31.28 83.3823 31.344C83.1583 31.312 82.9823 31.2 82.8543 31.008C82.7583 30.944 82.6623 30.864 82.5663 30.768C82.4703 30.704 82.3423 30.704 82.1823 30.768C81.9903 30.8 81.8303 30.752 81.7023 30.624C81.5743 30.496 81.4303 30.4 81.2703 30.336C81.1743 30.368 81.0783 30.384 80.9823 30.384C80.9183 30.416 80.8063 30.448 80.6463 30.48L79.8783 30.288C79.5903 30.288 79.3183 30.336 79.0623 30.432C78.9023 30.368 78.7423 30.288 78.5823 30.192C78.4223 30.096 78.2303 30.048 78.0063 30.048C77.7823 30.048 77.5583 30.016 77.3343 29.952C77.1423 29.856 76.9343 29.792 76.7103 29.76C76.5183 29.728 76.3263 29.696 76.1343 29.664C75.9743 29.632 75.8143 29.6 75.6543 29.568C75.5263 29.504 75.4303 29.424 75.3663 29.328C75.3023 29.232 75.2383 29.136 75.1743 29.04C75.0463 28.976 74.9503 28.944 74.8863 28.944C74.7903 28.848 74.6783 28.784 74.5503 28.752C74.4223 28.688 74.2783 28.64 74.1183 28.608C73.8943 28.512 73.7023 28.4 73.5423 28.272C73.3823 28.112 73.2223 27.968 73.0623 27.84C72.8383 27.584 72.6303 27.344 72.4383 27.12C72.2783 26.864 72.0703 26.624 71.8143 26.4L71.5743 25.92C71.4143 25.728 71.2703 25.568 71.1423 25.44C71.0463 25.312 70.8703 25.184 70.6143 25.056H70.0383C70.0063 25.056 69.9743 25.024 69.9423 24.96C69.9103 24.896 69.9103 24.848 69.9423 24.816C69.9743 24.688 70.0063 24.56 70.0383 24.432C70.0703 24.272 70.1023 24.128 70.1343 24C70.1343 23.84 70.0863 23.696 69.9903 23.568C69.9263 23.44 69.8623 23.296 69.7983 23.136C69.7663 22.464 69.6543 21.824 69.4623 21.216C69.3023 20.576 69.1263 19.936 68.9343 19.296V17.904C69.0303 17.808 69.1103 17.696 69.1743 17.568C69.2703 17.44 69.3503 17.328 69.4143 17.232C69.3823 17.072 69.3503 16.912 69.3183 16.752C69.3183 16.592 69.3343 16.432 69.3663 16.272C69.3663 16.08 69.3503 15.888 69.3183 15.696C69.2863 15.472 69.2543 15.248 69.2223 15.024C69.2223 14.992 69.2383 14.928 69.2703 14.832C69.3023 14.704 69.3183 14.576 69.3183 14.448C69.3503 14.352 69.3663 14.256 69.3663 14.16C69.3983 14.032 69.3983 13.904 69.3663 13.776C69.3023 13.52 69.2863 13.28 69.3183 13.056C69.3503 12.8 69.3823 12.528 69.4143 12.24C69.4783 12.016 69.5423 11.808 69.6063 11.616C69.6703 11.392 69.6863 11.168 69.6543 10.944C69.6543 10.752 69.6863 10.624 69.7503 10.56C69.9103 10.368 70.0063 10.16 70.0383 9.93602C70.0703 9.71202 70.1023 9.50402 70.1343 9.31202C70.2943 9.02401 70.4703 8.73602 70.6623 8.44802C70.8863 8.12802 71.1423 7.85602 71.4303 7.63202C71.5263 7.50401 71.6223 7.37602 71.7183 7.24802C71.8143 7.12002 71.9103 7.00802 72.0063 6.91202C72.5823 6.33602 73.0303 5.71202 73.3503 5.04001C73.4783 4.94402 73.5903 4.86402 73.6863 4.80001C73.8143 4.73602 73.9423 4.65602 74.0703 4.56001C74.1023 4.46402 74.1663 4.40002 74.2623 4.36801C74.3903 3.72801 74.8063 3.31202 75.5103 3.12002C75.5743 3.12002 75.6543 3.12002 75.7503 3.12002C75.8783 3.08802 76.0063 3.05602 76.1343 3.02401C76.2303 2.96002 76.3423 2.88002 76.4703 2.78401C76.6303 2.65601 76.7743 2.56001 76.9023 2.49602C76.9983 2.36802 77.1263 2.27202 77.2863 2.20802C77.4463 2.11202 77.6063 2.03202 77.7663 1.96802C77.9583 1.93602 78.1343 1.87201 78.2943 1.77602C78.4543 1.64802 78.6143 1.55202 78.7743 1.48801C79.1583 1.42402 79.4943 1.44002 79.7823 1.53602C80.4223 1.76002 81.0143 1.71202 81.5583 1.39202C81.7823 1.26402 82.0063 1.20002 82.2303 1.20002C82.4863 1.16802 82.6943 1.07202 82.8543 0.912016C83.2063 1.04002 83.5423 1.15202 83.8623 1.24801L84.8223 1.44001C85.1423 1.50402 85.4623 1.60002 85.7823 1.72801C86.1023 1.82401 86.4063 1.92002 86.6943 2.01602C87.0143 2.14402 87.3343 2.27202 87.6543 2.40001C87.9743 2.52801 88.2623 2.67201 88.5183 2.83201C88.6463 2.89602 88.7583 2.94402 88.8543 2.97602C88.9823 2.97602 89.0943 3.00802 89.1903 3.07202C89.3503 3.13602 89.4943 3.20002 89.6223 3.26401C89.7503 3.29602 89.8623 3.34402 89.9583 3.40802C90.0543 3.53602 90.1343 3.66402 90.1983 3.79202C90.2943 3.92002 90.4063 4.04802 90.5343 4.17601C90.5983 4.24002 90.6783 4.30402 90.7743 4.36801C90.8703 4.40002 90.9663 4.44802 91.0623 4.51202C91.2863 4.64002 91.4623 4.80002 91.5903 4.99201C91.7503 5.15201 91.8303 5.36001 91.8303 5.61602C91.8303 5.74402 91.8783 5.85602 91.9743 5.95202C92.1023 6.04802 92.1823 6.17602 92.2143 6.33602C92.0543 6.65602 91.9263 6.96002 91.8303 7.24802C91.7023 7.66402 91.4463 7.98401 91.0623 8.20801C91.0303 8.24002 90.9983 8.28802 90.9663 8.35202C90.9663 8.38402 90.9503 8.43202 90.9183 8.49602C90.9823 8.84802 90.9343 9.15202 90.7743 9.40802C90.6143 9.66402 90.4223 9.92002 90.1983 10.176C90.1983 10.304 90.1983 10.432 90.1983 10.56C90.1983 10.656 90.1183 10.72 89.9583 10.752C89.9263 10.72 89.8463 10.752 89.7183 10.848C89.5903 10.912 89.5103 10.976 89.4783 11.04C89.4463 11.168 89.3503 11.264 89.1903 11.328C89.0623 11.36 88.9503 11.344 88.8543 11.28C88.6943 11.088 88.4703 10.992 88.1823 10.992L88.1343 10.944C88.1023 10.912 88.0703 10.88 88.0383 10.848C88.0063 10.784 87.9743 10.752 87.9423 10.752C87.7503 10.688 87.5903 10.656 87.4623 10.656C86.9823 10.656 86.5823 10.4 86.2623 9.88802C86.2303 9.82402 86.1663 9.74402 86.0703 9.64802C85.6543 9.48802 85.2543 9.32802 84.8703 9.16802C84.4863 8.97602 84.0703 8.84802 83.6223 8.78402C83.3023 8.81602 82.9983 8.83202 82.7103 8.83202C82.4223 8.80002 82.1023 8.84802 81.7503 8.97602L81.1263 9.60002C80.9023 9.69602 80.6783 9.77602 80.4543 9.84002C80.2623 9.87202 80.0703 9.92002 79.8783 9.98401C79.7183 10.112 79.5423 10.208 79.3503 10.272C79.1583 10.304 78.9663 10.4 78.7743 10.56C78.6783 10.624 78.5503 10.784 78.3903 11.04V11.568C78.1983 11.664 78.0223 11.712 77.8623 11.712C77.7983 11.84 77.7503 11.968 77.7183 12.096C77.7183 12.192 77.7183 12.304 77.7183 12.432C77.7183 12.88 77.6543 13.296 77.5263 13.68C77.4943 13.904 77.4623 14.144 77.4303 14.4C77.3983 14.656 77.3503 14.912 77.2863 15.168C77.2543 15.2 77.2383 15.264 77.2383 15.36C77.2703 15.424 77.2863 15.488 77.2863 15.552C77.3503 15.712 77.3663 15.808 77.3343 15.84C77.3023 16.064 77.2703 16.304 77.2383 16.56C77.2063 16.784 77.2223 17.008 77.2863 17.232C77.3503 17.456 77.3983 17.68 77.4303 17.904C77.4623 18.128 77.4943 18.368 77.5263 18.624C77.5903 18.752 77.6223 18.88 77.6223 19.008C77.6543 19.136 77.6863 19.28 77.7183 19.44C77.8463 19.632 77.9903 19.808 78.1503 19.968C78.1183 20.096 78.1023 20.24 78.1023 20.4C78.1023 20.528 78.0863 20.672 78.0543 20.832C78.0863 21.088 78.1823 21.328 78.3423 21.552C78.5023 21.744 78.6303 21.968 78.7263 22.224C78.8863 22.352 79.0623 22.464 79.2543 22.56C79.4463 22.624 79.5903 22.752 79.6863 22.944C79.9423 23.136 80.1823 23.328 80.4063 23.52C80.6623 23.712 80.9023 23.92 81.1263 24.144C81.2543 24.176 81.3663 24.208 81.4623 24.24C81.5903 24.272 81.7183 24.32 81.8463 24.384C82.1983 24.32 82.5503 24.256 82.9023 24.192C83.2543 24.128 83.6223 24.048 84.0063 23.952C84.1023 23.952 84.1983 23.968 84.2943 24C84.3903 24 84.5023 24.016 84.6303 24.048C84.7263 24.048 84.8223 24.048 84.9183 24.048C85.0463 24.016 85.1263 23.968 85.1583 23.904C85.2863 23.808 85.3823 23.712 85.4463 23.616C85.5423 23.488 85.6543 23.376 85.7823 23.28C85.8783 23.216 85.9743 23.168 86.0703 23.136C86.1663 23.072 86.2463 23.008 86.3103 22.944C86.5023 22.72 86.6623 22.496 86.7903 22.272C86.9183 22.048 87.0463 21.824 87.1743 21.6C87.1743 21.408 87.1423 21.216 87.0783 21.024C87.0463 20.832 86.9983 20.656 86.9343 20.496C86.8703 20.208 86.6623 20.032 86.3103 19.968C86.0543 19.904 85.8783 19.888 85.7823 19.92C85.3343 20.048 84.8863 20.096 84.4383 20.064C84.0223 20.032 83.6063 20.048 83.1903 20.112C83.0623 20.016 82.8863 19.936 82.6623 19.872C82.5663 19.744 82.5503 19.648 82.6143 19.584C82.7103 19.36 82.7903 19.152 82.8543 18.96C82.9183 18.768 82.9343 18.56 82.9023 18.336C82.9023 17.824 82.9503 17.328 83.0463 16.848C83.1423 16.368 83.2383 15.904 83.3343 15.456C83.5263 15.136 83.8143 14.976 84.1983 14.976C84.5183 14.912 84.8383 14.848 85.1583 14.784C85.4783 14.688 85.7823 14.56 86.0703 14.4C86.3583 14.368 86.6463 14.368 86.9343 14.4C87.2223 14.4 87.4943 14.464 87.7503 14.592C88.1663 14.624 88.5663 14.672 88.9503 14.736C89.3663 14.768 89.7823 14.768 90.1983 14.736C90.2623 14.768 90.3263 14.8 90.3903 14.832C90.4863 14.864 90.5503 14.912 90.5823 14.976C90.6783 14.88 90.8223 14.768 91.0143 14.64C91.1743 14.704 91.3343 14.784 91.4943 14.88C91.6543 14.976 91.7983 15.056 91.9263 15.12C91.9903 15.152 92.0703 15.168 92.1663 15.168C92.2943 15.168 92.4063 15.184 92.5023 15.216C92.7583 15.344 92.9983 15.504 93.2223 15.696C93.4783 15.888 93.7183 16.016 93.9423 16.08C94.2303 16.368 94.3423 16.656 94.2783 16.944C94.2463 17.2 94.1343 17.44 93.9423 17.664C93.9423 17.856 93.9263 18.048 93.8943 18.24C93.8943 18.432 93.9103 18.624 93.9423 18.816C93.9743 18.944 94.0063 19.104 94.0383 19.296C94.1023 19.488 94.1023 19.76 94.0383 20.112ZM124.203 4.51202C124.171 4.64002 124.155 4.75202 124.155 4.84802C124.155 4.94402 124.155 5.04002 124.155 5.13602C124.155 5.23201 124.155 5.34401 124.155 5.47201C124.187 5.56802 124.187 5.66402 124.155 5.76002C124.123 5.95202 124.123 6.12802 124.155 6.28802C124.187 6.44802 124.171 6.60802 124.107 6.76801C124.075 6.83202 124.043 6.89602 124.011 6.96002C123.979 6.99202 123.963 7.04002 123.963 7.10401C124.027 7.68002 123.995 8.24002 123.867 8.78402C123.739 9.32802 123.627 9.88802 123.531 10.464L123.867 11.472C123.835 11.664 123.771 11.856 123.675 12.048C123.611 12.24 123.547 12.448 123.483 12.672C123.515 12.864 123.531 13.072 123.531 13.296C123.563 13.488 123.595 13.696 123.627 13.92C123.563 14.112 123.515 14.32 123.483 14.544C123.451 14.768 123.467 14.992 123.531 15.216C123.659 15.568 123.691 15.936 123.627 16.32C123.595 16.672 123.595 17.024 123.627 17.376C123.627 17.408 123.627 17.456 123.627 17.52C123.627 17.584 123.611 17.632 123.579 17.664C123.483 17.888 123.435 18.144 123.435 18.432C123.435 18.688 123.451 18.944 123.483 19.2C123.547 19.52 123.579 19.824 123.579 20.112C123.611 20.4 123.707 20.688 123.867 20.976C123.899 21.232 123.915 21.504 123.915 21.792C123.915 22.08 123.931 22.352 123.963 22.608C123.899 22.736 123.819 22.88 123.723 23.04C123.627 23.168 123.547 23.296 123.483 23.424C123.451 23.68 123.435 23.936 123.435 24.192C123.435 24.416 123.499 24.656 123.627 24.912C123.659 24.944 123.675 25.088 123.675 25.344C123.707 25.568 123.739 25.808 123.771 26.064C123.803 26.288 123.819 26.416 123.819 26.448C124.075 26.768 124.075 27.104 123.819 27.456C123.787 27.52 123.739 27.584 123.675 27.648C123.643 27.712 123.611 27.792 123.579 27.888C123.643 28.112 123.707 28.336 123.771 28.56C123.835 28.752 123.883 28.96 123.915 29.184C123.979 29.472 123.963 29.68 123.867 29.808C123.771 29.936 123.627 30.08 123.435 30.24C123.403 30.272 123.339 30.288 123.243 30.288C123.147 30.32 123.067 30.368 123.003 30.432C122.875 30.432 122.779 30.448 122.715 30.48C122.587 30.512 122.459 30.528 122.331 30.528C122.235 30.56 122.107 30.592 121.947 30.624L121.419 30.288C121.291 30.256 121.099 30.288 120.843 30.384C120.619 30.512 120.411 30.496 120.219 30.336C120.187 30.24 120.043 30.16 119.787 30.096C119.531 30 119.419 30 119.451 30.096V30.144C119.451 30.144 119.307 30.192 119.019 30.288C118.731 30.416 118.507 30.528 118.347 30.624C118.091 30.592 117.771 30.464 117.387 30.24C117.035 30.016 116.779 29.904 116.619 29.904C116.491 29.744 116.411 29.6 116.379 29.472C116.379 29.344 116.379 29.2 116.379 29.04C116.411 28.88 116.443 28.736 116.475 28.608C116.507 28.448 116.539 28.288 116.571 28.128C116.731 27.808 116.731 27.424 116.571 26.976C116.507 26.752 116.427 26.544 116.331 26.352C116.267 26.128 116.219 25.904 116.187 25.68C116.155 25.584 116.139 25.408 116.139 25.152C116.139 24.896 116.107 24.736 116.043 24.672C116.011 24.448 115.995 24.224 115.995 24C116.027 23.776 115.979 23.552 115.851 23.328C115.755 23.008 115.771 22.672 115.899 22.32C115.963 22.192 115.995 22.08 115.995 21.984C116.027 21.856 116.059 21.76 116.091 21.696C116.155 21.312 116.123 21.024 115.995 20.832C115.675 20.288 115.339 19.888 114.987 19.632C114.763 19.6 114.523 19.568 114.267 19.536C114.011 19.504 113.755 19.488 113.499 19.488C113.467 19.488 113.403 19.488 113.307 19.488C113.211 19.456 113.099 19.424 112.971 19.392C112.491 19.296 112.027 19.296 111.579 19.392C111.163 19.488 110.683 19.552 110.139 19.584C109.787 19.584 109.451 19.456 109.131 19.2C109.099 19.232 109.035 19.28 108.939 19.344C108.843 19.376 108.763 19.424 108.699 19.488C108.379 19.296 108.011 19.152 107.595 19.056C107.403 18.992 107.195 18.96 106.971 18.96C106.779 18.928 106.555 18.896 106.299 18.864C106.043 18.928 105.883 19.152 105.819 19.536V19.968C105.883 20.384 105.899 20.8 105.867 21.216C105.835 21.632 105.739 22.032 105.579 22.416C105.579 22.48 105.579 22.56 105.579 22.656C105.579 22.752 105.563 22.832 105.531 22.896C105.627 23.024 105.707 23.168 105.771 23.328C105.835 23.456 105.899 23.584 105.963 23.712C105.867 24.032 105.723 24.368 105.531 24.72C105.563 24.944 105.579 25.168 105.579 25.392C105.611 25.616 105.643 25.84 105.675 26.064C105.707 26.128 105.739 26.208 105.771 26.304C105.803 26.368 105.835 26.432 105.867 26.496C106.219 27.04 106.171 27.552 105.723 28.032C105.691 28.064 105.675 28.096 105.675 28.128C105.675 28.16 105.643 28.208 105.579 28.272C105.579 28.4 105.579 28.544 105.579 28.704C105.579 28.864 105.563 29.04 105.531 29.232C105.531 29.36 105.483 29.52 105.387 29.712C105.387 29.744 105.355 29.776 105.291 29.808C105.259 29.84 105.211 29.888 105.147 29.952C104.699 30.112 104.299 30.24 103.947 30.336C103.435 30.4 103.003 30.384 102.651 30.288C102.331 30.224 101.915 30.096 101.403 29.904C101.051 29.968 100.683 30.016 100.299 30.048C99.9465 30.048 99.5625 29.984 99.1465 29.856C98.9865 29.792 98.7945 29.696 98.5705 29.568C98.3785 29.44 98.1705 29.312 97.9465 29.184C97.7225 29.088 97.4985 28.992 97.2745 28.896C97.0825 28.8 96.8905 28.72 96.6985 28.656C96.6025 28.368 96.5865 28.112 96.6505 27.888C96.7145 27.696 96.7625 27.488 96.7945 27.264C96.8585 27.04 96.9225 26.832 96.9865 26.64C97.1465 26.224 97.2265 25.824 97.2265 25.44C97.0985 25.28 97.1145 25.072 97.2745 24.816C97.4025 24.56 97.4345 24.288 97.3705 24C97.3385 23.712 97.3385 23.44 97.3705 23.184C97.2425 22.736 97.2105 22.288 97.2745 21.84C97.3385 21.36 97.4025 20.912 97.4665 20.496C97.4985 20.24 97.5465 20.016 97.6105 19.824C97.6745 19.632 97.6745 19.44 97.6105 19.248C97.6745 18.992 97.7865 18.8 97.9465 18.672C98.1065 18.512 98.1865 18.336 98.1865 18.144C98.2185 17.888 98.1865 17.68 98.0905 17.52C98.0265 17.328 97.9785 17.12 97.9465 16.896C97.9465 16.8 97.9465 16.688 97.9465 16.56C97.9785 16.4 97.9945 16.256 97.9945 16.128C97.9945 15.968 97.9945 15.824 97.9945 15.696C97.9945 15.568 98.0105 15.456 98.0425 15.36C98.1065 15.104 98.0905 14.848 97.9945 14.592C97.9305 14.336 97.9145 14.064 97.9465 13.776C97.9465 13.712 97.9305 13.648 97.8985 13.584C97.8665 13.52 97.8345 13.44 97.8025 13.344C97.7705 13.088 97.7705 12.816 97.8025 12.528C97.8345 12.24 97.8505 11.968 97.8505 11.712C97.8505 11.424 97.8345 11.152 97.8025 10.896C97.7705 10.64 97.7705 10.4 97.8025 10.176C97.8025 10.112 97.8025 10.08 97.8025 10.08C97.8345 10.048 97.8505 10.016 97.8505 9.98401C97.9145 9.95202 97.9785 9.95202 98.0425 9.98401C98.1385 10.016 98.2025 10.016 98.2345 9.98401C98.3945 9.63202 98.4265 9.29602 98.3305 8.97602C98.2345 8.62402 98.1705 8.28802 98.1385 7.96802C98.2345 7.80802 98.2825 7.61602 98.2825 7.39202C98.2825 7.13602 98.2345 6.99202 98.1385 6.96002C98.1385 6.73602 98.1225 6.51202 98.0905 6.28802C98.0905 6.06402 98.0745 5.84002 98.0425 5.61602C98.0105 5.36001 97.9625 5.12002 97.8985 4.89602C97.8345 4.67202 97.8185 4.43201 97.8505 4.17601C97.9145 3.98401 97.9785 3.79202 98.0425 3.60002C98.1065 3.40802 98.2025 3.21602 98.3305 3.02401C98.4585 2.99201 98.6025 2.96002 98.7625 2.92802C98.9545 2.89602 99.1305 2.83202 99.2905 2.73602C99.4505 2.67202 99.5785 2.59202 99.6745 2.49602C99.7705 2.40001 99.8825 2.33601 100.011 2.30402C100.267 2.27202 100.491 2.30402 100.683 2.40001C100.907 2.49601 101.115 2.56001 101.307 2.59201C101.755 2.62402 102.107 2.59202 102.363 2.49602C102.619 2.40001 102.939 2.20801 103.323 1.92001C103.483 2.01602 103.643 2.11202 103.803 2.20802C103.995 2.30402 104.155 2.40001 104.283 2.49602C104.443 2.56001 104.571 2.62401 104.667 2.68802C104.795 2.75202 104.923 2.81602 105.051 2.88002C105.307 3.04002 105.435 3.28002 105.435 3.60002C105.467 3.82401 105.483 4.03201 105.483 4.22402C105.483 4.41602 105.499 4.60802 105.531 4.80001C105.531 5.05602 105.531 5.31202 105.531 5.56802C105.563 5.82402 105.627 6.08002 105.723 6.33602C105.755 6.46402 105.771 6.59202 105.771 6.72002C105.771 6.84802 105.787 6.97602 105.819 7.10401C105.851 7.52002 105.851 8.09602 105.819 8.83202C105.819 9.53602 105.739 10.08 105.579 10.464C105.547 10.56 105.531 10.672 105.531 10.8C105.691 11.024 105.867 11.104 106.059 11.04C106.283 10.976 106.491 10.944 106.683 10.944C107.035 11.104 107.307 11.28 107.499 11.472C107.691 11.664 107.963 11.856 108.315 12.048C108.667 11.888 108.987 11.824 109.275 11.856C109.595 11.856 109.947 11.792 110.331 11.664H112.587C113.419 11.664 114.235 11.568 115.035 11.376C115.195 11.312 115.339 11.28 115.467 11.28C115.627 11.248 115.771 11.216 115.899 11.184C115.963 11.152 116.027 11.12 116.091 11.088C116.155 11.056 116.203 11.024 116.235 10.992C116.299 10.768 116.283 10.416 116.187 9.93602C116.091 9.42402 116.043 9.07202 116.043 8.88001C116.011 8.72002 115.963 8.54402 115.899 8.35202C115.867 8.16002 115.851 7.98402 115.851 7.82402C115.915 7.47202 115.915 7.13602 115.851 6.81602C115.819 6.49602 115.803 6.17602 115.803 5.85602C115.803 5.69602 115.787 5.52002 115.755 5.32802C115.755 5.13601 115.739 4.96001 115.707 4.80001C115.515 4.12802 115.499 3.40802 115.659 2.64002C116.171 2.19202 116.827 1.92002 117.627 1.82402C117.979 1.72801 118.315 1.72801 118.635 1.82402C118.987 1.88801 119.323 1.95201 119.643 2.01602C119.803 1.95201 119.979 1.88801 120.171 1.82402C120.363 1.72801 120.587 1.61601 120.843 1.48801C121.195 1.48801 121.435 1.48801 121.563 1.48801C121.723 1.48801 121.995 1.47201 122.379 1.44001C122.635 1.44001 122.827 1.42402 122.955 1.39202C123.083 1.32801 123.291 1.28001 123.579 1.24801C123.611 1.28001 123.675 1.40801 123.771 1.63202C123.899 1.85602 123.963 2.03202 123.963 2.16001C123.931 2.19202 123.947 2.36802 124.011 2.68802C124.107 2.97602 124.139 3.23202 124.107 3.45601C124.107 3.64802 124.123 3.84002 124.155 4.03202C124.187 4.19202 124.203 4.35202 124.203 4.51202ZM148.939 2.30402C148.875 2.68802 148.827 3.07202 148.795 3.45601C148.795 3.80802 148.795 4.17602 148.795 4.56001C148.795 5.00801 148.779 5.44001 148.747 5.85602C148.747 6.27202 148.715 6.70402 148.651 7.15202C148.619 7.21602 148.603 7.31202 148.603 7.44001C148.635 7.76002 148.683 8.08002 148.747 8.40002C148.843 8.68802 148.859 8.96002 148.795 9.21602C148.731 9.37602 148.715 9.53602 148.747 9.69602C148.779 9.85602 148.763 10.016 148.699 10.176C148.667 10.24 148.635 10.304 148.603 10.368C148.571 10.432 148.539 10.496 148.507 10.56C148.347 10.592 148.187 10.624 148.027 10.656C147.899 10.656 147.755 10.656 147.595 10.656C147.531 10.688 147.435 10.752 147.307 10.848C147.211 10.912 147.115 10.976 147.019 11.04C146.891 10.976 146.779 10.912 146.683 10.848C146.619 10.784 146.539 10.736 146.443 10.704C146.379 10.704 146.299 10.704 146.203 10.704C146.107 10.672 146.027 10.672 145.963 10.704C145.739 10.8 145.435 10.832 145.051 10.8C144.699 10.736 144.395 10.704 144.139 10.704C143.819 10.704 143.515 10.752 143.227 10.848C142.971 10.912 142.699 11.008 142.411 11.136C142.187 11.264 141.947 11.344 141.691 11.376C141.467 11.376 141.227 11.424 140.971 11.52C140.811 11.744 140.747 11.952 140.779 12.144C140.843 12.4 140.891 12.688 140.923 13.008C140.987 13.296 140.955 13.6 140.827 13.92C140.827 14.048 140.843 14.128 140.875 14.16C141.003 14.48 141.067 14.8 141.067 15.12C141.067 15.44 141.035 15.776 140.971 16.128C140.939 16.448 140.923 16.768 140.923 17.088C140.923 17.376 140.891 17.696 140.827 18.048C140.763 18.4 140.779 18.72 140.875 19.008C140.907 19.2 140.923 19.392 140.923 19.584C140.923 19.776 140.923 19.952 140.923 20.112C140.891 20.336 140.875 20.4 140.875 20.304C140.875 20.176 140.875 20.112 140.875 20.112V20.256C140.875 20.288 140.859 20.32 140.827 20.352C140.827 20.352 140.827 20.368 140.827 20.4C140.859 20.944 140.859 21.36 140.827 21.648C140.827 21.904 140.811 22.144 140.779 22.368C140.747 22.56 140.683 22.864 140.587 23.28V23.52C140.715 24.032 140.779 24.56 140.779 25.104C140.779 25.616 140.763 26.128 140.731 26.64C140.731 26.992 140.731 27.344 140.731 27.696C140.763 28.048 140.843 28.416 140.971 28.8C140.939 28.992 140.891 29.216 140.827 29.472C140.763 29.696 140.683 29.92 140.587 30.144C140.555 30.272 140.491 30.384 140.395 30.48C140.331 30.576 140.219 30.688 140.059 30.816C139.291 30.752 138.571 30.816 137.899 31.008C137.547 31.136 137.179 31.088 136.795 30.864C136.731 30.8 136.699 30.768 136.699 30.768C136.219 30.48 135.755 30.432 135.307 30.624C135.115 30.72 134.923 30.752 134.731 30.72C134.539 30.688 134.363 30.672 134.203 30.672C133.979 30.672 133.787 30.752 133.627 30.912C133.467 31.072 133.259 31.088 133.003 30.96C132.971 30.704 132.987 30.464 133.051 30.24C133.147 30.016 133.211 29.76 133.243 29.472C133.211 29.248 133.147 29.008 133.051 28.752C132.987 28.496 132.923 28.24 132.859 27.984C132.923 27.824 132.971 27.68 133.003 27.552C133.035 27.392 133.051 27.248 133.051 27.12C133.083 26.96 133.083 26.8 133.051 26.64C133.051 26.448 133.051 26.272 133.051 26.112C133.083 25.6 133.083 25.12 133.051 24.672C133.051 24.192 133.019 23.712 132.955 23.232C132.891 22.848 132.843 22.48 132.811 22.128C132.811 21.744 132.795 21.344 132.763 20.928C132.859 20.8 132.939 20.672 133.003 20.544C133.099 20.416 133.211 20.288 133.339 20.16C133.371 19.904 133.387 19.776 133.387 19.776C133.387 19.744 133.387 19.584 133.387 19.296C133.355 18.848 133.355 18.384 133.387 17.904C133.419 17.392 133.483 16.912 133.579 16.464C133.547 16.112 133.499 15.776 133.435 15.456C133.371 15.104 133.259 14.768 133.099 14.448C133.163 14.288 133.227 14.128 133.291 13.968C133.387 13.808 133.451 13.664 133.483 13.536C133.451 13.28 133.451 13.056 133.483 12.864C133.547 12.672 133.531 12.464 133.435 12.24C133.403 12.144 133.323 12.064 133.195 12C132.971 12 132.747 11.984 132.523 11.952C132.299 11.92 132.075 11.904 131.851 11.904C131.627 11.904 131.403 11.872 131.179 11.808C130.987 11.744 130.779 11.744 130.555 11.808C130.363 11.904 130.171 11.92 129.979 11.856C129.819 11.76 129.643 11.728 129.451 11.76H128.203L127.003 11.568C126.939 11.568 126.859 11.52 126.763 11.424C126.667 11.328 126.619 11.232 126.619 11.136V10.8C126.683 10.608 126.731 10.416 126.763 10.224C126.827 10 126.827 9.77602 126.763 9.55202C126.731 9.52002 126.715 9.47202 126.715 9.40802C126.747 9.31202 126.763 9.24802 126.763 9.21602C126.891 8.64002 126.955 7.96802 126.955 7.20002C126.955 6.43202 126.923 5.76002 126.859 5.18402C126.859 4.99202 126.859 4.80002 126.859 4.60801C126.859 4.41601 126.891 4.24002 126.955 4.08002C127.115 3.92002 127.275 3.84002 127.435 3.84002C127.595 3.80802 127.755 3.77602 127.915 3.74402C128.075 3.68002 128.219 3.61602 128.347 3.55202C128.475 3.45602 128.619 3.39202 128.779 3.36002C129.515 3.10402 130.203 3.10402 130.843 3.36002C130.843 3.36002 130.955 3.39202 131.179 3.45601C131.467 3.32801 131.771 3.28001 132.091 3.31202C132.411 3.31202 132.747 3.23202 133.099 3.07202C133.163 3.07202 133.259 3.08802 133.387 3.12002C133.547 3.12002 133.707 3.12002 133.867 3.12002C134.155 2.99202 134.443 2.86402 134.731 2.73602C135.051 2.60802 135.355 2.41601 135.643 2.16001C136.155 2.09601 136.651 2.08002 137.131 2.11201C137.643 2.14401 138.123 2.08001 138.571 1.92001C138.795 1.95202 138.987 2.01602 139.147 2.11201C139.339 2.17602 139.499 2.24002 139.627 2.30402C139.851 2.30402 140.027 2.24002 140.155 2.11201C140.283 1.95201 140.475 1.85602 140.731 1.82402C140.987 1.76001 141.355 1.77601 141.835 1.87201C142.027 1.90401 142.219 2.00001 142.411 2.16001C142.635 2.28801 142.859 2.33601 143.083 2.30402C143.243 2.20801 143.371 2.11201 143.467 2.01602C143.595 1.92002 143.739 1.82401 143.899 1.72801C144.091 1.72801 144.299 1.77601 144.523 1.87201C144.747 1.93602 144.955 1.95202 145.147 1.92001C145.371 1.88801 145.579 1.85602 145.771 1.82402C145.995 1.76001 146.267 1.72801 146.587 1.72801C146.715 1.76002 146.843 1.80802 146.971 1.87201C147.099 1.90401 147.227 1.95201 147.355 2.01602C147.547 1.95201 147.739 1.90401 147.931 1.87201C148.155 1.84002 148.379 1.80802 148.603 1.77602C148.667 1.87201 148.731 1.96801 148.795 2.06402C148.859 2.16002 148.907 2.24002 148.939 2.30402ZM170.677 7.10401C170.485 7.26402 170.261 7.34402 170.005 7.34402C169.749 7.34402 169.493 7.34402 169.237 7.34402C169.013 7.34402 168.821 7.39202 168.661 7.48802L167.845 7.34402C167.717 7.37602 167.605 7.40802 167.509 7.44001C167.413 7.44001 167.285 7.45602 167.125 7.48802C167.029 7.48802 166.853 7.45602 166.597 7.39202C166.213 7.32802 165.877 7.34402 165.589 7.44001C165.205 7.56802 164.773 7.61602 164.293 7.58402C164.005 7.52002 163.701 7.53602 163.381 7.63202C163.093 7.69602 162.821 7.76002 162.565 7.82402C162.437 7.79202 162.309 7.77602 162.181 7.77602C162.085 7.74402 162.005 7.71202 161.941 7.68002C161.749 7.71202 161.557 7.77602 161.365 7.87201C161.205 7.96802 161.029 8.08002 160.837 8.20801C160.741 8.33602 160.645 8.49602 160.549 8.68802C160.485 8.84802 160.389 9.00802 160.261 9.16802C160.229 9.55202 160.213 9.95202 160.213 10.368C160.213 10.752 160.197 11.12 160.165 11.472C160.133 11.728 160.037 11.936 159.877 12.096C159.749 12.224 159.685 12.384 159.685 12.576C159.781 12.832 159.957 12.976 160.213 13.008C160.405 13.072 160.613 13.12 160.837 13.152C161.061 13.152 161.285 13.168 161.509 13.2C161.765 13.104 162.021 13.008 162.277 12.912C162.533 12.816 162.773 12.72 162.997 12.624C163.349 12.624 163.653 12.624 163.909 12.624C164.165 12.624 164.421 12.608 164.677 12.576C164.773 12.576 164.869 12.576 164.965 12.576C165.061 12.544 165.157 12.512 165.253 12.48C165.701 12.288 166.149 12.192 166.597 12.192C167.045 12.192 167.493 12.224 167.941 12.288C168.261 12.384 168.469 12.624 168.565 13.008C168.565 13.072 168.565 13.152 168.565 13.248C168.597 13.312 168.629 13.392 168.661 13.488C168.629 13.584 168.597 13.696 168.565 13.824C168.533 13.952 168.517 14.096 168.517 14.256C168.549 14.768 168.533 15.28 168.469 15.792C168.437 16.304 168.437 16.832 168.469 17.376C168.501 17.6 168.469 17.824 168.373 18.048C168.309 18.272 168.229 18.464 168.133 18.624L167.989 18.72C167.797 18.752 167.621 18.752 167.461 18.72C167.333 18.656 167.189 18.624 167.029 18.624C166.837 18.624 166.677 18.672 166.549 18.768C166.421 18.864 166.277 18.944 166.117 19.008C165.893 19.04 165.653 19.056 165.397 19.056C165.173 19.056 164.933 19.04 164.677 19.008C164.549 18.944 164.405 18.944 164.245 19.008C164.117 19.072 163.989 19.136 163.861 19.2C163.573 19.168 163.285 19.136 162.997 19.104C162.741 19.04 162.485 18.944 162.229 18.816C162.037 18.816 161.845 18.816 161.653 18.816C161.461 18.816 161.253 18.832 161.029 18.864C160.613 18.896 160.181 18.896 159.733 18.864C159.381 18.8 159.061 18.896 158.773 19.152C158.709 19.184 158.645 19.28 158.581 19.44C158.517 19.568 158.501 19.68 158.533 19.776C158.661 20.032 158.725 20.304 158.725 20.592C158.757 20.88 158.773 21.152 158.773 21.408C158.805 21.504 158.837 21.584 158.869 21.648C158.901 21.712 158.933 21.776 158.965 21.84C158.933 21.904 158.885 21.968 158.821 22.032C158.789 22.096 158.757 22.16 158.725 22.224C158.597 22.544 158.677 22.736 158.965 22.8C159.349 22.896 159.733 22.992 160.117 23.088C160.533 23.184 160.949 23.264 161.365 23.328C161.461 23.296 161.573 23.264 161.701 23.232C161.829 23.2 161.941 23.184 162.037 23.184C162.485 23.184 162.933 23.152 163.381 23.088C163.861 22.992 164.325 22.944 164.773 22.944C164.869 22.944 164.981 22.944 165.109 22.944C165.237 22.912 165.365 22.912 165.493 22.944C165.749 23.04 166.021 23.104 166.309 23.136C166.597 23.168 166.885 23.184 167.173 23.184C167.365 23.184 167.541 23.2 167.701 23.232C167.893 23.232 168.085 23.248 168.277 23.28C168.533 23.344 168.661 23.472 168.661 23.664C168.629 23.824 168.565 24 168.469 24.192C168.405 24.352 168.341 24.496 168.277 24.624C168.245 24.848 168.277 25.024 168.373 25.152C168.469 25.28 168.533 25.408 168.565 25.536C168.533 25.856 168.485 26.16 168.421 26.448C168.389 26.736 168.293 26.992 168.133 27.216C168.133 27.408 168.181 27.552 168.277 27.648C168.373 27.744 168.437 27.856 168.469 27.984C168.405 28.048 168.341 28.144 168.277 28.272C168.245 28.368 168.197 28.48 168.133 28.608C168.197 28.864 168.245 29.136 168.277 29.424C168.341 29.712 168.277 29.984 168.085 30.24C167.989 30.272 167.877 30.32 167.749 30.384C167.653 30.48 167.541 30.512 167.413 30.48C167.093 30.416 166.773 30.416 166.453 30.48C166.165 30.544 165.877 30.592 165.589 30.624C165.365 30.656 165.157 30.72 164.965 30.816C164.773 30.912 164.581 30.992 164.389 31.056C164.069 31.12 163.749 31.168 163.429 31.2C163.109 31.232 162.773 31.28 162.421 31.344L161.749 31.2C161.461 31.232 161.125 31.28 160.741 31.344L159.445 31.056C159.317 30.96 159.189 30.848 159.061 30.72C158.965 30.624 158.837 30.544 158.677 30.48C158.645 30.448 158.581 30.432 158.485 30.432C158.421 30.464 158.389 30.496 158.389 30.528C158.389 30.848 158.213 31.056 157.861 31.152C157.701 31.088 157.525 31.04 157.333 31.008C157.141 30.976 156.965 30.944 156.805 30.912C156.645 30.88 156.469 30.864 156.277 30.864C156.085 30.896 155.909 30.912 155.749 30.912C155.365 30.912 154.981 30.864 154.597 30.768C154.245 30.672 153.877 30.464 153.493 30.144C153.461 30.048 153.413 29.952 153.349 29.856C153.285 29.76 153.221 29.648 153.157 29.52C153.029 29.456 152.901 29.376 152.773 29.28C152.677 29.184 152.565 29.104 152.437 29.04L151.909 28.752C151.781 28.56 151.717 28.384 151.717 28.224C151.717 28.032 151.701 27.856 151.669 27.696C151.637 27.536 151.605 27.376 151.573 27.216C151.573 27.024 151.557 26.832 151.525 26.64C151.589 26.256 151.621 25.872 151.621 25.488C151.653 25.104 151.653 24.704 151.621 24.288C151.589 23.936 151.589 23.584 151.621 23.232C151.685 22.848 151.781 22.48 151.909 22.128C151.877 22 151.829 21.888 151.765 21.792C151.733 21.696 151.717 21.584 151.717 21.456C151.717 21.296 151.749 21.136 151.813 20.976C151.877 20.816 151.877 20.656 151.813 20.496C151.813 20.432 151.829 20.384 151.861 20.352C151.925 20.32 151.973 20.288 152.005 20.256C152.101 20.032 152.069 19.904 151.909 19.872C151.589 19.776 151.429 19.616 151.429 19.392C151.493 19.2 151.509 19.008 151.477 18.816C151.445 18.624 151.429 18.416 151.429 18.192C151.429 18.032 151.445 17.872 151.477 17.712C151.509 17.552 151.493 17.392 151.429 17.232C151.429 17.2 151.413 17.152 151.381 17.088C151.381 17.024 151.397 16.976 151.429 16.944C151.589 16.592 151.637 16.256 151.573 15.936C151.541 15.616 151.477 15.296 151.381 14.976C151.509 14.688 151.589 14.416 151.621 14.16C151.653 13.872 151.669 13.584 151.669 13.296V12C151.701 11.904 151.717 11.808 151.717 11.712C151.717 11.584 151.733 11.488 151.765 11.424C152.021 10.72 152.005 9.98402 151.717 9.21602C151.685 9.15202 151.669 9.05602 151.669 8.92802C151.733 8.73602 151.797 8.56002 151.861 8.40002C151.957 8.20802 152.021 8.01602 152.053 7.82402C152.117 7.56802 152.181 7.29602 152.245 7.00802C152.341 6.72002 152.405 6.44802 152.437 6.19202V5.85602C152.405 5.69602 152.389 5.53602 152.389 5.37602C152.421 5.18402 152.421 5.00802 152.389 4.84802C152.357 4.68801 152.341 4.52801 152.341 4.36801C152.373 4.20801 152.389 4.06401 152.389 3.93601C152.389 3.80802 152.373 3.71202 152.341 3.64802C152.341 3.55201 152.325 3.45601 152.293 3.36002C152.357 3.13601 152.485 2.96001 152.677 2.83201C152.869 2.70402 152.981 2.54402 153.013 2.35201C153.397 2.09602 153.781 1.93602 154.165 1.87201C154.581 1.77601 154.965 1.63201 155.317 1.44001C155.669 1.24802 156.037 1.13602 156.421 1.10402C156.805 1.07201 157.173 0.992015 157.525 0.864017C157.749 0.928016 157.957 0.992015 158.149 1.05601C158.373 1.12002 158.597 1.18402 158.821 1.24801C158.949 1.24801 159.077 1.24801 159.205 1.24801C159.365 1.21601 159.509 1.18402 159.637 1.15202C159.861 1.18402 160.069 1.23201 160.261 1.29601C160.453 1.36001 160.661 1.37602 160.885 1.34402C161.237 1.24802 161.573 1.24802 161.893 1.34402C162.053 1.34402 162.197 1.36002 162.325 1.39202C162.453 1.39202 162.581 1.40802 162.709 1.44001C163.189 1.08802 163.701 0.992016 164.245 1.15202C164.501 1.24801 164.757 1.28001 165.013 1.24801C165.269 1.21601 165.525 1.24802 165.781 1.34402C166.037 1.40802 166.277 1.44001 166.501 1.44001C166.757 1.40802 166.997 1.39202 167.221 1.39202C167.509 1.32801 167.797 1.32801 168.085 1.39202C168.341 1.45601 168.613 1.50401 168.901 1.53602C169.221 1.56802 169.509 1.58402 169.765 1.58402C169.925 1.58402 170.149 1.69602 170.437 1.92001C170.885 3.68001 170.965 5.40801 170.677 7.10401ZM200.021 9.07202C199.989 9.45602 199.989 9.84002 200.021 10.224C200.053 10.576 200.037 10.928 199.973 11.28C199.877 11.696 199.813 12.112 199.781 12.528C199.749 12.944 199.717 13.36 199.685 13.776C199.557 14 199.445 14.24 199.349 14.496C199.285 14.72 199.189 14.928 199.061 15.12C198.933 15.312 198.805 15.504 198.677 15.696C198.549 15.856 198.405 16.048 198.245 16.272C198.181 16.336 198.149 16.448 198.149 16.608C197.861 16.992 197.541 17.344 197.189 17.664C196.869 17.952 196.501 18.192 196.085 18.384C195.861 18.768 195.637 19.072 195.413 19.296C195.349 19.392 195.237 19.472 195.077 19.536C194.661 19.728 194.197 19.872 193.685 19.968C193.045 20.128 192.597 20.464 192.341 20.976V21.84C192.373 21.968 192.469 22.048 192.629 22.08C192.821 22.112 192.981 22.208 193.109 22.368C193.109 22.4 193.141 22.432 193.205 22.464C193.269 22.496 193.301 22.544 193.301 22.608C193.429 23.152 193.749 23.504 194.261 23.664C194.453 23.92 194.629 24.176 194.789 24.432C194.981 24.656 195.157 24.88 195.317 25.104C195.477 25.2 195.621 25.296 195.749 25.392C195.909 25.456 196.069 25.536 196.229 25.632C196.293 25.76 196.373 25.92 196.469 26.112C196.597 26.272 196.709 26.432 196.805 26.592C196.933 26.72 197.061 26.832 197.189 26.928C197.317 26.992 197.397 27.056 197.429 27.12C197.525 27.536 197.509 27.808 197.381 27.936C196.997 28.384 196.741 28.8 196.613 29.184C196.549 29.28 196.485 29.36 196.421 29.424C196.357 29.456 196.293 29.504 196.229 29.568C196.005 29.696 195.765 29.776 195.509 29.808C195.253 29.84 195.045 29.936 194.885 30.096C194.725 30.224 194.549 30.288 194.357 30.288C194.165 30.32 193.989 30.4 193.829 30.528C193.573 30.72 193.333 30.928 193.109 31.152C192.917 31.408 192.661 31.616 192.341 31.776C192.213 31.744 192.053 31.728 191.861 31.728C191.669 31.728 191.493 31.728 191.333 31.728L190.373 31.056C190.245 30.928 190.181 30.848 190.181 30.816C190.117 30.656 190.053 30.496 189.989 30.336C189.925 30.208 189.861 30.08 189.797 29.952C189.765 29.824 189.685 29.712 189.557 29.616C189.429 29.488 189.333 29.36 189.269 29.232V28.848C189.269 28.592 189.157 28.464 188.933 28.464C188.837 28.432 188.757 28.416 188.693 28.416C188.629 28.416 188.565 28.416 188.501 28.416C188.021 28.064 187.573 27.632 187.157 27.12C186.837 26.8 186.517 26.56 186.197 26.4C185.909 26.208 185.637 25.968 185.381 25.68C185.125 25.392 184.869 25.104 184.613 24.816C184.453 24.624 184.293 24.432 184.133 24.24C183.973 24.016 183.797 23.84 183.605 23.712C183.317 23.68 183.029 23.68 182.741 23.712C182.453 23.744 182.197 23.824 181.973 23.952C181.909 23.952 181.829 24.032 181.733 24.192C181.701 24.416 181.669 24.64 181.637 24.864C181.605 25.056 181.573 25.264 181.541 25.488C181.669 26.096 181.685 26.72 181.589 27.36C181.493 27.712 181.429 28.064 181.397 28.416C181.397 28.768 181.381 29.12 181.349 29.472C181.349 29.6 181.349 29.744 181.349 29.904C181.349 30.064 181.317 30.208 181.253 30.336C181.189 30.624 181.013 30.816 180.725 30.912H180.533C180.405 30.88 180.277 30.848 180.149 30.816C180.053 30.816 179.925 30.8 179.765 30.768C179.285 30.896 178.789 30.912 178.277 30.816C177.765 30.72 177.253 30.64 176.741 30.576C176.229 30.512 175.733 30.432 175.253 30.336C175.189 30.336 175.125 30.32 175.061 30.288C175.029 30.288 174.981 30.272 174.917 30.24C174.789 30.112 174.725 30 174.725 29.904C174.725 29.616 174.709 29.328 174.677 29.04C174.645 28.72 174.597 28.4 174.533 28.08C174.373 27.504 174.405 27.008 174.629 26.592C174.597 26.304 174.565 26.016 174.533 25.728C174.501 25.44 174.501 25.168 174.533 24.912C174.597 24.784 174.597 24.624 174.533 24.432C174.501 24.24 174.421 24.176 174.293 24.24C174.261 24.272 174.213 24.288 174.149 24.288C174.085 24.256 174.053 24.224 174.053 24.192C174.021 24.128 173.989 24.064 173.957 24C173.925 23.904 173.893 23.84 173.861 23.808C173.861 23.648 173.861 23.472 173.861 23.28C173.861 23.088 173.845 22.912 173.813 22.752C173.813 22.592 173.813 22.432 173.813 22.272C173.813 22.112 173.781 21.968 173.717 21.84C173.621 21.52 173.573 21.184 173.573 20.832C173.573 20.48 173.573 20.144 173.573 19.824C173.541 19.696 173.509 19.6 173.477 19.536C173.445 19.44 173.397 19.344 173.333 19.248C173.397 19.024 173.445 18.816 173.477 18.624C173.541 18.4 173.493 18.176 173.333 17.952C173.397 17.696 173.413 17.44 173.381 17.184C173.349 16.896 173.413 16.608 173.573 16.32C173.637 16.16 173.653 16 173.621 15.84C173.589 15.68 173.557 15.488 173.525 15.264C173.589 15.008 173.669 14.768 173.765 14.544C173.861 14.288 173.941 14 174.005 13.68C173.973 13.52 173.925 13.248 173.861 12.864C173.797 12.704 173.749 12.56 173.717 12.432C173.685 12.304 173.653 12.176 173.621 12.048C173.589 11.888 173.605 11.744 173.669 11.616C173.765 11.456 173.781 11.296 173.717 11.136C173.685 10.912 173.669 10.768 173.669 10.704C173.701 10.64 173.781 10.512 173.909 10.32C173.877 10.256 173.861 10.208 173.861 10.176C173.861 10.112 173.845 10.064 173.813 10.032C173.525 9.64802 173.461 9.16802 173.621 8.59202C173.685 8.40002 173.749 8.20802 173.813 8.01602C173.909 7.82402 173.973 7.64802 174.005 7.48802C173.973 7.36002 173.941 7.23202 173.909 7.10401C173.909 6.97602 173.893 6.84802 173.861 6.72002L174.197 5.56802C174.133 5.34402 174.085 5.12002 174.053 4.89602C174.021 4.67202 173.973 4.44802 173.909 4.22402C173.909 3.93602 174.037 3.63202 174.293 3.31202C174.421 3.15202 174.549 3.08802 174.677 3.12002C174.837 3.15202 175.029 3.15202 175.253 3.12002C175.477 3.05602 175.701 2.97602 175.925 2.88002C176.181 2.78402 176.453 2.72002 176.741 2.68802C177.029 2.65602 177.301 2.52802 177.557 2.30402C177.813 2.14402 178.069 2.01602 178.325 1.92001C178.581 1.79201 178.837 1.69601 179.093 1.63202C179.605 1.72802 179.925 1.77602 180.053 1.77602C180.213 1.74401 180.469 1.61601 180.821 1.39202H181.685C181.845 1.36002 182.005 1.32802 182.165 1.29601C182.325 1.23201 182.501 1.18402 182.693 1.15202C182.757 1.08801 182.853 1.00801 182.981 0.912016C183.141 0.816015 183.285 0.736015 183.413 0.672016C183.605 0.640015 183.813 0.608014 184.037 0.576015C184.261 0.512015 184.485 0.464016 184.709 0.432016C184.805 0.464016 184.885 0.512015 184.949 0.576015C185.045 0.608014 185.141 0.656014 185.237 0.720016C185.429 0.816016 185.589 0.928016 185.717 1.05601C185.845 1.12002 185.957 1.15202 186.053 1.15202C186.373 1.18402 186.677 1.21601 186.965 1.24801C187.253 1.24801 187.557 1.23201 187.877 1.20002C187.973 1.16802 188.085 1.15202 188.213 1.15202C188.373 1.15202 188.517 1.15202 188.645 1.15202C188.805 1.15202 188.981 1.16802 189.173 1.20002C189.365 1.20002 189.541 1.21601 189.701 1.24801C189.893 1.24801 190.037 1.31201 190.133 1.44001C190.261 1.56802 190.373 1.63202 190.469 1.63202C190.917 1.76002 191.333 1.82402 191.717 1.82402C192.101 1.82402 192.485 1.80802 192.869 1.77602C193.029 1.84002 193.189 1.92002 193.349 2.01602C193.541 2.08002 193.717 2.14402 193.877 2.20802C194.005 2.14402 194.101 2.09601 194.165 2.06402C194.261 2.00002 194.357 1.95202 194.453 1.92001C194.709 1.85602 194.901 1.87202 195.029 1.96802C195.125 2.03202 195.205 2.09601 195.269 2.16001C195.365 2.22402 195.461 2.28802 195.557 2.35201C195.621 2.44802 195.685 2.54402 195.749 2.64002C195.813 2.73602 195.909 2.81602 196.037 2.88002H196.709C196.837 2.91202 196.981 3.04002 197.141 3.26401C197.333 3.48802 197.509 3.71202 197.669 3.93601C197.861 4.16002 198.069 4.40002 198.293 4.65602C198.517 4.88002 198.709 5.13601 198.869 5.42402C199.029 5.68002 199.221 5.93602 199.445 6.19202C199.541 6.25602 199.605 6.35202 199.637 6.48002C199.701 6.60802 199.749 6.73602 199.781 6.86402C199.781 7.24801 199.781 7.63202 199.781 8.01602C199.813 8.36802 199.893 8.72002 200.021 9.07202ZM176.405 3.12002V3.07202H176.309L176.405 3.12002ZM192.965 11.712C192.965 11.712 192.949 11.696 192.917 11.664C192.885 11.632 192.869 11.6 192.869 11.568C192.869 11.28 192.821 11.008 192.725 10.752C192.629 10.464 192.453 10.224 192.197 10.032C192.069 9.96802 191.973 9.88802 191.909 9.79202C191.845 9.66402 191.765 9.55202 191.669 9.45602C191.445 9.16802 191.189 8.92802 190.901 8.73602C190.869 8.67202 190.805 8.64002 190.709 8.64002C190.613 8.60802 190.533 8.57602 190.469 8.54401C190.309 8.64002 190.037 8.73602 189.653 8.83202C189.397 8.67202 189.125 8.59202 188.837 8.59202C188.549 8.59202 188.245 8.62402 187.925 8.68802C187.605 8.68802 187.269 8.68802 186.917 8.68802C186.597 8.65602 186.277 8.68802 185.957 8.78402C185.605 8.75202 185.253 8.75202 184.901 8.78402C184.549 8.81602 184.197 8.84802 183.845 8.88001C183.557 8.88001 183.349 8.89602 183.221 8.92802C182.997 9.05602 182.773 9.12002 182.549 9.12002C182.357 9.08802 182.149 9.10402 181.925 9.16802C181.797 9.29602 181.717 9.45602 181.685 9.64802C181.653 9.84002 181.605 10.016 181.541 10.176C181.733 10.912 181.701 11.648 181.445 12.384C181.605 12.608 181.717 12.832 181.781 13.056C181.877 13.248 181.877 13.472 181.781 13.728C181.781 13.76 181.781 13.792 181.781 13.824C181.813 13.856 181.829 13.888 181.829 13.92C181.893 14.112 181.925 14.304 181.925 14.496C181.925 14.688 181.893 14.88 181.829 15.072C181.765 15.104 181.685 15.152 181.589 15.216C181.525 15.248 181.461 15.296 181.397 15.36C181.557 15.52 181.749 15.6 181.973 15.6C182.069 15.536 182.181 15.488 182.309 15.456C182.437 15.392 182.565 15.312 182.693 15.216C183.237 15.376 183.781 15.44 184.325 15.408C184.901 15.376 185.445 15.472 185.957 15.696H186.293C186.421 15.696 186.565 15.68 186.725 15.648C186.885 15.616 187.029 15.6 187.157 15.6C187.285 15.504 187.461 15.424 187.685 15.36C188.389 15.168 189.013 14.848 189.557 14.4C189.781 14.24 190.005 14.144 190.229 14.112C190.453 14.048 190.677 14 190.901 13.968C190.997 13.968 191.093 13.968 191.189 13.968C191.317 13.968 191.445 13.952 191.573 13.92C191.669 13.664 191.829 13.456 192.053 13.296C192.309 13.104 192.517 12.88 192.677 12.624C192.549 12.464 192.549 12.32 192.677 12.192C192.837 12.064 192.933 11.904 192.965 11.712Z" fill="white"/>
</svg>
