<svg width="38" height="23" viewBox="0 0 38 23" fill="none" xmlns="http://www.w3.org/2000/svg">
<mask id="path-1-outside-1_1593_6521" maskUnits="userSpaceOnUse" x="-0.399902" y="-0.803711" width="38" height="24" fill="black">
<rect fill="white" x="-0.399902" y="-0.803711" width="38" height="24"/>
<path d="M9.59345 21.8593C8.40345 21.8593 7.41745 21.5703 6.63545 20.9923C5.88745 20.3803 5.36045 19.5303 5.05445 18.4423C4.74845 17.3543 4.71445 16.0623 4.95245 14.5663C5.15645 13.3083 5.53045 12.0163 6.07445 10.6903C6.65245 9.36429 7.31545 8.07229 8.06345 6.81429C8.36945 6.30429 8.50545 5.94729 8.47145 5.74329C8.47145 5.50529 8.28445 5.38629 7.91045 5.38629H5.46245C4.64645 5.38629 3.98345 5.47129 3.47345 5.64129C2.99745 5.77729 2.60645 6.01529 2.30045 6.35529C2.02845 6.66129 1.80745 7.06929 1.63745 7.57929C1.56945 7.71529 1.43345 7.76629 1.22945 7.73229C1.02545 7.69829 0.957453 7.59629 1.02545 7.42629C1.53545 5.96429 1.99445 4.80829 2.40245 3.95829C2.84445 3.07429 3.37145 2.44529 3.98345 2.07129C4.59545 1.66329 5.39445 1.45929 6.38045 1.45929H11.1235C11.3955 1.45929 11.5655 1.49329 11.6335 1.56129C11.7015 1.62929 11.6675 1.79929 11.5315 2.07129C10.8855 3.60129 10.2395 5.26729 9.59345 7.06929C8.98145 8.83729 8.59045 10.3333 8.42045 11.5573C8.11445 13.5293 8.31845 15.0933 9.03245 16.2493C9.78045 17.3713 10.8175 17.9323 12.1435 17.9323C12.9595 17.9323 13.7585 17.6263 14.5405 17.0143C15.3225 16.4023 16.0535 15.6203 16.7335 14.6683C17.4135 13.6823 17.9745 12.6453 18.4165 11.5573C18.8925 10.4693 19.1985 9.44929 19.3345 8.49729C19.5045 7.47729 19.4365 6.76329 19.1305 6.35529C18.8585 5.94729 18.4505 5.74329 17.9065 5.74329C17.4985 5.74329 17.1245 5.87929 16.7845 6.15129C16.4445 6.42329 16.1895 6.98429 16.0195 7.83429C15.8155 8.78629 15.7815 9.84029 15.9175 10.9963C16.0875 12.1523 16.4275 13.2573 16.9375 14.3113C17.4475 15.3653 18.1275 16.2323 18.9775 16.9123C19.8615 17.5923 20.9155 17.9323 22.1395 17.9323C22.9895 17.9323 23.8055 17.6603 24.5875 17.1163C25.4035 16.5383 26.0835 15.7393 26.6275 14.7193C27.2055 13.6653 27.5625 12.4413 27.6985 11.0473C27.8005 10.2313 27.7835 9.55129 27.6475 9.00729C27.5455 8.46329 27.3585 7.97029 27.0865 7.52829C26.8145 7.05229 26.4575 6.57629 26.0155 6.10029C25.6755 5.72629 25.3695 5.33529 25.0975 4.92729C24.8255 4.51929 24.6895 4.04329 24.6895 3.49929C24.6895 2.61529 24.9615 1.98629 25.5055 1.61229C26.0835 1.20429 26.7465 1.00029 27.4945 1.00029C28.2085 1.00029 28.7865 1.18729 29.2285 1.56129C29.6705 1.90129 29.9765 2.54729 30.1465 3.49929C30.3165 4.41729 30.3165 5.72629 30.1465 7.42629C29.9765 9.36429 29.5515 11.2173 28.8715 12.9853C28.1915 14.7193 27.3585 16.2493 26.3725 17.5753C25.3865 18.9013 24.2985 19.9553 23.1085 20.7373C21.9525 21.4853 20.7965 21.8593 19.6405 21.8593C18.5525 21.8593 17.6175 21.5193 16.8355 20.8393C16.0875 20.1593 15.4925 19.2243 15.0505 18.0343C14.6425 16.8103 14.4045 15.3653 14.3365 13.6993C14.3025 11.9993 14.4555 10.1633 14.7955 8.19129C15.1015 6.55929 15.4585 5.23329 15.8665 4.21329C16.2745 3.15929 16.7505 2.39429 17.2945 1.91829C17.8725 1.44229 18.5015 1.20429 19.1815 1.20429C20.0995 1.20429 20.7115 1.61229 21.0175 2.42829C21.3575 3.24429 21.3915 4.50229 21.1195 6.20229C20.8475 8.14029 20.3375 10.0443 19.5895 11.9143C18.8415 13.7503 17.9235 15.4333 16.8355 16.9633C15.7815 18.4593 14.6255 19.6493 13.3675 20.5333C12.1435 21.4173 10.8855 21.8593 9.59345 21.8593ZM34.0009 21.6283C33.2649 21.6283 32.6569 21.4043 32.1769 20.9563C31.7289 20.5083 31.5049 19.9003 31.5049 19.1323C31.5049 18.3963 31.7289 17.8203 32.1769 17.4043C32.6249 16.9563 33.2329 16.7323 34.0009 16.7323C34.7689 16.7323 35.3609 16.9563 35.7769 17.4043C36.2249 17.8203 36.4489 18.3963 36.4489 19.1323C36.4489 20.7963 35.6329 21.6283 34.0009 21.6283Z"/>
</mask>
<g clip-path="url(#paint0_diamond_1593_6521_clip_path)" data-figma-skip-parse="true"><g transform="matrix(0.0271209 0.03875 -0.00271914 0.138154 8.32645 -22.3593)"><rect x="0" y="0" width="1235.34" height="517.128" fill="url(#paint0_diamond_1593_6521)" opacity="1" shape-rendering="crispEdges"/><rect x="0" y="0" width="1235.34" height="517.128" transform="scale(1 -1)" fill="url(#paint0_diamond_1593_6521)" opacity="1" shape-rendering="crispEdges"/><rect x="0" y="0" width="1235.34" height="517.128" transform="scale(-1 1)" fill="url(#paint0_diamond_1593_6521)" opacity="1" shape-rendering="crispEdges"/><rect x="0" y="0" width="1235.34" height="517.128" transform="scale(-1)" fill="url(#paint0_diamond_1593_6521)" opacity="1" shape-rendering="crispEdges"/></g></g><path d="M9.59345 21.8593C8.40345 21.8593 7.41745 21.5703 6.63545 20.9923C5.88745 20.3803 5.36045 19.5303 5.05445 18.4423C4.74845 17.3543 4.71445 16.0623 4.95245 14.5663C5.15645 13.3083 5.53045 12.0163 6.07445 10.6903C6.65245 9.36429 7.31545 8.07229 8.06345 6.81429C8.36945 6.30429 8.50545 5.94729 8.47145 5.74329C8.47145 5.50529 8.28445 5.38629 7.91045 5.38629H5.46245C4.64645 5.38629 3.98345 5.47129 3.47345 5.64129C2.99745 5.77729 2.60645 6.01529 2.30045 6.35529C2.02845 6.66129 1.80745 7.06929 1.63745 7.57929C1.56945 7.71529 1.43345 7.76629 1.22945 7.73229C1.02545 7.69829 0.957453 7.59629 1.02545 7.42629C1.53545 5.96429 1.99445 4.80829 2.40245 3.95829C2.84445 3.07429 3.37145 2.44529 3.98345 2.07129C4.59545 1.66329 5.39445 1.45929 6.38045 1.45929H11.1235C11.3955 1.45929 11.5655 1.49329 11.6335 1.56129C11.7015 1.62929 11.6675 1.79929 11.5315 2.07129C10.8855 3.60129 10.2395 5.26729 9.59345 7.06929C8.98145 8.83729 8.59045 10.3333 8.42045 11.5573C8.11445 13.5293 8.31845 15.0933 9.03245 16.2493C9.78045 17.3713 10.8175 17.9323 12.1435 17.9323C12.9595 17.9323 13.7585 17.6263 14.5405 17.0143C15.3225 16.4023 16.0535 15.6203 16.7335 14.6683C17.4135 13.6823 17.9745 12.6453 18.4165 11.5573C18.8925 10.4693 19.1985 9.44929 19.3345 8.49729C19.5045 7.47729 19.4365 6.76329 19.1305 6.35529C18.8585 5.94729 18.4505 5.74329 17.9065 5.74329C17.4985 5.74329 17.1245 5.87929 16.7845 6.15129C16.4445 6.42329 16.1895 6.98429 16.0195 7.83429C15.8155 8.78629 15.7815 9.84029 15.9175 10.9963C16.0875 12.1523 16.4275 13.2573 16.9375 14.3113C17.4475 15.3653 18.1275 16.2323 18.9775 16.9123C19.8615 17.5923 20.9155 17.9323 22.1395 17.9323C22.9895 17.9323 23.8055 17.6603 24.5875 17.1163C25.4035 16.5383 26.0835 15.7393 26.6275 14.7193C27.2055 13.6653 27.5625 12.4413 27.6985 11.0473C27.8005 10.2313 27.7835 9.55129 27.6475 9.00729C27.5455 8.46329 27.3585 7.97029 27.0865 7.52829C26.8145 7.05229 26.4575 6.57629 26.0155 6.10029C25.6755 5.72629 25.3695 5.33529 25.0975 4.92729C24.8255 4.51929 24.6895 4.04329 24.6895 3.49929C24.6895 2.61529 24.9615 1.98629 25.5055 1.61229C26.0835 1.20429 26.7465 1.00029 27.4945 1.00029C28.2085 1.00029 28.7865 1.18729 29.2285 1.56129C29.6705 1.90129 29.9765 2.54729 30.1465 3.49929C30.3165 4.41729 30.3165 5.72629 30.1465 7.42629C29.9765 9.36429 29.5515 11.2173 28.8715 12.9853C28.1915 14.7193 27.3585 16.2493 26.3725 17.5753C25.3865 18.9013 24.2985 19.9553 23.1085 20.7373C21.9525 21.4853 20.7965 21.8593 19.6405 21.8593C18.5525 21.8593 17.6175 21.5193 16.8355 20.8393C16.0875 20.1593 15.4925 19.2243 15.0505 18.0343C14.6425 16.8103 14.4045 15.3653 14.3365 13.6993C14.3025 11.9993 14.4555 10.1633 14.7955 8.19129C15.1015 6.55929 15.4585 5.23329 15.8665 4.21329C16.2745 3.15929 16.7505 2.39429 17.2945 1.91829C17.8725 1.44229 18.5015 1.20429 19.1815 1.20429C20.0995 1.20429 20.7115 1.61229 21.0175 2.42829C21.3575 3.24429 21.3915 4.50229 21.1195 6.20229C20.8475 8.14029 20.3375 10.0443 19.5895 11.9143C18.8415 13.7503 17.9235 15.4333 16.8355 16.9633C15.7815 18.4593 14.6255 19.6493 13.3675 20.5333C12.1435 21.4173 10.8855 21.8593 9.59345 21.8593ZM34.0009 21.6283C33.2649 21.6283 32.6569 21.4043 32.1769 20.9563C31.7289 20.5083 31.5049 19.9003 31.5049 19.1323C31.5049 18.3963 31.7289 17.8203 32.1769 17.4043C32.6249 16.9563 33.2329 16.7323 34.0009 16.7323C34.7689 16.7323 35.3609 16.9563 35.7769 17.4043C36.2249 17.8203 36.4489 18.3963 36.4489 19.1323C36.4489 20.7963 35.6329 21.6283 34.0009 21.6283Z" data-figma-gradient-fill="{&#34;type&#34;:&#34;GRADIENT_DIAMOND&#34;,&#34;stops&#34;:[{&#34;color&#34;:{&#34;r&#34;:0.94901961088180542,&#34;g&#34;:0.77647060155868530,&#34;b&#34;:1.0,&#34;a&#34;:1.0},&#34;position&#34;:0.0},{&#34;color&#34;:{&#34;r&#34;:0.72156864404678345,&#34;g&#34;:0.65490198135375977,&#34;b&#34;:0.95686274766921997,&#34;a&#34;:1.0},&#34;position&#34;:0.55000001192092896},{&#34;color&#34;:{&#34;r&#34;:0.48235294222831726,&#34;g&#34;:0.38039216399192810,&#34;b&#34;:0.84705883264541626,&#34;a&#34;:1.0},&#34;position&#34;:1.0}],&#34;stopsVar&#34;:[{&#34;color&#34;:{&#34;r&#34;:0.94901961088180542,&#34;g&#34;:0.77647060155868530,&#34;b&#34;:1.0,&#34;a&#34;:1.0},&#34;position&#34;:0.0},{&#34;color&#34;:{&#34;r&#34;:0.72156864404678345,&#34;g&#34;:0.65490198135375977,&#34;b&#34;:0.95686274766921997,&#34;a&#34;:1.0},&#34;position&#34;:0.55000001192092896},{&#34;color&#34;:{&#34;r&#34;:0.48235294222831726,&#34;g&#34;:0.38039216399192810,&#34;b&#34;:0.84705883264541626,&#34;a&#34;:1.0},&#34;position&#34;:1.0}],&#34;transform&#34;:{&#34;m00&#34;:54.241893768310547,&#34;m01&#34;:-5.4382867813110352,&#34;m02&#34;:-16.075353622436523,&#34;m10&#34;:77.499992370605469,&#34;m11&#34;:276.30831909179688,&#34;m12&#34;:-199.26341247558594},&#34;opacity&#34;:1.0,&#34;blendMode&#34;:&#34;NORMAL&#34;,&#34;visible&#34;:true}"/>
<path d="M6.63545 20.9923L6.00222 21.7662L6.02127 21.7818L6.04106 21.7965L6.63545 20.9923ZM5.05445 18.4423L4.0918 18.713V18.713L5.05445 18.4423ZM4.95245 14.5663L3.96534 14.4062L3.96487 14.4092L4.95245 14.5663ZM6.07445 10.6903L5.15776 10.2907L5.15341 10.3007L5.14928 10.3107L6.07445 10.6903ZM8.06345 6.81429L7.20595 6.29979L7.20392 6.30322L8.06345 6.81429ZM8.47145 5.74329H7.47145V5.82605L7.48506 5.90769L8.47145 5.74329ZM3.47345 5.64129L3.74817 6.60281L3.76907 6.59684L3.78968 6.58997L3.47345 5.64129ZM2.30045 6.35529L1.55714 5.68631L1.55304 5.69093L2.30045 6.35529ZM1.63745 7.57929L2.53188 8.0265L2.56366 7.96294L2.58614 7.89552L1.63745 7.57929ZM1.22945 7.73229L1.06505 8.71868H1.06506L1.22945 7.73229ZM1.02545 7.42629L1.95393 7.79768L1.96226 7.77685L1.96965 7.75566L1.02545 7.42629ZM2.40245 3.95829L1.50803 3.51107L1.50442 3.51829L1.50093 3.52556L2.40245 3.95829ZM3.98345 2.07129L4.5049 2.92457L4.52174 2.91428L4.53815 2.90334L3.98345 2.07129ZM11.6335 1.56129L12.3406 0.854183L12.3406 0.854181L11.6335 1.56129ZM11.5315 2.07129L10.637 1.62407L10.6227 1.65277L10.6102 1.68232L11.5315 2.07129ZM9.59345 7.06929L8.65206 6.73181L8.64847 6.74218L9.59345 7.06929ZM8.42045 11.5573L9.40863 11.7106L9.40985 11.7028L9.41094 11.6949L8.42045 11.5573ZM9.03245 16.2493L8.18165 16.7748L8.19077 16.7895L8.2004 16.804L9.03245 16.2493ZM16.7335 14.6683L17.5472 15.2495L17.552 15.2428L17.5567 15.236L16.7335 14.6683ZM18.4165 11.5573L17.5003 11.1565L17.495 11.1686L17.49 11.1809L18.4165 11.5573ZM19.3345 8.49729L18.3481 8.33289L18.3461 8.34436L18.3445 8.35587L19.3345 8.49729ZM19.1305 6.35529L18.2984 6.90999L18.3138 6.93308L18.3305 6.95529L19.1305 6.35529ZM16.7845 6.15129L16.1598 5.37042V5.37042L16.7845 6.15129ZM16.0195 7.83429L16.9973 8.04384L17 8.0304L16.0195 7.83429ZM15.9175 10.9963L14.9243 11.1131L14.926 11.1275L14.9281 11.1418L15.9175 10.9963ZM16.9375 14.3113L16.0373 14.7468H16.0373L16.9375 14.3113ZM18.9775 16.9123L18.3528 17.6932L18.3602 17.6991L18.3677 17.7049L18.9775 16.9123ZM24.5875 17.1163L25.1585 17.9372L25.1655 17.9323L24.5875 17.1163ZM26.6275 14.7193L25.7506 14.2384L25.7451 14.2487L26.6275 14.7193ZM27.6985 11.0473L26.7062 10.9233L26.7045 10.9367L26.7032 10.9502L27.6985 11.0473ZM27.6475 9.00729L26.6646 9.19158L26.6701 9.22089L26.6773 9.24982L27.6475 9.00729ZM27.0865 7.52829L26.2182 8.02443L26.2263 8.03854L26.2348 8.05239L27.0865 7.52829ZM26.0155 6.10029L25.2755 6.773L25.2827 6.78074L26.0155 6.10029ZM25.0975 4.92729L24.2654 5.48199V5.48199L25.0975 4.92729ZM25.5055 1.61229L26.072 2.4364L26.0821 2.42926L25.5055 1.61229ZM29.2285 1.56129L28.5825 2.32467L28.6003 2.33971L28.6187 2.35391L29.2285 1.56129ZM30.1465 3.49929L29.162 3.67508L29.1632 3.68138L30.1465 3.49929ZM30.1465 7.42629L29.1513 7.32678L29.1503 7.33891L30.1465 7.42629ZM28.8715 12.9853L29.8024 13.3504L29.8048 13.3443L28.8715 12.9853ZM26.3725 17.5753L25.57 16.9786V16.9786L26.3725 17.5753ZM23.1085 20.7373L23.6517 21.5769L23.6576 21.573L23.1085 20.7373ZM16.8355 20.8393L16.1628 21.5792L16.1709 21.5867L16.1793 21.5939L16.8355 20.8393ZM15.0505 18.0343L14.1018 18.3505L14.1071 18.3666L14.113 18.3825L15.0505 18.0343ZM14.3365 13.6993L13.3367 13.7193L13.3369 13.7297L13.3373 13.7401L14.3365 13.6993ZM14.7955 8.19129L13.8126 8.007L13.8112 8.01418L13.81 8.02138L14.7955 8.19129ZM15.8665 4.21329L16.795 4.5847L16.799 4.57428L15.8665 4.21329ZM17.2945 1.91829L16.6587 1.14636L16.6472 1.15586L16.6359 1.16571L17.2945 1.91829ZM21.0175 2.42829L20.0811 2.77941L20.0874 2.79628L20.0944 2.8129L21.0175 2.42829ZM21.1195 6.20229L20.132 6.0443L20.1305 6.05379L20.1292 6.0633L21.1195 6.20229ZM19.5895 11.9143L20.5156 12.2916L20.5179 12.2857L19.5895 11.9143ZM16.8355 16.9633L16.0205 16.3838L16.018 16.3873L16.8355 16.9633ZM13.3675 20.5333L12.7925 19.715L12.782 19.7226L13.3675 20.5333ZM9.59345 21.8593V20.8593C8.56858 20.8593 7.80425 20.6127 7.22984 20.1881L6.63545 20.9923L6.04106 21.7965C7.03066 22.5279 8.23832 22.8593 9.59345 22.8593V21.8593ZM6.63545 20.9923L7.26869 20.2183C6.70513 19.7572 6.27722 19.0964 6.0171 18.1715L5.05445 18.4423L4.0918 18.713C4.44369 19.9642 5.06978 21.0033 6.00222 21.7662L6.63545 20.9923ZM5.05445 18.4423L6.0171 18.1715C5.76116 17.2615 5.71741 16.1228 5.94003 14.7234L4.95245 14.5663L3.96487 14.4092C3.7115 16.0018 3.73574 17.447 4.0918 18.713L5.05445 18.4423ZM4.95245 14.5663L5.93956 14.7264C6.12995 13.5523 6.48104 12.3339 6.99962 11.0698L6.07445 10.6903L5.14928 10.3107C4.57987 11.6987 4.18296 13.0643 3.96535 14.4062L4.95245 14.5663ZM6.07445 10.6903L6.99115 11.0899C7.55225 9.80265 8.1961 8.54786 8.92299 7.32536L8.06345 6.81429L7.20392 6.30322C6.4348 7.59672 5.75266 8.92593 5.15776 10.2907L6.07445 10.6903ZM8.06345 6.81429L8.92095 7.32878C9.08952 7.04783 9.23231 6.775 9.32944 6.52003C9.41521 6.29488 9.51955 5.94911 9.45785 5.57889L8.47145 5.74329L7.48506 5.90769C7.46893 5.81091 7.48058 5.74955 7.48121 5.74609C7.48242 5.7394 7.47946 5.75819 7.46047 5.80804C7.42159 5.91008 7.34339 6.07075 7.20596 6.29979L8.06345 6.81429ZM8.47145 5.74329H9.47145C9.47145 5.3126 9.27463 4.89059 8.86808 4.63188C8.53822 4.42197 8.17132 4.38629 7.91045 4.38629V5.38629V6.38629C8.02359 6.38629 7.93719 6.41011 7.79433 6.3192C7.70871 6.26472 7.61625 6.17653 7.55056 6.05111C7.48647 5.92875 7.47145 5.8162 7.47145 5.74329H8.47145ZM7.91045 5.38629V4.38629H5.46245V5.38629V6.38629H7.91045V5.38629ZM5.46245 5.38629V4.38629C4.58867 4.38629 3.80755 4.47583 3.15723 4.69261L3.47345 5.64129L3.78968 6.58997C4.15936 6.46674 4.70424 6.38629 5.46245 6.38629V5.38629ZM3.47345 5.64129L3.19873 4.67976C2.55761 4.86294 1.99911 5.19527 1.55716 5.68633L2.30045 6.35529L3.04375 7.02425C3.2138 6.83531 3.43729 6.69164 3.74817 6.60281L3.47345 5.64129ZM2.30045 6.35529L1.55304 5.69093C1.16766 6.12449 0.888834 6.66287 0.688769 7.26306L1.63745 7.57929L2.58614 7.89552C2.72607 7.47571 2.88925 7.19809 3.04786 7.01965L2.30045 6.35529ZM1.63745 7.57929L0.743025 7.13208C0.816083 6.98596 0.953071 6.85081 1.13333 6.78321C1.28503 6.72632 1.39194 6.74557 1.39385 6.7459L1.22945 7.73229L1.06506 8.71868C1.27097 8.753 1.54787 8.76376 1.83558 8.65587C2.15183 8.53727 2.39082 8.30862 2.53188 8.0265L1.63745 7.57929ZM1.22945 7.73229L1.39385 6.7459C1.40835 6.74831 1.46845 6.75925 1.54917 6.79961C1.6338 6.84193 1.75735 6.92535 1.8575 7.07559C2.08417 7.41558 1.97856 7.7361 1.95393 7.79768L1.02545 7.42629L0.096976 7.0549C0.00434232 7.28648 -0.101261 7.74299 0.193402 8.18499C0.458157 8.58212 0.868324 8.68589 1.06505 8.71868L1.22945 7.73229ZM1.02545 7.42629L1.96965 7.75566C2.47408 6.30964 2.91903 5.193 3.30398 4.39102L2.40245 3.95829L1.50093 3.52556C1.06988 4.42358 0.596825 5.61894 0.0812524 7.09692L1.02545 7.42629ZM2.40245 3.95829L3.29688 4.4055C3.68556 3.62815 4.10244 3.17052 4.5049 2.92457L3.98345 2.07129L3.462 1.21801C2.64046 1.72006 2.00335 2.52043 1.50803 3.51107L2.40245 3.95829ZM3.98345 2.07129L4.53815 2.90334C4.93858 2.63638 5.52611 2.45929 6.38045 2.45929V1.45929V0.459288C5.26279 0.459288 4.25232 0.690191 3.42875 1.23924L3.98345 2.07129ZM6.38045 1.45929V2.45929H11.1235V1.45929V0.459288H6.38045V1.45929ZM11.1235 1.45929V2.45929C11.2262 2.45929 11.264 2.46641 11.2588 2.46537C11.2547 2.46455 11.2205 2.45772 11.1694 2.43581C11.1203 2.41476 11.0246 2.36662 10.9263 2.26839L11.6335 1.56129L12.3406 0.854181C12.094 0.607639 11.7948 0.532948 11.6511 0.504208C11.4759 0.46917 11.2927 0.459288 11.1235 0.459288V1.45929ZM11.6335 1.56129L10.9263 2.26839C10.7556 2.09766 10.694 1.90292 10.6754 1.77283C10.6582 1.6526 10.6736 1.56749 10.6784 1.54367C10.6871 1.49979 10.6903 1.51745 10.637 1.62407L11.5315 2.07129L12.4259 2.5185C12.5086 2.35313 12.5968 2.14978 12.6395 1.93591C12.6708 1.77972 12.7499 1.26356 12.3406 0.854183L11.6335 1.56129ZM11.5315 2.07129L10.6102 1.68232C9.95605 3.23162 9.30342 4.91502 8.65211 6.73183L9.59345 7.06929L10.5348 7.40675C11.1755 5.61955 11.8149 3.97095 12.4527 2.46026L11.5315 2.07129ZM9.59345 7.06929L8.64847 6.74218C8.02483 8.54379 7.61223 10.1074 7.42996 11.4197L8.42045 11.5573L9.41094 11.6949C9.56867 10.5592 9.93807 9.13078 10.5384 7.3964L9.59345 7.06929ZM8.42045 11.5573L7.43228 11.4039C7.10643 13.5039 7.2952 15.3396 8.18165 16.7748L9.03245 16.2493L9.88325 15.7238C9.34171 14.847 9.12248 13.5547 9.40863 11.7106L8.42045 11.5573ZM9.03245 16.2493L8.2004 16.804C9.13008 18.1985 10.4763 18.9323 12.1435 18.9323V17.9323V16.9323C11.1586 16.9323 10.4308 16.5441 9.8645 15.6946L9.03245 16.2493ZM12.1435 17.9323V18.9323C13.2281 18.9323 14.2381 18.5207 15.1568 17.8018L14.5405 17.0143L13.9241 16.2268C13.2788 16.7318 12.6908 16.9323 12.1435 16.9323V17.9323ZM14.5405 17.0143L15.1568 17.8018C16.0261 17.1214 16.8212 16.2659 17.5472 15.2495L16.7335 14.6683L15.9197 14.0871C15.2857 14.9747 14.6188 15.6831 13.9241 16.2268L14.5405 17.0143ZM16.7335 14.6683L17.5567 15.236C18.2771 14.1914 18.873 13.0903 19.3429 11.9337L18.4165 11.5573L17.49 11.1809C17.0759 12.2002 16.5498 13.1732 15.9102 14.1006L16.7335 14.6683ZM18.4165 11.5573L19.3326 11.9581C19.8367 10.8059 20.1731 9.69816 20.3244 8.63871L19.3345 8.49729L18.3445 8.35587C18.2239 9.20042 17.9482 10.1326 17.5003 11.1565L18.4165 11.5573ZM19.3345 8.49729L20.3208 8.66169C20.4957 7.61243 20.5044 6.52052 19.9305 5.75529L19.1305 6.35529L18.3305 6.95529C18.3685 7.00606 18.5132 7.34214 18.3481 8.33289L19.3345 8.49729ZM19.1305 6.35529L19.9625 5.80059C19.4824 5.08038 18.7418 4.74329 17.9065 4.74329V5.74329V6.74329C18.1591 6.74329 18.2345 6.81419 18.2984 6.90999L19.1305 6.35529ZM17.9065 5.74329V4.74329C17.2555 4.74329 16.6643 4.96679 16.1598 5.37042L16.7845 6.15129L17.4091 6.93216C17.5846 6.79178 17.7414 6.74329 17.9065 6.74329V5.74329ZM16.7845 6.15129L16.1598 5.37042C15.5252 5.87808 15.2162 6.75169 15.0389 7.63817L16.0195 7.83429L17 8.0304C17.1627 7.21689 17.3637 6.9685 17.4091 6.93216L16.7845 6.15129ZM16.0195 7.83429L15.0417 7.62476C14.8107 8.70259 14.7779 9.8689 14.9243 11.1131L15.9175 10.9963L16.9106 10.8794C16.785 9.81167 16.8202 8.86999 16.9973 8.04382L16.0195 7.83429ZM15.9175 10.9963L14.9281 11.1418C15.1129 12.3987 15.4831 13.6015 16.0373 14.7468L16.9375 14.3113L17.8376 13.8757C17.3718 12.9131 17.062 11.9059 16.9068 10.8508L15.9175 10.9963ZM16.9375 14.3113L16.0373 14.7468C16.6072 15.9247 17.3777 16.9131 18.3528 17.6932L18.9775 16.9123L19.6021 16.1314C18.8772 15.5515 18.2877 14.8059 17.8376 13.8757L16.9375 14.3113ZM18.9775 16.9123L18.3677 17.7049C19.4438 18.5326 20.7177 18.9323 22.1395 18.9323V17.9323V16.9323C21.1132 16.9323 20.2791 16.6519 19.5872 16.1197L18.9775 16.9123ZM22.1395 17.9323V18.9323C23.2179 18.9323 24.23 18.5831 25.1585 17.9372L24.5875 17.1163L24.0164 16.2954C23.3809 16.7374 22.761 16.9323 22.1395 16.9323V17.9323ZM24.5875 17.1163L25.1655 17.9323C26.1268 17.2513 26.904 16.3257 27.5098 15.1899L26.6275 14.7193L25.7451 14.2487C25.2629 15.1529 24.6801 15.8252 24.0094 16.3003L24.5875 17.1163ZM26.6275 14.7193L27.5043 15.2001C28.1571 14.0096 28.5467 12.651 28.6937 11.1444L27.6985 11.0473L26.7032 10.9502C26.5782 12.2316 26.2538 13.321 25.7506 14.2385L26.6275 14.7193ZM27.6985 11.0473L28.6907 11.1713C28.8015 10.2848 28.7941 9.4706 28.6176 8.76475L27.6475 9.00729L26.6773 9.24982C26.7729 9.63198 26.7994 10.1777 26.7062 10.9233L27.6985 11.0473ZM27.6475 9.00729L28.6303 8.823C28.5073 8.16672 28.2785 7.55724 27.9381 7.00419L27.0865 7.52829L26.2348 8.05239C26.4385 8.38334 26.5836 8.75986 26.6646 9.19158L27.6475 9.00729ZM27.0865 7.52829L27.9547 7.03215C27.6385 6.47887 27.233 5.94191 26.7482 5.41984L26.0155 6.10029L25.2827 6.78074C25.6819 7.21067 25.9904 7.62571 26.2182 8.02443L27.0865 7.52829ZM26.0155 6.10029L26.7554 5.42762C26.448 5.08945 26.173 4.73776 25.9295 4.37259L25.0975 4.92729L24.2654 5.48199C24.566 5.93282 24.9029 6.36313 25.2755 6.77296L26.0155 6.10029ZM25.0975 4.92729L25.9295 4.37259C25.7788 4.14658 25.6895 3.8683 25.6895 3.49929H24.6895H23.6895C23.6895 4.21827 23.8721 4.89199 24.2654 5.48199L25.0975 4.92729ZM24.6895 3.49929H25.6895C25.6895 2.82175 25.8869 2.56358 26.072 2.43633L25.5055 1.61229L24.9389 0.788246C24.036 1.409 23.6895 2.40883 23.6895 3.49929H24.6895ZM25.5055 1.61229L26.0821 2.42926C26.4815 2.14738 26.9404 2.00029 27.4945 2.00029V1.00029V0.00028801C26.5525 0.00028801 25.6854 0.2612 24.9288 0.795322L25.5055 1.61229ZM27.4945 1.00029V2.00029C28.029 2.00029 28.3603 2.13668 28.5825 2.32467L29.2285 1.56129L29.8744 0.797903C29.2126 0.237898 28.3879 0.00028801 27.4945 0.00028801V1.00029ZM29.2285 1.56129L28.6187 2.35391C28.762 2.46409 29.0063 2.80324 29.162 3.67508L30.1465 3.49929L31.1309 3.3235C30.9466 2.29133 30.5789 1.33848 29.8382 0.768663L29.2285 1.56129ZM30.1465 3.49929L29.1632 3.68138C29.3072 4.4594 29.3184 5.65665 29.1514 7.32679L30.1465 7.42629L31.1415 7.52579C31.3145 5.79593 31.3257 4.37518 31.1297 3.3172L30.1465 3.49929ZM30.1465 7.42629L29.1503 7.33891C28.9882 9.18642 28.5837 10.9478 27.9381 12.6263L28.8715 12.9853L29.8048 13.3443C30.5192 11.4868 30.9647 9.54216 31.1426 7.51367L30.1465 7.42629ZM28.8715 12.9853L27.9405 12.6202C27.2888 14.2819 26.4969 15.7321 25.57 16.9786L26.3725 17.5753L27.1749 18.172C28.2201 16.7665 29.0941 15.1566 29.8024 13.3504L28.8715 12.9853ZM26.3725 17.5753L25.57 16.9786C24.6428 18.2255 23.6372 19.1932 22.5593 19.9016L23.1085 20.7373L23.6576 21.573C24.9597 20.7174 26.1301 19.5771 27.1749 18.172L26.3725 17.5753ZM23.1085 20.7373L22.5652 19.8977C21.5397 20.5613 20.5695 20.8593 19.6405 20.8593V21.8593V22.8593C21.0234 22.8593 22.3652 22.4093 23.6517 21.5769L23.1085 20.7373ZM19.6405 21.8593V20.8593C18.7805 20.8593 18.082 20.598 17.4916 20.0847L16.8355 20.8393L16.1793 21.5939C17.1529 22.4405 18.3244 22.8593 19.6405 22.8593V21.8593ZM16.8355 20.8393L17.5081 20.0993C16.9048 19.5509 16.3881 18.7637 15.9879 17.6861L15.0505 18.0343L14.113 18.3825C14.5968 19.6849 15.2701 20.7677 16.1628 21.5792L16.8355 20.8393ZM15.0505 18.0343L15.9991 17.7181C15.628 16.6046 15.4008 15.2566 15.3356 13.6585L14.3365 13.6993L13.3373 13.7401C13.4081 15.474 13.6569 17.016 14.1018 18.3505L15.0505 18.0343ZM14.3365 13.6993L15.3363 13.6793C15.3037 12.0529 15.4499 10.2812 15.7809 8.36119L14.7955 8.19129L13.81 8.02138C13.461 10.0454 13.3012 11.9457 13.3367 13.7193L14.3365 13.6993ZM14.7955 8.19129L15.7783 8.37558C16.0777 6.77865 16.42 5.52197 16.7949 4.58468L15.8665 4.21329L14.938 3.8419C14.4969 4.94461 14.1252 6.33993 13.8126 8.007L14.7955 8.19129ZM15.8665 4.21329L16.799 4.57428C17.1784 3.59426 17.5803 2.99693 17.953 2.67086L17.2945 1.91829L16.6359 1.16571C15.9206 1.79165 15.3705 2.72431 14.9339 3.85229L15.8665 4.21329ZM17.2945 1.91829L17.9302 2.69022C18.3485 2.34574 18.7573 2.20429 19.1815 2.20429V1.20429V0.204288C18.2456 0.204288 17.3965 0.538836 16.6587 1.14636L17.2945 1.91829ZM19.1815 1.20429V2.20429C19.4921 2.20429 19.6691 2.27223 19.7743 2.34234C19.8753 2.40971 19.9878 2.53048 20.0811 2.77941L21.0175 2.42829L21.9538 2.07716C21.7411 1.5101 21.3946 1.01887 20.8837 0.678238C20.3768 0.340345 19.7888 0.204288 19.1815 0.204288V1.20429ZM21.0175 2.42829L20.0944 2.8129C20.3223 3.35985 20.3978 4.38323 20.132 6.0443L21.1195 6.20229L22.1069 6.36028C22.3851 4.62134 22.3926 3.12873 21.9405 2.04367L21.0175 2.42829ZM21.1195 6.20229L20.1292 6.0633C19.8687 7.91933 19.38 9.74541 18.661 11.5429L19.5895 11.9143L20.5179 12.2857C21.2949 10.3432 21.8262 8.36125 22.1097 6.34128L21.1195 6.20229ZM19.5895 11.9143L18.6634 11.537C17.9429 13.3055 17.0613 14.9201 16.0205 16.3838L16.8355 16.9633L17.6504 17.5428C18.7856 15.9465 19.7401 14.1951 20.5155 12.2916L19.5895 11.9143ZM16.8355 16.9633L16.018 16.3873C15.018 17.8067 13.9403 18.9085 12.7925 19.7151L13.3675 20.5333L13.9424 21.3515C15.3106 20.3901 16.5449 19.1119 17.6529 17.5392L16.8355 16.9633ZM13.3675 20.5333L12.782 19.7226C11.6987 20.505 10.6414 20.8593 9.59345 20.8593V21.8593V22.8593C11.1295 22.8593 12.5882 22.3296 13.9529 21.344L13.3675 20.5333ZM32.1769 20.9563L31.4698 21.6634L31.4819 21.6756L31.4945 21.6873L32.1769 20.9563ZM32.1769 17.4043L32.8573 18.1371L32.8709 18.1245L32.884 18.1114L32.1769 17.4043ZM35.7769 17.4043L35.0441 18.0847L35.0693 18.1119L35.0964 18.1371L35.7769 17.4043ZM34.0009 21.6283V20.6283C33.485 20.6283 33.1311 20.4791 32.8592 20.2252L32.1769 20.9563L31.4945 21.6873C32.1826 22.3295 33.0447 22.6283 34.0009 22.6283V21.6283ZM32.1769 20.9563L32.884 20.2492C32.6621 20.0273 32.5049 19.6951 32.5049 19.1323H31.5049H30.5049C30.5049 20.1055 30.7957 20.9893 31.4698 21.6634L32.1769 20.9563ZM31.5049 19.1323H32.5049C32.5049 18.613 32.6541 18.3258 32.8573 18.1371L32.1769 17.4043L31.4964 16.6715C30.8037 17.3148 30.5049 18.1796 30.5049 19.1323H31.5049ZM32.1769 17.4043L32.884 18.1114C33.1059 17.8895 33.438 17.7323 34.0009 17.7323V16.7323V15.7323C33.0277 15.7323 32.1439 16.0231 31.4698 16.6972L32.1769 17.4043ZM34.0009 16.7323V17.7323C34.5668 17.7323 34.8635 17.8902 35.0441 18.0847L35.7769 17.4043L36.5097 16.7238C35.8583 16.0223 34.9709 15.7323 34.0009 15.7323V16.7323ZM35.7769 17.4043L35.0964 18.1371C35.2997 18.3258 35.4489 18.613 35.4489 19.1323H36.4489H37.4489C37.4489 18.1796 37.1501 17.3148 36.4573 16.6715L35.7769 17.4043ZM36.4489 19.1323H35.4489C35.4489 19.815 35.2815 20.1424 35.1229 20.3041C34.9678 20.4622 34.6577 20.6283 34.0009 20.6283V21.6283V22.6283C34.976 22.6283 35.8899 22.3784 36.5508 21.7045C37.2082 21.0342 37.4489 20.1136 37.4489 19.1323H36.4489Z" fill="url(#paint1_linear_1593_6521)" mask="url(#path-1-outside-1_1593_6521)"/>
<defs>
<clipPath id="paint0_diamond_1593_6521_clip_path"><path d="M9.59345 21.8593C8.40345 21.8593 7.41745 21.5703 6.63545 20.9923C5.88745 20.3803 5.36045 19.5303 5.05445 18.4423C4.74845 17.3543 4.71445 16.0623 4.95245 14.5663C5.15645 13.3083 5.53045 12.0163 6.07445 10.6903C6.65245 9.36429 7.31545 8.07229 8.06345 6.81429C8.36945 6.30429 8.50545 5.94729 8.47145 5.74329C8.47145 5.50529 8.28445 5.38629 7.91045 5.38629H5.46245C4.64645 5.38629 3.98345 5.47129 3.47345 5.64129C2.99745 5.77729 2.60645 6.01529 2.30045 6.35529C2.02845 6.66129 1.80745 7.06929 1.63745 7.57929C1.56945 7.71529 1.43345 7.76629 1.22945 7.73229C1.02545 7.69829 0.957453 7.59629 1.02545 7.42629C1.53545 5.96429 1.99445 4.80829 2.40245 3.95829C2.84445 3.07429 3.37145 2.44529 3.98345 2.07129C4.59545 1.66329 5.39445 1.45929 6.38045 1.45929H11.1235C11.3955 1.45929 11.5655 1.49329 11.6335 1.56129C11.7015 1.62929 11.6675 1.79929 11.5315 2.07129C10.8855 3.60129 10.2395 5.26729 9.59345 7.06929C8.98145 8.83729 8.59045 10.3333 8.42045 11.5573C8.11445 13.5293 8.31845 15.0933 9.03245 16.2493C9.78045 17.3713 10.8175 17.9323 12.1435 17.9323C12.9595 17.9323 13.7585 17.6263 14.5405 17.0143C15.3225 16.4023 16.0535 15.6203 16.7335 14.6683C17.4135 13.6823 17.9745 12.6453 18.4165 11.5573C18.8925 10.4693 19.1985 9.44929 19.3345 8.49729C19.5045 7.47729 19.4365 6.76329 19.1305 6.35529C18.8585 5.94729 18.4505 5.74329 17.9065 5.74329C17.4985 5.74329 17.1245 5.87929 16.7845 6.15129C16.4445 6.42329 16.1895 6.98429 16.0195 7.83429C15.8155 8.78629 15.7815 9.84029 15.9175 10.9963C16.0875 12.1523 16.4275 13.2573 16.9375 14.3113C17.4475 15.3653 18.1275 16.2323 18.9775 16.9123C19.8615 17.5923 20.9155 17.9323 22.1395 17.9323C22.9895 17.9323 23.8055 17.6603 24.5875 17.1163C25.4035 16.5383 26.0835 15.7393 26.6275 14.7193C27.2055 13.6653 27.5625 12.4413 27.6985 11.0473C27.8005 10.2313 27.7835 9.55129 27.6475 9.00729C27.5455 8.46329 27.3585 7.97029 27.0865 7.52829C26.8145 7.05229 26.4575 6.57629 26.0155 6.10029C25.6755 5.72629 25.3695 5.33529 25.0975 4.92729C24.8255 4.51929 24.6895 4.04329 24.6895 3.49929C24.6895 2.61529 24.9615 1.98629 25.5055 1.61229C26.0835 1.20429 26.7465 1.00029 27.4945 1.00029C28.2085 1.00029 28.7865 1.18729 29.2285 1.56129C29.6705 1.90129 29.9765 2.54729 30.1465 3.49929C30.3165 4.41729 30.3165 5.72629 30.1465 7.42629C29.9765 9.36429 29.5515 11.2173 28.8715 12.9853C28.1915 14.7193 27.3585 16.2493 26.3725 17.5753C25.3865 18.9013 24.2985 19.9553 23.1085 20.7373C21.9525 21.4853 20.7965 21.8593 19.6405 21.8593C18.5525 21.8593 17.6175 21.5193 16.8355 20.8393C16.0875 20.1593 15.4925 19.2243 15.0505 18.0343C14.6425 16.8103 14.4045 15.3653 14.3365 13.6993C14.3025 11.9993 14.4555 10.1633 14.7955 8.19129C15.1015 6.55929 15.4585 5.23329 15.8665 4.21329C16.2745 3.15929 16.7505 2.39429 17.2945 1.91829C17.8725 1.44229 18.5015 1.20429 19.1815 1.20429C20.0995 1.20429 20.7115 1.61229 21.0175 2.42829C21.3575 3.24429 21.3915 4.50229 21.1195 6.20229C20.8475 8.14029 20.3375 10.0443 19.5895 11.9143C18.8415 13.7503 17.9235 15.4333 16.8355 16.9633C15.7815 18.4593 14.6255 19.6493 13.3675 20.5333C12.1435 21.4173 10.8855 21.8593 9.59345 21.8593ZM34.0009 21.6283C33.2649 21.6283 32.6569 21.4043 32.1769 20.9563C31.7289 20.5083 31.5049 19.9003 31.5049 19.1323C31.5049 18.3963 31.7289 17.8203 32.1769 17.4043C32.6249 16.9563 33.2329 16.7323 34.0009 16.7323C34.7689 16.7323 35.3609 16.9563 35.7769 17.4043C36.2249 17.8203 36.4489 18.3963 36.4489 19.1323C36.4489 20.7963 35.6329 21.6283 34.0009 21.6283Z"/></clipPath><linearGradient id="paint0_diamond_1593_6521" x1="0" y1="0" x2="500" y2="500" gradientUnits="userSpaceOnUse">
<stop stop-color="#F2C6FF"/>
<stop offset="0.55" stop-color="#B8A7F4"/>
<stop offset="1" stop-color="#7B61D8"/>
</linearGradient>
<linearGradient id="paint1_linear_1593_6521" x1="-0.399902" y1="5.19629" x2="40.6001" y2="5.19629" gradientUnits="userSpaceOnUse">
<stop stop-color="#F8D7F5"/>
<stop offset="0.45" stop-color="#CFC3FB"/>
<stop offset="1" stop-color="#6E5BB8"/>
</linearGradient>
</defs>
</svg>
