<svg width="24" height="24" viewBox="0 0 24 24" fill="none" xmlns="http://www.w3.org/2000/svg">
<path d="M13.5187 8.325H12.0748C11.4724 8.325 10.8795 8.61187 10.5544 8.99437L9.69375 6.4125H6.94931L4.66388 13.1062H6.27994L6.98756 11.1938H9.69375V15.0188H4.9125C3.86062 15.0188 3 14.1581 3 13.1062V6.4125C3 5.36063 3.86062 4.5 4.9125 4.5H11.6062C12.6581 4.5 13.5187 5.36063 13.5187 6.4125V8.325ZM9.22519 10.2375H7.29356L8.24981 7.43569L9.22519 10.2375ZM12.5625 9.28125H19.2563C20.3081 9.28125 21.1688 10.1419 21.1688 11.1938V17.8875C21.1688 18.9394 20.3081 19.8 19.2563 19.8H12.5625C11.5106 19.8 10.65 18.9394 10.65 17.8875V11.1938C10.65 10.1419 11.5106 9.28125 12.5625 9.28125ZM19.4953 14.0625V13.0298H16.464V10.9547H15.3547V13.0298H12.3234V14.0625H13.5474C13.6526 14.8753 14.0829 15.8316 14.7714 16.5679C13.9395 16.9121 12.9641 17.1607 12.5625 17.1607C12.5529 17.1799 12.7729 18.0883 12.7537 18.5569C13.557 18.5569 14.8671 18.0787 15.8902 17.4572C16.9326 18.0787 18.2617 18.5569 19.0841 18.5569C19.065 18.0883 19.2754 17.1799 19.2754 17.1607C18.8642 17.1607 17.8506 16.9026 16.9995 16.5583C17.6689 15.822 18.0896 14.8657 18.1948 14.0625H19.4953ZM15.852 15.9081C15.3739 15.4682 15.0392 14.8275 14.8862 14.0625H16.8847C16.7222 14.8275 16.3971 15.4682 15.9285 15.9081L15.8902 15.9368C15.8902 15.9368 15.8616 15.9176 15.852 15.9081Z" fill="#6E5BB8"/>
</svg>
