<svg width="617" height="440" viewBox="0 0 617 440" fill="none" xmlns="http://www.w3.org/2000/svg">
<g filter="url(#filter0_d_975_1763)">
<path d="M24 44C24 30.7452 34.7452 20 48 20H569C582.255 20 593 30.7452 593 44V388C593 401.255 582.255 412 569 412H48C34.7452 412 24 401.255 24 388V44Z" fill="white"/>
<path d="M48 20.5H569C581.979 20.5 592.5 31.0213 592.5 44V388C592.5 400.979 581.979 411.5 569 411.5H48C35.0213 411.5 24.5 400.979 24.5 388V44C24.5 31.0213 35.0213 20.5 48 20.5Z" stroke="#E9E1FF"/>
</g>
<mask id="path-3-inside-1_975_1763" fill="white">
<path d="M569 20C582.255 20 593 30.7452 593 44V57H24V44C24 30.7452 34.7452 20 48 20H569Z"/>
</mask>
<path d="M569 20C582.255 20 593 30.7452 593 44V57H24V44C24 30.7452 34.7452 20 48 20H569Z" fill="#E9E1FF"/>
<path d="M569 20V19V19V20ZM593 44H594H593ZM593 57V58H594V57H593ZM24 57H23V58H24V57ZM48 20V19V19V20ZM569 20V21C581.703 21 592 31.2975 592 44H593H594C594 30.1929 582.807 19 569 19V20ZM593 44H592V57H593H594V44H593ZM593 57V56H24V57V58H593V57ZM24 57H25V44H24H23V57H24ZM24 44H25C25 31.2975 35.2975 21 48 21V20V19C34.1929 19 23 30.1929 23 44H24ZM48 20V21H569V20V19H48V20Z" fill="#E9E1FF" mask="url(#path-3-inside-1_975_1763)"/>
<path d="M55.8877 44.4619C53.4707 44.4619 51.5264 42.5176 51.5264 40.1113C51.5264 37.7051 53.4707 35.75 55.8877 35.75C58.2832 35.75 60.2383 37.7051 60.2383 40.1113C60.2383 42.5176 58.2832 44.4619 55.8877 44.4619ZM68.252 44.4619C65.835 44.4619 63.8906 42.5176 63.8906 40.1113C63.8906 37.7051 65.835 35.75 68.252 35.75C70.6475 35.75 72.6025 37.7051 72.6025 40.1113C72.6025 42.5176 70.6475 44.4619 68.252 44.4619ZM80.6162 44.4619C78.1992 44.4619 76.2549 42.5176 76.2549 40.1113C76.2549 37.7051 78.1992 35.75 80.6162 35.75C83.0117 35.75 84.9668 37.7051 84.9668 40.1113C84.9668 42.5176 83.0117 44.4619 80.6162 44.4619ZM106.451 42.3594V43.7656H93.5449V42.3594H96.8887V39.4531H94.6543V38.0469H96.6387V33.8594H94.6074V32.4688H105.326V33.8594H103.264V38.0469H105.279V39.4531H103.045V42.3594H106.451ZM98.373 38.0469H101.545V33.8594H98.373V38.0469ZM98.623 42.3594H101.311V39.4531H98.623V42.3594ZM112.701 35.2812C112.701 37.5938 114.061 40.0312 116.342 40.9844L115.389 42.3594C113.717 41.6406 112.498 40.1562 111.857 38.3594C111.201 40.2969 109.967 41.9219 108.311 42.7031L107.311 41.3438C109.545 40.3125 110.936 37.6875 110.936 35.2812V34.0938H107.826V32.6562H115.795V34.0938H112.701V35.2812ZM119.123 31.2656V45.3906H117.373V31.2656H119.123ZM136.748 31.2656V45.4062H134.998V31.2656H136.748ZM129.139 32.2969C131.264 32.2969 132.811 34.2344 132.826 37.2812C132.811 40.3594 131.264 42.2812 129.139 42.2812C126.998 42.2812 125.451 40.3594 125.451 37.2812C125.451 34.2344 126.998 32.2969 129.139 32.2969ZM129.139 33.8594C127.936 33.8594 127.123 35.125 127.123 37.2812C127.123 39.4531 127.936 40.7188 129.139 40.7188C130.326 40.7188 131.139 39.4531 131.139 37.2812C131.139 35.125 130.326 33.8594 129.139 33.8594ZM146.295 32.5938V41.9531H139.576V32.5938H146.295ZM141.295 33.9531V40.5625H144.607V33.9531H141.295ZM150.576 31.2656V45.4062H148.826V31.2656H150.576ZM157.982 35.2812C157.982 37.5938 159.342 40.0312 161.623 40.9844L160.67 42.3594C158.998 41.6406 157.779 40.1562 157.139 38.3594C156.482 40.2969 155.248 41.9219 153.592 42.7031L152.592 41.3438C154.826 40.3125 156.217 37.6875 156.217 35.2812V34.0938H153.107V32.6562H161.076V34.0938H157.982V35.2812ZM164.404 31.2656V45.3906H162.654V31.2656H164.404ZM174.686 33.8906C174.686 35.4219 175.576 36.9531 177.436 37.6562L176.514 38.9844C175.256 38.5 174.381 37.6016 173.873 36.5C173.357 37.7656 172.436 38.8438 171.092 39.4062L170.154 38.0781C172.092 37.2188 172.998 35.4531 173.014 33.8906V32.1406H174.686V33.8906ZM182.357 31.2812V39.9375H180.701V36.2656H179.295V39.5H177.67V31.5469H179.295V34.8438H180.701V31.2812H182.357ZM177.592 40.1719C180.545 40.1719 182.42 41.1406 182.436 42.7656C182.42 44.3906 180.545 45.375 177.592 45.375C174.607 45.375 172.748 44.3906 172.748 42.7656C172.748 41.1406 174.607 40.1719 177.592 40.1719ZM177.592 41.4844C175.639 41.4844 174.482 41.9375 174.482 42.7656C174.482 43.6094 175.639 44.0469 177.592 44.0469C179.529 44.0469 180.686 43.6094 180.686 42.7656C180.686 41.9375 179.529 41.4844 177.592 41.4844ZM189.279 33.2969C189.264 35.2188 190.389 36.9688 192.607 37.6719L191.67 39.0312C190.131 38.4922 189.053 37.4688 188.451 36.125C187.826 37.6641 186.646 38.875 184.936 39.4688L184.014 38.0625C186.357 37.2969 187.529 35.4062 187.529 33.375V32.0312H189.279V33.2969ZM195.936 31.2656V39.5781H194.201V35.4219H191.389V34H194.201V31.2656H195.936ZM191.154 39.9531C194.154 39.9531 195.982 40.9531 195.982 42.6719C195.982 44.3906 194.154 45.375 191.154 45.375C188.17 45.375 186.342 44.3906 186.357 42.6719C186.342 40.9531 188.17 39.9531 191.154 39.9531ZM191.154 41.2969C189.186 41.2969 188.076 41.7812 188.076 42.6719C188.076 43.5312 189.186 44.0156 191.154 44.0156C193.123 44.0156 194.248 43.5312 194.248 42.6719C194.248 41.7812 193.123 41.2969 191.154 41.2969Z" fill="#6E5BB8"/>
<path d="M59 111C59 102.163 66.1634 95 75 95H200C208.837 95 216 102.163 216 111V360.667C216 369.503 208.837 376.667 200 376.667H75C66.1634 376.667 59 369.503 59 360.667V111Z" fill="#F3EEFF"/>
<path d="M75 354C75 349.582 78.5817 346 83 346H192C196.418 346 200 349.582 200 354V355C200 359.418 196.418 363 192 363H83C78.5817 363 75 359.418 75 355V354Z" fill="#A89BD4" fill-opacity="0.3"/>
<path d="M79.8398 114.004C79.8398 115.521 80.8242 117.025 82.7656 117.668L82 118.844C80.6191 118.386 79.6348 117.456 79.1016 116.301C78.5479 117.565 77.5225 118.57 76.0801 119.062L75.2734 117.887C77.2695 117.23 78.3086 115.631 78.3086 114.004V113.854H75.6973V112.637H82.4102V113.854H79.8398V114.004ZM85.1582 111.857V114.947H86.8809V116.219H85.1582V119.309H83.6406V111.857H85.1582ZM85.1582 119.883V124.217H83.6406V121.1H76.9277V119.883H85.1582ZM98.7754 117.709V118.926H93.8809V120.115H97.4082V124.066H88.8359V120.115H92.377V118.926H87.5098V117.709H98.7754ZM97.7363 112.227V113.443H96.041V115.562H97.668V116.793H88.5898V115.562H90.2168V113.443H88.5215V112.227H97.7363ZM90.3398 121.291V122.836H95.9316V121.291H90.3398ZM91.7344 115.562H94.5098V113.443H91.7344V115.562ZM107.43 114.045C107.43 115.686 108.414 117.285 110.328 117.941L109.494 119.131C108.161 118.625 107.204 117.661 106.691 116.451C106.151 117.805 105.146 118.878 103.697 119.418L102.891 118.215C104.873 117.545 105.885 115.836 105.898 114.031V112.623H107.43V114.045ZM113.281 111.871V121.045H111.764V115.836H109.303V114.592H111.764V111.871H113.281ZM113.555 122.74V123.971H105.133V120.047H106.678V122.74H113.555ZM120.35 112.719V113.936H116.959V115.139H120.227V116.301H116.959V117.6C118.47 117.586 119.516 117.524 120.719 117.299L120.883 118.529C119.434 118.803 118.23 118.844 116.316 118.844H115.496V112.719H120.35ZM125.6 111.871V119.391H124.15V116.178H122.865V119.295H121.443V112.104H122.865V114.961H124.15V111.871H125.6ZM125.6 119.938V124.217H124.082V121.168H117.137V119.938H125.6Z" fill="#6E5BB8"/>
<path d="M75 143C75 138.582 78.5817 135 83 135H192C196.418 135 200 138.582 200 143V158C200 162.418 196.418 166 192 166H83C78.5817 166 75 162.418 75 158V143Z" fill="#A89BD4" fill-opacity="0.3"/>
<path d="M85.3223 182.418V183.361C85.3223 184.284 85.3223 185.344 85.0625 186.725H86.7031V187.955H81.7949V189.883H85.3496V194.217H83.832V191.1H76.5586V189.883H80.2773V187.955H75.4102V186.725H83.5312C83.7773 185.46 83.8047 184.496 83.8047 183.635H76.8047V182.418H85.3223ZM97.1895 181.857V186.684H99.0215V187.955H97.1895V194.189H95.6719V181.857H97.1895ZM93.9219 183.143C93.9219 186.779 92.418 189.965 88.3027 191.988L87.4414 190.812C90.4492 189.315 92.0762 187.21 92.3906 184.4H88.1113V183.143H93.9219ZM107.43 184.045C107.43 185.686 108.414 187.285 110.328 187.941L109.494 189.131C108.161 188.625 107.204 187.661 106.691 186.451C106.151 187.805 105.146 188.878 103.697 189.418L102.891 188.215C104.873 187.545 105.885 185.836 105.898 184.031V182.623H107.43V184.045ZM113.281 181.871V191.045H111.764V185.836H109.303V184.592H111.764V181.871H113.281ZM113.555 192.74V193.971H105.133V190.047H106.678V192.74H113.555ZM120.35 182.719V183.936H116.959V185.139H120.227V186.301H116.959V187.6C118.47 187.586 119.516 187.524 120.719 187.299L120.883 188.529C119.434 188.803 118.23 188.844 116.316 188.844H115.496V182.719H120.35ZM125.6 181.871V189.391H124.15V186.178H122.865V189.295H121.443V182.104H122.865V184.961H124.15V181.871H125.6ZM125.6 189.938V194.217H124.082V191.168H117.137V189.938H125.6Z" fill="#6E5BB8"/>
<path d="M75 213C75 208.582 78.5817 205 83 205H192C196.418 205 200 208.582 200 213V228C200 232.418 196.418 236 192 236H83C78.5817 236 75 232.418 75 228V213Z" fill="#A89BD4" fill-opacity="0.3"/>
<path d="M86.6758 259.281V260.525H81.7812V264.23H80.2773V260.525H75.4102V259.281H86.6758ZM85.623 253.32V254.523H81.8086C81.9521 255.747 83.5586 257.025 86.0332 257.326L85.4727 258.529C83.4287 258.27 81.8428 257.367 81.043 256.178C80.2295 257.381 78.6299 258.27 76.5723 258.529L76.0254 257.326C78.4932 257.025 80.1133 255.768 80.2637 254.523H76.4492V253.32H80.2773V251.871H81.7812V253.32H85.623ZM97.1895 251.857V256.684H99.0215V257.955H97.1895V264.189H95.6719V251.857H97.1895ZM93.9219 253.143C93.9219 256.779 92.418 259.965 88.3027 261.988L87.4414 260.812C90.4492 259.315 92.0762 257.21 92.3906 254.4H88.1113V253.143H93.9219ZM114.225 261.469V262.713H102.932V261.469H105.543V258.338C104.559 257.777 103.964 256.896 103.971 255.795C103.957 253.826 105.898 252.527 108.551 252.527C111.217 252.527 113.158 253.826 113.158 255.795C113.158 256.875 112.584 257.743 111.627 258.311V261.469H114.225ZM108.551 253.73C106.705 253.73 105.447 254.51 105.461 255.795C105.447 257.066 106.705 257.859 108.551 257.859C110.396 257.859 111.668 257.066 111.668 255.795C111.668 254.51 110.396 253.73 108.551 253.73ZM107.047 261.469H110.082V258.885C109.61 258.994 109.098 259.049 108.551 259.049C108.018 259.049 107.512 258.994 107.047 258.898V261.469ZM119.475 254.496C119.475 255.85 120.527 257.189 122.469 257.709L121.758 258.885C120.329 258.495 119.304 257.661 118.736 256.588C118.203 257.805 117.171 258.762 115.701 259.199L114.99 258.023C116.918 257.436 117.957 255.986 117.957 254.496V254.428H115.373V253.225H117.957V251.803H119.488V253.225H122.059V254.428H119.475V254.496ZM125.381 251.857V259.336H123.863V256.479H121.689V255.248H123.863V251.857H125.381ZM121.197 259.582C123.809 259.582 125.422 260.416 125.422 261.879C125.422 263.355 123.809 264.203 121.197 264.203C118.6 264.203 116.986 263.355 117 261.879C116.986 260.416 118.6 259.582 121.197 259.582ZM121.197 260.744C119.475 260.758 118.504 261.141 118.504 261.879C118.504 262.617 119.475 263.027 121.197 263.027C122.947 263.027 123.904 262.617 123.904 261.879C123.904 261.141 122.947 260.758 121.197 260.744ZM134.869 254.824C134.855 257.025 135.963 259.268 137.877 260.184L136.947 261.4C135.607 260.724 134.644 259.418 134.117 257.846C133.577 259.527 132.565 260.922 131.15 261.633L130.221 260.416C132.203 259.473 133.338 257.107 133.352 254.824V252.855H134.869V254.824ZM140.133 251.857V256.697H142.033V257.996H140.133V264.217H138.615V251.857H140.133ZM152.301 251.857V255.111H154.023V256.383H152.301V259.746H150.783V251.857H152.301ZM148.309 259.855C150.838 259.855 152.438 260.662 152.438 262.029C152.438 263.383 150.838 264.203 148.309 264.203C145.738 264.203 144.166 263.383 144.18 262.029C144.166 260.662 145.738 259.855 148.309 259.855ZM148.309 261.018C146.613 261.018 145.67 261.346 145.684 262.029C145.67 262.686 146.613 263.055 148.309 263.055C149.977 263.055 150.92 262.686 150.92 262.029C150.92 261.346 149.977 261.018 148.309 261.018ZM149.895 253.115V254.305H142.566V253.115H145.479V251.775H146.996V253.115H149.895ZM146.23 254.797C148.021 254.797 149.238 255.686 149.252 257.012C149.238 258.338 148.021 259.213 146.23 259.213C144.426 259.213 143.195 258.338 143.195 257.012C143.195 255.686 144.426 254.797 146.23 254.797ZM146.23 255.918C145.287 255.918 144.672 256.328 144.672 257.012C144.672 257.682 145.287 258.064 146.23 258.064C147.174 258.064 147.803 257.682 147.803 257.012C147.803 256.328 147.174 255.918 146.23 255.918ZM168.27 251.857V258.488H166.738V251.857H168.27ZM161.598 259.062V260.334H166.752V259.062H168.27V264.066H160.094V259.062H161.598ZM161.598 262.836H166.752V261.523H161.598V262.836ZM161.529 252.404C163.43 252.391 164.852 253.58 164.852 255.303C164.852 256.984 163.43 258.174 161.529 258.174C159.615 258.174 158.193 256.984 158.193 255.303C158.193 253.58 159.615 252.391 161.529 252.404ZM161.529 253.676C160.449 253.676 159.67 254.305 159.684 255.303C159.67 256.287 160.449 256.916 161.529 256.93C162.596 256.916 163.361 256.287 163.361 255.303C163.361 254.305 162.596 253.676 161.529 253.676ZM175.98 252.596V256.314H172.084V257.832C174.066 257.839 175.208 257.777 176.514 257.531L176.664 258.762C175.188 259.008 173.902 259.049 171.482 259.049H170.58V255.18H174.463V253.799H170.553V252.596H175.98ZM180.424 251.871V259.473H178.906V257.436H176.719V256.219H178.906V254.838H176.719V253.621H178.906V251.871H180.424ZM180.424 260.061V264.217H178.906V261.277H171.975V260.061H180.424Z" fill="#6E5BB8"/>
<path d="M75 283C75 278.582 78.5817 275 83 275H192C196.418 275 200 278.582 200 283V326C200 330.418 196.418 334 192 334H83C78.5817 334 75 330.418 75 326V283Z" fill="#A89BD4" fill-opacity="0.3"/>
<rect x="242" y="95" width="316" height="282" rx="16" fill="#F3EEFF"/>
<path d="M266.588 114.154C266.588 115.494 267.367 116.834 268.994 117.449L268.188 118.611C267.087 118.188 266.321 117.401 265.877 116.438C265.426 117.545 264.619 118.488 263.443 118.98L262.623 117.818C264.318 117.066 265.111 115.521 265.125 114.154V112.623H266.588V114.154ZM273.301 111.871V119.445H271.852V116.232H270.621V119.062H269.199V112.104H270.621V114.988H271.852V111.871H273.301ZM269.131 119.65C271.715 119.65 273.355 120.498 273.369 121.92C273.355 123.342 271.715 124.203 269.131 124.203C266.52 124.203 264.893 123.342 264.893 121.92C264.893 120.498 266.52 119.65 269.131 119.65ZM269.131 120.799C267.422 120.799 266.41 121.195 266.41 121.92C266.41 122.658 267.422 123.041 269.131 123.041C270.826 123.041 271.838 122.658 271.838 121.92C271.838 121.195 270.826 120.799 269.131 120.799ZM279.357 113.635C279.344 115.316 280.328 116.848 282.27 117.463L281.449 118.652C280.103 118.181 279.159 117.285 278.633 116.109C278.086 117.456 277.054 118.516 275.557 119.035L274.75 117.805C276.801 117.135 277.826 115.48 277.826 113.703V112.527H279.357V113.635ZM285.182 111.857V119.131H283.664V115.494H281.203V114.25H283.664V111.857H285.182ZM280.998 119.459C283.623 119.459 285.223 120.334 285.223 121.838C285.223 123.342 283.623 124.203 280.998 124.203C278.387 124.203 276.787 123.342 276.801 121.838C276.787 120.334 278.387 119.459 280.998 119.459ZM280.998 120.635C279.275 120.635 278.305 121.059 278.305 121.838C278.305 122.59 279.275 123.014 280.998 123.014C282.721 123.014 283.705 122.59 283.705 121.838C283.705 121.059 282.721 120.635 280.998 120.635ZM294.123 115.74V116.957H291.826V118.352C292.858 118.311 293.884 118.242 294.848 118.146L294.957 119.24C292.332 119.609 289.488 119.678 287.191 119.678L286.986 118.461C288.005 118.454 289.133 118.447 290.295 118.406V116.957H288.053V112.623H294.027V113.854H289.584V115.74H294.123ZM297.24 111.857V121.141H295.709V111.857H297.24ZM297.596 122.74V123.971H288.955V120.457H290.486V122.74H297.596ZM313.646 121.564V122.795H302.354V121.564H305.279V119.021H303.324V117.791H305.061V114.127H303.283V112.91H312.662V114.127H310.857V117.791H312.621V119.021H310.666V121.564H313.646ZM306.578 117.791H309.354V114.127H306.578V117.791ZM306.797 121.564H309.148V119.021H306.797V121.564ZM319.115 115.371C319.115 117.395 320.305 119.527 322.301 120.361L321.467 121.564C320.004 120.936 318.938 119.637 318.377 118.064C317.803 119.76 316.723 121.182 315.273 121.865L314.398 120.676C316.354 119.773 317.57 117.477 317.57 115.371V114.332H314.85V113.074H321.822V114.332H319.115V115.371ZM324.734 111.857V124.217H323.203V111.857H324.734ZM340.156 111.857V124.23H338.625V111.857H340.156ZM333.498 112.76C335.357 112.76 336.711 114.455 336.725 117.121C336.711 119.814 335.357 121.496 333.498 121.496C331.625 121.496 330.271 119.814 330.271 117.121C330.271 114.455 331.625 112.76 333.498 112.76ZM333.498 114.127C332.445 114.127 331.734 115.234 331.734 117.121C331.734 119.021 332.445 120.129 333.498 120.129C334.537 120.129 335.248 119.021 335.248 117.121C335.248 115.234 334.537 114.127 333.498 114.127ZM348.51 113.02V121.209H342.631V113.02H348.51ZM344.135 114.209V119.992H347.033V114.209H344.135ZM352.256 111.857V124.23H350.725V111.857H352.256ZM358.736 115.371C358.736 117.395 359.926 119.527 361.922 120.361L361.088 121.564C359.625 120.936 358.559 119.637 357.998 118.064C357.424 119.76 356.344 121.182 354.895 121.865L354.02 120.676C355.975 119.773 357.191 117.477 357.191 115.371V114.332H354.471V113.074H361.443V114.332H358.736V115.371ZM364.355 111.857V124.217H362.824V111.857H364.355Z" fill="#6E5BB8"/>
<path d="M265 150C265 145.582 268.582 142 273 142H323C327.418 142 331 145.582 331 150V233C331 237.418 327.418 241 323 241H273C268.582 241 265 237.418 265 233V150Z" fill="#A89BD4" fill-opacity="0.3"/>
<path d="M265 265C265 260.582 268.582 257 273 257H323C327.418 257 331 260.582 331 265V348C331 352.418 327.418 356 323 356H273C268.582 356 265 352.418 265 348V265Z" fill="#A89BD4" fill-opacity="0.3"/>
<path d="M369 265C369 260.582 372.582 257 377 257H427C431.418 257 435 260.582 435 265V348C435 352.418 431.418 356 427 356H377C372.582 356 369 352.418 369 348V265Z" fill="#A89BD4" fill-opacity="0.3"/>
<path d="M367 150C367 145.582 370.582 142 375 142H425C429.418 142 433 145.582 433 150V233C433 237.418 429.418 241 425 241H375C370.582 241 367 237.418 367 233V150Z" fill="#A89BD4" fill-opacity="0.3"/>
<path d="M469 150C469 145.582 472.582 142 477 142H527C531.418 142 535 145.582 535 150V233C535 237.418 531.418 241 527 241H477C472.582 241 469 237.418 469 233V150Z" fill="#A89BD4" fill-opacity="0.3"/>
<defs>
<filter id="filter0_d_975_1763" x="0" y="0" width="617" height="440" filterUnits="userSpaceOnUse" color-interpolation-filters="sRGB">
<feFlood flood-opacity="0" result="BackgroundImageFix"/>
<feColorMatrix in="SourceAlpha" type="matrix" values="0 0 0 0 0 0 0 0 0 0 0 0 0 0 0 0 0 0 127 0" result="hardAlpha"/>
<feOffset dy="4"/>
<feGaussianBlur stdDeviation="12"/>
<feComposite in2="hardAlpha" operator="out"/>
<feColorMatrix type="matrix" values="0 0 0 0 0.431373 0 0 0 0 0.356863 0 0 0 0 0.721569 0 0 0 0.08 0"/>
<feBlend mode="normal" in2="BackgroundImageFix" result="effect1_dropShadow_975_1763"/>
<feBlend mode="normal" in="SourceGraphic" in2="effect1_dropShadow_975_1763" result="shape"/>
</filter>
</defs>
</svg>
