<svg width="617" height="440" viewBox="0 0 617 440" fill="none" xmlns="http://www.w3.org/2000/svg">
<g filter="url(#filter0_d_975_1663)">
<path d="M24 44C24 30.7452 34.7452 20 48 20H569C582.255 20 593 30.7452 593 44V388C593 401.255 582.255 412 569 412H48C34.7452 412 24 401.255 24 388V44Z" fill="white"/>
<path d="M48 20.5H569C581.979 20.5 592.5 31.0213 592.5 44V388C592.5 400.979 581.979 411.5 569 411.5H48C35.0213 411.5 24.5 400.979 24.5 388V44C24.5 31.0213 35.0213 20.5 48 20.5Z" stroke="#E9E1FF"/>
</g>
<mask id="path-3-inside-1_975_1663" fill="white">
<path d="M569 20C582.255 20 593 30.7452 593 44V57H24V44C24 30.7452 34.7452 20 48 20H569Z"/>
</mask>
<path d="M569 20C582.255 20 593 30.7452 593 44V57H24V44C24 30.7452 34.7452 20 48 20H569Z" fill="#E9E1FF"/>
<path d="M569 20V19V19V20ZM593 44H594H593ZM593 57V58H594V57H593ZM24 57H23V58H24V57ZM48 20V19V19V20ZM569 20V21C581.703 21 592 31.2975 592 44H593H594C594 30.1929 582.807 19 569 19V20ZM593 44H592V57H593H594V44H593ZM593 57V56H24V57V58H593V57ZM24 57H25V44H24H23V57H24ZM24 44H25C25 31.2975 35.2975 21 48 21V20V19C34.1929 19 23 30.1929 23 44H24ZM48 20V21H569V20V19H48V20Z" fill="#E9E1FF" mask="url(#path-3-inside-1_975_1663)"/>
<path d="M55.8877 44.4619C53.4707 44.4619 51.5264 42.5176 51.5264 40.1113C51.5264 37.7051 53.4707 35.75 55.8877 35.75C58.2832 35.75 60.2383 37.7051 60.2383 40.1113C60.2383 42.5176 58.2832 44.4619 55.8877 44.4619ZM68.252 44.4619C65.835 44.4619 63.8906 42.5176 63.8906 40.1113C63.8906 37.7051 65.835 35.75 68.252 35.75C70.6475 35.75 72.6025 37.7051 72.6025 40.1113C72.6025 42.5176 70.6475 44.4619 68.252 44.4619ZM80.6162 44.4619C78.1992 44.4619 76.2549 42.5176 76.2549 40.1113C76.2549 37.7051 78.1992 35.75 80.6162 35.75C83.0117 35.75 84.9668 37.7051 84.9668 40.1113C84.9668 42.5176 83.0117 44.4619 80.6162 44.4619ZM105.373 31.2812V41.7031H103.639V36.5H100.795V39.4062H94.1855V32.2031H95.9199V34.4844H99.0762V32.2031H100.795V35.0938H103.639V31.2812H105.373ZM105.686 43.7031V45.1094H96.0605V40.6719H97.8262V43.7031H105.686ZM95.9199 38.0312H99.0762V35.8281H95.9199V38.0312ZM119.201 40.2812V45.3906H117.467V41.6562H109.576V40.2812H119.201ZM119.201 31.2656V39.6094H117.467V37.7344H114.154C113.482 38.4844 112.467 38.9375 111.295 38.9375C109.17 38.9375 107.561 37.5 107.561 35.4688C107.561 33.4688 109.17 32.0312 111.295 32.0469C112.459 32.0391 113.475 32.4766 114.139 33.2188H117.467V31.2656H119.201ZM111.295 33.5156C110.076 33.5156 109.217 34.2969 109.217 35.4688C109.217 36.6875 110.076 37.4531 111.295 37.4688C112.451 37.4531 113.326 36.6875 113.342 35.4688C113.326 34.2969 112.451 33.5156 111.295 33.5156ZM114.889 36.3281H117.467V34.6406H114.904C114.959 34.9062 114.998 35.1797 114.998 35.4688C114.998 35.7656 114.959 36.0547 114.889 36.3281ZM130.092 32.1562L126.451 45.7031H124.701L128.357 32.1562H130.092ZM141.842 32.125C141.826 35.7656 139.436 38.3125 135.326 39.4688L134.623 38.1094C137.787 37.2422 139.662 35.5938 139.982 33.5312H135.389V32.125H141.842ZM146.357 31.2812V39.2344H144.623V36.1562H141.904V34.7344H144.623V31.2812H146.357ZM146.357 39.7969V45.2031H137.061V39.7969H146.357ZM138.764 41.1719V43.8281H144.639V41.1719H138.764ZM155.717 32.4375C155.717 34.2188 157.701 36.0156 160.717 36.4062L160.029 37.8125C157.631 37.4531 155.725 36.2734 154.811 34.6719C153.881 36.2734 151.982 37.4531 149.607 37.8125L148.92 36.4062C151.904 36.0156 153.889 34.2188 153.889 32.4375V31.7188H155.717V32.4375ZM161.232 39.0312V40.4688H155.623V45.3906H153.904V40.4688H148.357V39.0312H161.232Z" fill="#6E5BB8"/>
<path d="M63 114C63 105.163 70.1634 98 79 98H402C410.837 98 418 105.163 418 114V363.667C418 372.503 410.837 379.667 402 379.667H79C70.1634 379.667 63 372.503 63 363.667V114Z" fill="#F3EEFF"/>
<path d="M98.1582 117.871V121.754H99.8809V123.012H98.1582V127.1H96.6406V117.871H98.1582ZM95.752 119.238V120.455H88.4238V119.238H91.3359V117.857H92.8535V119.238H95.752ZM92.0879 120.961C93.8652 120.961 95.0957 121.904 95.1094 123.326C95.0957 124.734 93.8652 125.664 92.0879 125.664C90.2969 125.664 89.0527 124.734 89.0527 123.326C89.0527 121.904 90.2969 120.961 92.0879 120.961ZM92.0879 122.137C91.1445 122.137 90.5293 122.574 90.5293 123.326C90.5293 124.064 91.1445 124.502 92.0879 124.488C93.0312 124.502 93.6602 124.064 93.6602 123.326C93.6602 122.574 93.0312 122.137 92.0879 122.137ZM98.6504 128.74V129.971H90.2422V126.375H91.7598V128.74H98.6504ZM110.422 118.418V119.361C110.422 120.284 110.422 121.344 110.162 122.725H111.803V123.955H106.895V125.883H110.449V130.217H108.932V127.1H101.658V125.883H105.377V123.955H100.51V122.725H108.631C108.877 121.46 108.904 120.496 108.904 119.635H101.904V118.418H110.422ZM115.986 118.76C117.661 118.76 118.898 120.154 119.117 122.41H121.469V117.857H122.973V130.23H121.469V123.641H119.131C118.967 126.026 117.709 127.496 115.986 127.496C114.127 127.496 112.814 125.814 112.814 123.121C112.814 120.455 114.127 118.76 115.986 118.76ZM115.986 120.127C114.961 120.127 114.264 121.234 114.277 123.121C114.264 125.021 114.961 126.129 115.986 126.129C117.012 126.129 117.695 125.021 117.709 123.121C117.695 121.234 117.012 120.127 115.986 120.127ZM138.395 117.871V127.223H136.863V126.143H134.443V125.076H136.863V117.871H138.395ZM138.682 128.74V129.971H129.617V126.32H131.135V128.74H138.682ZM127.977 123.422C130.26 123.408 133.322 123.381 135.947 123.053L136.029 124.146C135.011 124.317 133.958 124.434 132.912 124.502V126.881H131.395V124.584C130.239 124.632 129.139 124.639 128.168 124.639L127.977 123.422ZM132.01 118.322C133.814 118.322 135.072 119.211 135.086 120.51C135.072 121.836 133.814 122.684 132.01 122.684C130.178 122.684 128.92 121.836 128.92 120.51C128.92 119.211 130.178 118.322 132.01 118.322ZM132.01 119.443C131.025 119.443 130.355 119.84 130.355 120.51C130.355 121.18 131.025 121.576 132.01 121.576C132.953 121.576 133.623 121.18 133.637 120.51C133.623 119.84 132.953 119.443 132.01 119.443ZM151.41 124.037V125.254H146.639V127.523H145.135V125.254H140.117V124.037H151.41ZM149.961 118.418V122.889H141.553V118.418H149.961ZM143.029 119.607V121.699H148.457V119.607H143.029ZM150.166 128.74V129.971H141.484V126.389H143.002V128.74H150.166Z" fill="#6E5BB8"/>
<path d="M177.76 117.871V127.277H176.242V124.844H174.41V123.627H176.242V122.246H174.41V121.016H176.242V117.871H177.76ZM174.342 119.238V120.455H167.438V119.238H170.199V117.857H171.717V119.238H174.342ZM170.938 120.961C172.619 120.961 173.822 121.945 173.836 123.367C173.822 124.789 172.619 125.773 170.938 125.773C169.27 125.773 168.066 124.789 168.08 123.367C168.066 121.945 169.27 120.961 170.938 120.961ZM170.938 122.15C170.09 122.164 169.488 122.615 169.502 123.367C169.488 124.146 170.09 124.598 170.938 124.598C171.785 124.598 172.4 124.146 172.4 123.367C172.4 122.615 171.785 122.164 170.938 122.15ZM178.033 128.74V129.971H169.611V126.471H171.156V128.74H178.033ZM184.172 121.371C184.172 123.395 185.361 125.527 187.357 126.361L186.523 127.564C185.061 126.936 183.994 125.637 183.434 124.064C182.859 125.76 181.779 127.182 180.33 127.865L179.455 126.676C181.41 125.773 182.627 123.477 182.627 121.371V120.332H179.906V119.074H186.879V120.332H184.172V121.371ZM189.791 117.857V130.217H188.26V117.857H189.791ZM201.385 117.857V122.957H203.121V124.229H201.385V130.217H199.854V117.857H201.385ZM191.459 126.785C192.396 126.785 193.482 126.785 194.617 126.758V125.596C193.271 125.37 192.389 124.522 192.402 123.367C192.389 121.973 193.619 121.043 195.396 121.043C197.146 121.043 198.391 121.973 198.404 123.367C198.391 124.529 197.495 125.377 196.148 125.596V126.703C197.188 126.648 198.227 126.566 199.197 126.43L199.293 127.537C196.641 128.016 193.783 128.043 191.678 128.043L191.459 126.785ZM199.061 119.279V120.482H191.691V119.279H194.617V117.912H196.148V119.279H199.061ZM195.396 122.205C194.453 122.219 193.838 122.643 193.838 123.367C193.838 124.078 194.453 124.502 195.396 124.488C196.326 124.502 196.941 124.078 196.941 123.367C196.941 122.643 196.326 122.219 195.396 122.205ZM217.381 117.871V126.99H215.863V122.438H213.375V124.98H207.592V118.678H209.109V120.674H211.871V118.678H213.375V121.207H215.863V117.871H217.381ZM217.654 128.74V129.971H209.232V126.088H210.777V128.74H217.654ZM209.109 123.777H211.871V121.85H209.109V123.777ZM229.48 125.746V130.217H227.963V126.949H221.059V125.746H229.48ZM229.48 117.857V125.158H227.963V123.518H225.064C224.477 124.174 223.588 124.57 222.562 124.57C220.703 124.57 219.295 123.312 219.295 121.535C219.295 119.785 220.703 118.527 222.562 118.541C223.581 118.534 224.47 118.917 225.051 119.566H227.963V117.857H229.48ZM222.562 119.826C221.496 119.826 220.744 120.51 220.744 121.535C220.744 122.602 221.496 123.271 222.562 123.285C223.574 123.271 224.34 122.602 224.354 121.535C224.34 120.51 223.574 119.826 222.562 119.826ZM225.707 122.287H227.963V120.811H225.721C225.769 121.043 225.803 121.282 225.803 121.535C225.803 121.795 225.769 122.048 225.707 122.287Z" fill="#FF2D55" fill-opacity="0.8"/>
<rect x="431" y="98" width="131" height="281.667" rx="16" fill="#F3EEFF"/>
<path d="M453.809 118.609C453.795 121.795 451.703 124.023 448.107 125.035L447.492 123.846C450.261 123.087 451.901 121.645 452.182 119.84H448.162V118.609H453.809ZM457.76 117.871V124.83H456.242V122.137H453.863V120.893H456.242V117.871H457.76ZM457.76 125.322V130.053H449.625V125.322H457.76ZM451.115 126.525V128.85H456.256V126.525H451.115ZM465.949 118.883C465.949 120.441 467.686 122.014 470.324 122.355L469.723 123.586C467.624 123.271 465.956 122.239 465.156 120.838C464.343 122.239 462.682 123.271 460.604 123.586L460.002 122.355C462.613 122.014 464.35 120.441 464.35 118.883V118.254H465.949V118.883ZM470.775 124.652V125.91H465.867V130.217H464.363V125.91H459.51V124.652H470.775ZM478.746 120.537C478.746 121.836 479.539 123.107 481.098 123.682L480.414 124.816C479.279 124.399 478.507 123.62 478.062 122.67C477.632 123.729 476.846 124.591 475.684 125.049L474.945 123.928C476.518 123.312 477.297 121.932 477.311 120.537H475.273V119.334H477.311V118.021H478.746V119.334H480.756V120.537H478.746ZM485.5 117.871V126.211H484.051V122.137H482.861V125.145H481.426V118.076H482.861V120.893H484.051V117.871H485.5ZM482.027 125.896C482.027 127.305 483.613 128.645 486.074 128.973L485.541 130.148C483.559 129.868 482.027 128.986 481.275 127.756C480.503 128.986 478.972 129.868 476.996 130.148L476.463 128.973C478.938 128.645 480.496 127.305 480.51 125.896V125.65H482.027V125.896ZM489.998 118.199V119.375H495.33V118.199H496.834V122.82H493.416V123.955H498.297V125.172H487.031V123.955H491.912V122.82H488.494V118.199H489.998ZM489.998 121.631H495.33V120.537H489.998V121.631ZM493.416 126.129C493.416 127.469 494.934 128.686 497.49 128.986L496.957 130.148C494.94 129.875 493.416 129.075 492.664 127.92C491.892 129.075 490.36 129.875 488.371 130.148L487.824 128.986C490.367 128.686 491.871 127.469 491.885 126.129V125.855H493.416V126.129Z" fill="#6E5BB8"/>
<path d="M88 156.5C88 153.462 90.4624 151 93.5 151H380.5C383.538 151 386 153.462 386 156.5C386 159.538 383.538 162 380.5 162H93.5C90.4624 162 88 159.538 88 156.5Z" fill="#A89BD4" fill-opacity="0.3"/>
<path d="M447 159C447 154.582 450.582 151 455 151H527C531.418 151 535 154.582 535 159V169C535 173.418 531.418 177 527 177H455C450.582 177 447 173.418 447 169V159Z" fill="#A89BD4" fill-opacity="0.3"/>
<path d="M447 231C447 226.582 450.582 223 455 223H527C531.418 223 535 226.582 535 231V237C535 241.418 531.418 245 527 245H455C450.582 245 447 241.418 447 237V231Z" fill="#A89BD4" fill-opacity="0.3"/>
<path d="M472 195C472 190.582 475.582 187 480 187H537C541.418 187 545 190.582 545 195V205C545 209.418 541.418 213 537 213H480C475.582 213 472 209.418 472 205V195Z" fill="#A89BD4" fill-opacity="0.6"/>
<path d="M472 260.5C472 257.462 474.462 255 477.5 255H539.5C542.538 255 545 257.462 545 260.5C545 263.538 542.538 266 539.5 266H477.5C474.462 266 472 263.538 472 260.5Z" fill="#A89BD4" fill-opacity="0.6"/>
<path d="M88 176.5C88 173.462 90.4624 171 93.5 171H327.5C330.538 171 333 173.462 333 176.5C333 179.538 330.538 182 327.5 182H93.5C90.4624 182 88 179.538 88 176.5Z" fill="#A89BD4" fill-opacity="0.3"/>
<path d="M88 236.5C88 233.462 90.4624 231 93.5 231H223.5C226.538 231 229 233.462 229 236.5C229 239.538 226.538 242 223.5 242H93.5C90.4624 242 88 239.538 88 236.5Z" fill="#A89BD4" fill-opacity="0.3"/>
<path d="M88 196.5C88 193.462 90.4624 191 93.5 191H362.5C365.538 191 368 193.462 368 196.5C368 199.538 365.538 202 362.5 202H93.5C90.4624 202 88 199.538 88 196.5Z" fill="#A89BD4" fill-opacity="0.3"/>
<path d="M88 216.5C88 213.462 90.4624 211 93.5 211H362.5C365.538 211 368 213.462 368 216.5C368 219.538 365.538 222 362.5 222H93.5C90.4624 222 88 219.538 88 216.5Z" fill="#A89BD4" fill-opacity="0.6"/>
<path d="M88 256.5C88 253.462 90.4624 251 93.5 251H380.5C383.538 251 386 253.462 386 256.5C386 259.538 383.538 262 380.5 262H93.5C90.4624 262 88 259.538 88 256.5Z" fill="#FF2D55" fill-opacity="0.3"/>
<path d="M88 276.5C88 273.462 90.4624 271 93.5 271H327.5C330.538 271 333 273.462 333 276.5C333 279.538 330.538 282 327.5 282H93.5C90.4624 282 88 279.538 88 276.5Z" fill="#FF2D55" fill-opacity="0.3"/>
<path d="M88 336.5C88 333.462 90.4624 331 93.5 331H223.5C226.538 331 229 333.462 229 336.5C229 339.538 226.538 342 223.5 342H93.5C90.4624 342 88 339.538 88 336.5Z" fill="#FF2D55" fill-opacity="0.3"/>
<path d="M88 296.5C88 293.462 90.4624 291 93.5 291H362.5C365.538 291 368 293.462 368 296.5C368 299.538 365.538 302 362.5 302H93.5C90.4624 302 88 299.538 88 296.5Z" fill="#FF2D55" fill-opacity="0.3"/>
<path d="M88 316.5C88 313.462 90.4624 311 93.5 311H362.5C365.538 311 368 313.462 368 316.5C368 319.538 365.538 322 362.5 322H93.5C90.4624 322 88 319.538 88 316.5Z" fill="#FF2D55" fill-opacity="0.6"/>
<defs>
<filter id="filter0_d_975_1663" x="0" y="0" width="617" height="440" filterUnits="userSpaceOnUse" color-interpolation-filters="sRGB">
<feFlood flood-opacity="0" result="BackgroundImageFix"/>
<feColorMatrix in="SourceAlpha" type="matrix" values="0 0 0 0 0 0 0 0 0 0 0 0 0 0 0 0 0 0 127 0" result="hardAlpha"/>
<feOffset dy="4"/>
<feGaussianBlur stdDeviation="12"/>
<feComposite in2="hardAlpha" operator="out"/>
<feColorMatrix type="matrix" values="0 0 0 0 0.431373 0 0 0 0 0.356863 0 0 0 0 0.721569 0 0 0 0.08 0"/>
<feBlend mode="normal" in2="BackgroundImageFix" result="effect1_dropShadow_975_1663"/>
<feBlend mode="normal" in="SourceGraphic" in2="effect1_dropShadow_975_1663" result="shape"/>
</filter>
</defs>
</svg>
