<svg width="617" height="440" viewBox="0 0 617 440" fill="none" xmlns="http://www.w3.org/2000/svg">
<g filter="url(#filter0_d_975_1412)">
<path d="M24 44C24 30.7452 34.7452 20 48 20H569C582.255 20 593 30.7452 593 44V388C593 401.255 582.255 412 569 412H48C34.7452 412 24 401.255 24 388V44Z" fill="white"/>
<path d="M48 20.5H569C581.979 20.5 592.5 31.0213 592.5 44V388C592.5 400.979 581.979 411.5 569 411.5H48C35.0213 411.5 24.5 400.979 24.5 388V44C24.5 31.0213 35.0213 20.5 48 20.5Z" stroke="#E9E1FF"/>
</g>
<mask id="path-3-inside-1_975_1412" fill="white">
<path d="M569 20C582.255 20 593 30.7452 593 44V57H24V44C24 30.7452 34.7452 20 48 20H569Z"/>
</mask>
<path d="M569 20C582.255 20 593 30.7452 593 44V57H24V44C24 30.7452 34.7452 20 48 20H569Z" fill="#E9E1FF"/>
<path d="M569 20V19V19V20ZM593 44H594H593ZM593 57V58H594V57H593ZM24 57H23V58H24V57ZM48 20V19V19V20ZM569 20V21C581.703 21 592 31.2975 592 44H593H594C594 30.1929 582.807 19 569 19V20ZM593 44H592V57H593H594V44H593ZM593 57V56H24V57V58H593V57ZM24 57H25V44H24H23V57H24ZM24 44H25C25 31.2975 35.2975 21 48 21V20V19C34.1929 19 23 30.1929 23 44H24ZM48 20V21H569V20V19H48V20Z" fill="#E9E1FF" mask="url(#path-3-inside-1_975_1412)"/>
<path d="M55.8877 44.4619C53.4707 44.4619 51.5264 42.5176 51.5264 40.1113C51.5264 37.7051 53.4707 35.75 55.8877 35.75C58.2832 35.75 60.2383 37.7051 60.2383 40.1113C60.2383 42.5176 58.2832 44.4619 55.8877 44.4619ZM68.252 44.4619C65.835 44.4619 63.8906 42.5176 63.8906 40.1113C63.8906 37.7051 65.835 35.75 68.252 35.75C70.6475 35.75 72.6025 37.7051 72.6025 40.1113C72.6025 42.5176 70.6475 44.4619 68.252 44.4619ZM80.6162 44.4619C78.1992 44.4619 76.2549 42.5176 76.2549 40.1113C76.2549 37.7051 78.1992 35.75 80.6162 35.75C83.0117 35.75 84.9668 37.7051 84.9668 40.1113C84.9668 42.5176 83.0117 44.4619 80.6162 44.4619ZM105.373 31.2812V42.0312H103.639V39.25H101.545V37.8594H103.639V36.2812H101.545V34.875H103.639V31.2812H105.373ZM101.467 32.8438V34.2344H93.5762V32.8438H96.7324V31.2656H98.4668V32.8438H101.467ZM97.5762 34.8125C99.498 34.8125 100.873 35.9375 100.889 37.5625C100.873 39.1875 99.498 40.3125 97.5762 40.3125C95.6699 40.3125 94.2949 39.1875 94.3105 37.5625C94.2949 35.9375 95.6699 34.8125 97.5762 34.8125ZM97.5762 36.1719C96.6074 36.1875 95.9199 36.7031 95.9355 37.5625C95.9199 38.4531 96.6074 38.9688 97.5762 38.9688C98.5449 38.9688 99.248 38.4531 99.248 37.5625C99.248 36.7031 98.5449 36.1875 97.5762 36.1719ZM105.686 43.7031V45.1094H96.0605V41.1094H97.8262V43.7031H105.686ZM112.701 35.2812C112.701 37.5938 114.061 40.0312 116.342 40.9844L115.389 42.3594C113.717 41.6406 112.498 40.1562 111.857 38.3594C111.201 40.2969 109.967 41.9219 108.311 42.7031L107.311 41.3438C109.545 40.3125 110.936 37.6875 110.936 35.2812V34.0938H107.826V32.6562H115.795V34.0938H112.701V35.2812ZM119.123 31.2656V45.3906H117.373V31.2656H119.123ZM132.373 31.2656V37.0938H134.357V38.5469H132.373V45.3906H130.623V31.2656H132.373ZM121.029 41.4688C122.1 41.4688 123.342 41.4688 124.639 41.4375V40.1094C123.1 39.8516 122.092 38.8828 122.107 37.5625C122.092 35.9688 123.498 34.9062 125.529 34.9062C127.529 34.9062 128.951 35.9688 128.967 37.5625C128.951 38.8906 127.928 39.8594 126.389 40.1094V41.375C127.576 41.3125 128.764 41.2188 129.873 41.0625L129.982 42.3281C126.951 42.875 123.686 42.9062 121.279 42.9062L121.029 41.4688ZM129.717 32.8906V34.2656H121.295V32.8906H124.639V31.3281H126.389V32.8906H129.717ZM125.529 36.2344C124.451 36.25 123.748 36.7344 123.748 37.5625C123.748 38.375 124.451 38.8594 125.529 38.8438C126.592 38.8594 127.295 38.375 127.295 37.5625C127.295 36.7344 126.592 36.25 125.529 36.2344ZM149.889 31.2656V36.7812H151.982V38.2344H149.889V45.3594H148.154V31.2656H149.889ZM146.154 32.7344C146.154 36.8906 144.436 40.5312 139.732 42.8438L138.748 41.5C142.186 39.7891 144.045 37.3828 144.404 34.1719H139.514V32.7344H146.154ZM164.404 31.2656V45.4062H162.654V31.2656H164.404ZM156.795 32.2969C158.92 32.2969 160.467 34.2344 160.482 37.2812C160.467 40.3594 158.92 42.2812 156.795 42.2812C154.654 42.2812 153.107 40.3594 153.107 37.2812C153.107 34.2344 154.654 32.2969 156.795 32.2969ZM156.795 33.8594C155.592 33.8594 154.779 35.125 154.779 37.2812C154.779 39.4531 155.592 40.7188 156.795 40.7188C157.982 40.7188 158.795 39.4531 158.795 37.2812C158.795 35.125 157.982 33.8594 156.795 33.8594ZM177.951 37.8906V39.2812H168.045V32.5H177.842V33.9062H169.764V37.8906H177.951ZM179.389 42.1562V43.5938H166.482V42.1562H179.389Z" fill="#6E5BB8"/>
<path d="M54 114C54 105.163 61.1634 98 70 98H546C554.837 98 562 105.163 562 114V357C562 365.837 554.837 373 546 373H70C61.1634 373 54 365.837 54 357V114Z" fill="#F3EEFF"/>
<path d="M103.76 110.871V120.277H102.242V117.844H100.41V116.627H102.242V115.246H100.41V114.016H102.242V110.871H103.76ZM100.342 112.238V113.455H93.4375V112.238H96.1992V110.857H97.7168V112.238H100.342ZM96.9375 113.961C98.6191 113.961 99.8223 114.945 99.8359 116.367C99.8223 117.789 98.6191 118.773 96.9375 118.773C95.2695 118.773 94.0664 117.789 94.0801 116.367C94.0664 114.945 95.2695 113.961 96.9375 113.961ZM96.9375 115.15C96.0898 115.164 95.4883 115.615 95.502 116.367C95.4883 117.146 96.0898 117.598 96.9375 117.598C97.7852 117.598 98.4004 117.146 98.4004 116.367C98.4004 115.615 97.7852 115.164 96.9375 115.15ZM104.033 121.74V122.971H95.6113V119.471H97.1562V121.74H104.033ZM110.172 114.371C110.172 116.395 111.361 118.527 113.357 119.361L112.523 120.564C111.061 119.936 109.994 118.637 109.434 117.064C108.859 118.76 107.779 120.182 106.33 120.865L105.455 119.676C107.41 118.773 108.627 116.477 108.627 114.371V113.332H105.906V112.074H112.879V113.332H110.172V114.371ZM115.791 110.857V123.217H114.26V110.857H115.791ZM127.385 110.857V115.957H129.121V117.229H127.385V123.217H125.854V110.857H127.385ZM117.459 119.785C118.396 119.785 119.482 119.785 120.617 119.758V118.596C119.271 118.37 118.389 117.522 118.402 116.367C118.389 114.973 119.619 114.043 121.396 114.043C123.146 114.043 124.391 114.973 124.404 116.367C124.391 117.529 123.495 118.377 122.148 118.596V119.703C123.188 119.648 124.227 119.566 125.197 119.43L125.293 120.537C122.641 121.016 119.783 121.043 117.678 121.043L117.459 119.785ZM125.061 112.279V113.482H117.691V112.279H120.617V110.912H122.148V112.279H125.061ZM121.396 115.205C120.453 115.219 119.838 115.643 119.838 116.367C119.838 117.078 120.453 117.502 121.396 117.488C122.326 117.502 122.941 117.078 122.941 116.367C122.941 115.643 122.326 115.219 121.396 115.205ZM142.711 110.857V115.684H144.543V116.955H142.711V123.189H141.193V110.857H142.711ZM139.443 112.143C139.443 115.779 137.939 118.965 133.824 120.988L132.963 119.812C135.971 118.315 137.598 116.21 137.912 113.4H133.633V112.143H139.443ZM155.412 110.857V123.23H153.881V110.857H155.412ZM148.754 111.76C150.613 111.76 151.967 113.455 151.98 116.121C151.967 118.814 150.613 120.496 148.754 120.496C146.881 120.496 145.527 118.814 145.527 116.121C145.527 113.455 146.881 111.76 148.754 111.76ZM148.754 113.127C147.701 113.127 146.99 114.234 146.99 116.121C146.99 118.021 147.701 119.129 148.754 119.129C149.793 119.129 150.504 118.021 150.504 116.121C150.504 114.234 149.793 113.127 148.754 113.127ZM167.266 116.654V117.871H158.598V111.938H167.17V113.168H160.102V116.654H167.266ZM168.523 120.387V121.645H157.23V120.387H168.523Z" fill="#6E5BB8"/>
<path d="M103.568 131.967V141.236H102.488V138.625H100.383V137.75H102.488V136.096H100.383V135.207H102.488V131.967H103.568ZM100.383 133.457V134.332H93.5059V133.457H96.459V131.953H97.5254V133.457H100.383ZM96.9785 135.002C98.6055 135.002 99.7539 135.932 99.7539 137.326C99.7539 138.707 98.6055 139.65 96.9785 139.65C95.3516 139.65 94.2168 138.707 94.2305 137.326C94.2168 135.932 95.3516 135.002 96.9785 135.002ZM96.9785 135.85C95.9395 135.863 95.2285 136.451 95.2285 137.326C95.2285 138.201 95.9395 138.789 96.9785 138.789C98.0176 138.789 98.7285 138.201 98.7422 137.326C98.7285 136.451 98.0176 135.863 96.9785 135.85ZM103.842 142.945V143.848H95.707V140.416H96.7871V142.945H103.842ZM109.939 135.686C109.939 137.75 111.443 139.842 113.234 140.621L112.633 141.469C111.211 140.819 109.98 139.418 109.42 137.736C108.846 139.521 107.622 141.072 106.234 141.77L105.592 140.922C107.328 140.088 108.846 137.791 108.859 135.686V134.1H105.988V133.211H112.838V134.1H109.939V135.686ZM115.613 131.953V144.107H114.533V131.953H115.613ZM131.227 132.336V133.184H129.354V135.535H131.186V136.369H122.285V135.535H124.117V133.184H122.244V132.336H131.227ZM132.279 137.395V138.256H121.205V137.395H132.279ZM130.857 139.35V141.988H123.639V143.15H131.227V143.971H122.572V141.209H129.805V140.156H122.545V139.35H130.857ZM125.184 135.535H128.287V133.184H125.184V135.535ZM143.627 131.967V140.252H142.602V136.041H140.893V139.199H139.895V132.199H140.893V135.152H142.602V131.967H143.627ZM138.445 132.91V136.314H134.904V138.133C136.504 138.126 137.728 138.051 139.17 137.764L139.293 138.625C137.721 138.939 136.436 138.994 134.658 138.994H133.865V135.494H137.42V133.799H133.838V132.91H138.445ZM140.1 139.992C140.1 141.592 142.15 142.891 144.283 143.219L143.846 144.053C142.041 143.745 140.305 142.815 139.566 141.455C138.828 142.815 137.092 143.745 135.287 144.053L134.85 143.219C136.969 142.891 139.02 141.592 139.033 139.992V139.678H140.1V139.992ZM156.479 138.092V138.967H145.404V138.092H150.395V136.684H146.484V135.795H148.316V133.238H146.443V132.35H155.426V133.238H153.553V135.795H155.385V136.684H151.461V138.092H156.479ZM155.125 140.143V143.943H146.758V140.143H155.125ZM147.824 140.977V143.068H154.072V140.977H147.824ZM149.383 135.795H152.486V133.238H149.383V135.795ZM167.922 131.953V144.107H166.883V131.953H167.922ZM165.475 132.213V143.492H164.449V137.586H162.891C162.774 139.951 161.77 141.428 160.266 141.428C158.68 141.428 157.654 139.787 157.654 137.203C157.654 134.619 158.68 132.979 160.266 132.979C161.742 132.979 162.74 134.407 162.877 136.697H164.449V132.213H165.475ZM160.266 133.99C159.281 133.99 158.652 135.221 158.666 137.203C158.652 139.172 159.281 140.416 160.266 140.402C161.25 140.416 161.879 139.172 161.879 137.203C161.879 135.221 161.25 133.99 160.266 133.99ZM179.256 132.787V137.982H173.637V132.787H179.256ZM174.689 133.662V137.107H178.217V133.662H174.689ZM182.619 131.953V134.879H184.451V135.781H182.619V138.898H181.553V131.953H182.619ZM182.838 139.609V140.484H179.393C179.509 141.783 181.32 142.918 183.303 143.232L182.906 144.066C181.129 143.772 179.516 142.891 178.818 141.674C178.128 142.897 176.528 143.766 174.758 144.053L174.348 143.232C176.357 142.918 178.135 141.804 178.271 140.484H174.826V139.609H182.838ZM195.047 135.645V136.506H186.721V132.404H187.787V135.645H195.047ZM196.332 138.16V139.035H185.203V138.16H196.332ZM195.115 142.918V143.807H186.652V140.279H187.719V142.918H195.115ZM210.906 131.967V140.881H209.826V136.219H207.324V135.33H209.826V131.967H210.906ZM211.248 142.945V143.848H203.1V140.074H204.18V142.945H211.248ZM205.055 134.469C205.055 136.041 206.271 137.572 208.049 138.174L207.488 139.035C206.114 138.543 205.055 137.518 204.535 136.26C204.009 137.661 202.888 138.782 201.445 139.322L200.885 138.447C202.676 137.818 203.975 136.219 203.975 134.469V133.84H201.227V132.951H207.775V133.84H205.055V134.469ZM224.264 133.908V134.797H222.432V136.451H224.264V137.354H222.432V139.35H221.365V131.967H222.432V133.908H224.264ZM218.959 132.691V136.041H214.529V137.805C216.689 137.805 218.255 137.729 220.148 137.408L220.258 138.297C218.303 138.625 216.676 138.693 214.42 138.693H213.477V135.193H217.906V133.566H213.449V132.691H218.959ZM222.432 139.992V144.107H221.365V140.867H214.475V139.992H222.432ZM237.949 131.953V136.902H239.918V137.805H237.949V144.107H236.883V131.953H237.949ZM234.805 133.266C234.805 136.711 233.191 139.842 229.227 141.797L228.625 140.949C231.77 139.384 233.479 137.046 233.725 134.168H229.186V133.266H234.805ZM250.664 131.953V144.135H249.584V131.953H250.664ZM244.197 132.896C246.002 132.91 247.301 134.551 247.301 137.135C247.301 139.719 246.002 141.359 244.197 141.359C242.379 141.359 241.094 139.719 241.094 137.135C241.094 134.551 242.379 132.91 244.197 132.896ZM244.197 133.854C242.98 133.867 242.133 135.152 242.133 137.135C242.133 139.117 242.98 140.402 244.197 140.402C245.414 140.402 246.262 139.117 246.262 137.135C246.262 135.152 245.414 133.867 244.197 133.854ZM262.559 137.805V138.693H254.164V133.088H262.436V133.977H255.23V137.805H262.559ZM263.871 141.551V142.453H252.742V141.551H263.871ZM278.746 131.953V144.107H277.721V131.953H278.746ZM276.285 132.254V143.479H275.273V137.217H273.223V136.342H275.273V132.254H276.285ZM271.924 135.426C271.924 137.531 272.867 139.623 274.549 140.594L273.893 141.387C272.696 140.669 271.849 139.356 271.432 137.805C270.987 139.479 270.105 140.908 268.889 141.674L268.205 140.867C269.9 139.855 270.885 137.641 270.885 135.426V134.277H268.547V133.389H274.152V134.277H271.924V135.426ZM285.951 139.637C288.562 139.637 290.217 140.457 290.217 141.865C290.217 143.26 288.562 144.08 285.951 144.08C283.354 144.08 281.699 143.26 281.699 141.865C281.699 140.457 283.354 139.637 285.951 139.637ZM285.951 140.457C284.01 140.471 282.752 141.004 282.766 141.865C282.752 142.713 284.01 143.232 285.951 143.232C287.893 143.232 289.137 142.713 289.15 141.865C289.137 141.004 287.893 140.471 285.951 140.457ZM290.121 132.582V133.607C290.121 134.592 290.121 135.576 289.779 136.834L288.727 136.711C289.055 135.453 289.055 134.564 289.055 133.607V133.457H281.781V132.582H290.121ZM291.529 137.627V138.502H280.469V137.627H285.049V135.275H286.102V137.627H291.529Z" fill="#A89BD4"/>
<path d="M445.381 134V125.516H448.568C450.514 125.516 451.557 126.699 451.557 128.328C451.557 129.957 450.502 131.129 448.545 131.129H446.904V134H445.381ZM446.904 129.875H448.334C449.482 129.875 449.998 129.23 449.998 128.328C449.998 127.414 449.482 126.793 448.334 126.793H446.904V129.875ZM455.67 134H452.787V125.516H455.717C458.248 125.516 459.783 127.109 459.783 129.746C459.783 132.395 458.248 134 455.67 134ZM454.311 132.676H455.588C457.357 132.676 458.26 131.703 458.26 129.746C458.26 127.801 457.357 126.84 455.635 126.84H454.311V132.676ZM461.131 134V125.516H466.568V126.793H462.654V129.113H466.193V130.391H462.654V134H461.131ZM478.568 124.449V128.469H480.197V129.535H478.568V135.055H477.268V124.449H478.568ZM475.662 125.457V126.512H472.006V131.375C473.652 131.375 474.953 131.293 476.412 131.035L476.564 132.137C474.924 132.418 473.494 132.465 471.584 132.465H470.705V125.457H475.662ZM490.311 129.688V130.73H486.221V132.676H484.896V130.73H480.631V129.688H490.311ZM489.244 133.766V134.832H481.814V131.691H483.127V133.766H489.244ZM485.459 124.684C487.744 124.684 489.256 125.516 489.256 126.852C489.256 128.188 487.744 129.008 485.459 129.008C483.174 129.008 481.662 128.188 481.662 126.852C481.662 125.516 483.174 124.684 485.459 124.684ZM485.459 125.715C484.006 125.715 483.057 126.125 483.068 126.852C483.057 127.555 484.006 127.965 485.459 127.965C486.924 127.965 487.861 127.555 487.861 126.852C487.861 126.125 486.924 125.715 485.459 125.715ZM500.693 132.734V133.812H491.014V132.734H495.186V131.012H492.162V127.543H498.256V126.23H492.139V125.176H499.545V128.574H493.463V129.945H499.791V131.012H496.475V132.734H500.693ZM509.986 129.418V130.461H502.557V125.375H509.904V126.43H503.846V129.418H509.986ZM511.064 132.617V133.695H501.385V132.617H511.064Z" fill="#A89BD4"/>
<path d="M426 130C426 122.82 431.82 117 439 117H518C525.18 117 531 122.82 531 130C531 137.18 525.18 143 518 143H439C431.82 143 426 137.18 426 130Z" fill="#A89BD4" fill-opacity="0.3"/>
<defs>
<filter id="filter0_d_975_1412" x="0" y="0" width="617" height="440" filterUnits="userSpaceOnUse" color-interpolation-filters="sRGB">
<feFlood flood-opacity="0" result="BackgroundImageFix"/>
<feColorMatrix in="SourceAlpha" type="matrix" values="0 0 0 0 0 0 0 0 0 0 0 0 0 0 0 0 0 0 127 0" result="hardAlpha"/>
<feOffset dy="4"/>
<feGaussianBlur stdDeviation="12"/>
<feComposite in2="hardAlpha" operator="out"/>
<feColorMatrix type="matrix" values="0 0 0 0 0.431373 0 0 0 0 0.356863 0 0 0 0 0.721569 0 0 0 0.08 0"/>
<feBlend mode="normal" in2="BackgroundImageFix" result="effect1_dropShadow_975_1412"/>
<feBlend mode="normal" in="SourceGraphic" in2="effect1_dropShadow_975_1412" result="shape"/>
</filter>
</defs>
</svg>
