<svg width="617" height="440" viewBox="0 0 617 440" fill="none" xmlns="http://www.w3.org/2000/svg">
<g filter="url(#filter0_d_975_1721)">
<path d="M24 44C24 30.7452 34.7452 20 48 20H569C582.255 20 593 30.7452 593 44V388C593 401.255 582.255 412 569 412H48C34.7452 412 24 401.255 24 388V44Z" fill="white"/>
<path d="M48 20.5H569C581.979 20.5 592.5 31.0213 592.5 44V388C592.5 400.979 581.979 411.5 569 411.5H48C35.0213 411.5 24.5 400.979 24.5 388V44C24.5 31.0213 35.0213 20.5 48 20.5Z" stroke="#E9E1FF"/>
</g>
<mask id="path-3-inside-1_975_1721" fill="white">
<path d="M569 20C582.255 20 593 30.7452 593 44V57H24V44C24 30.7452 34.7452 20 48 20H569Z"/>
</mask>
<path d="M569 20C582.255 20 593 30.7452 593 44V57H24V44C24 30.7452 34.7452 20 48 20H569Z" fill="#E9E1FF"/>
<path d="M569 20V19V19V20ZM593 44H594H593ZM593 57V58H594V57H593ZM24 57H23V58H24V57ZM48 20V19V19V20ZM569 20V21C581.703 21 592 31.2975 592 44H593H594C594 30.1929 582.807 19 569 19V20ZM593 44H592V57H593H594V44H593ZM593 57V56H24V57V58H593V57ZM24 57H25V44H24H23V57H24ZM24 44H25C25 31.2975 35.2975 21 48 21V20V19C34.1929 19 23 30.1929 23 44H24ZM48 20V21H569V20V19H48V20Z" fill="#E9E1FF" mask="url(#path-3-inside-1_975_1721)"/>
<path d="M55.8877 44.4619C53.4707 44.4619 51.5264 42.5176 51.5264 40.1113C51.5264 37.7051 53.4707 35.75 55.8877 35.75C58.2832 35.75 60.2383 37.7051 60.2383 40.1113C60.2383 42.5176 58.2832 44.4619 55.8877 44.4619ZM68.252 44.4619C65.835 44.4619 63.8906 42.5176 63.8906 40.1113C63.8906 37.7051 65.835 35.75 68.252 35.75C70.6475 35.75 72.6025 37.7051 72.6025 40.1113C72.6025 42.5176 70.6475 44.4619 68.252 44.4619ZM80.6162 44.4619C78.1992 44.4619 76.2549 42.5176 76.2549 40.1113C76.2549 37.7051 78.1992 35.75 80.6162 35.75C83.0117 35.75 84.9668 37.7051 84.9668 40.1113C84.9668 42.5176 83.0117 44.4619 80.6162 44.4619ZM105.732 31.2656V45.3906H104.045V38.1875H102.529V44.7344H100.92V31.5938H102.529V36.7812H104.045V31.2656H105.732ZM99.8574 32.9375C99.8418 36.8281 98.8105 40.1875 94.5605 42.5938L93.5449 41.3594C95.5059 40.2578 96.709 38.9688 97.4043 37.4844L93.8418 37.875L93.623 36.3906L97.873 36.1406C98.0215 35.5703 98.1152 34.9688 98.1699 34.3438H94.3574V32.9375H99.8574ZM119.139 31.2812V39.9219H117.389V31.2812H119.139ZM119.139 40.5781V45.3906H117.389V42H109.498V40.5781H119.139ZM114.607 32.0781V36.2656H109.826V37.8438C112.248 37.8359 113.959 37.7578 115.982 37.4531L116.201 38.8438C113.967 39.2031 112.061 39.2656 109.326 39.2656H108.123V34.9219H112.889V33.4844H108.092V32.0781H114.607ZM133.045 31.2656V45.4062H131.326V37.7812H128.67V36.375H131.326V31.2656H133.045ZM128.451 32.4844V33.9062H123.592V36.4375H127.889V37.8125H123.592V40.7188C125.74 40.7109 127.35 40.6406 129.17 40.3438L129.342 41.75C127.279 42.0625 125.482 42.1406 122.951 42.1562H121.842V32.4844H128.451ZM146.717 32.3125V33.1562C146.701 34.125 146.701 35.5156 146.373 37.3125L144.654 37.1562C144.928 35.6953 144.982 34.6172 145.014 33.75H139.514V32.3125H146.717ZM143.154 35.5312V38.3438C144.615 38.2891 146.115 38.1797 147.482 37.9844L147.576 39.2344C144.639 39.7656 141.311 39.8125 138.826 39.8281L138.67 38.4375C139.506 38.4297 140.443 38.4219 141.436 38.4062V35.5312H143.154ZM150.092 31.2656V35.6719H151.92V37.125H150.092V41.8438H148.311V31.2656H150.092ZM150.545 43.7031V45.1094H140.779V40.9062H142.529V43.7031H150.545ZM164.842 31.2656V45.3906H163.186V31.2656H164.842ZM161.92 31.6094V44.7188H160.264V40H158.061V38.5781H160.264V36.4844H158.311C157.646 38.8281 156.17 40.8438 153.529 42.4062L152.514 41.1719C155.443 39.4453 156.787 37.2344 157.045 34.3906H153.264V32.9844H158.764C158.764 33.6953 158.717 34.3906 158.623 35.0625H160.264V31.6094H161.92ZM177.951 37.6875V39.0625H173.764V42.2969H179.389V43.7188H166.482V42.2969H172.045V39.0625H168.045V32.3125H177.842V33.7031H169.779V37.6875H177.951Z" fill="#6E5BB8"/>
<path d="M59 111C59 102.163 66.1634 95 75 95H200C208.837 95 216 102.163 216 111V200C216 208.837 208.837 216 200 216H75C66.1634 216 59 208.837 59 200V111Z" fill="#F3EEFF"/>
<path d="M79.8398 114.004C79.8398 115.521 80.8242 117.025 82.7656 117.668L82 118.844C80.6191 118.386 79.6348 117.456 79.1016 116.301C78.5479 117.565 77.5225 118.57 76.0801 119.062L75.2734 117.887C77.2695 117.23 78.3086 115.631 78.3086 114.004V113.854H75.6973V112.637H82.4102V113.854H79.8398V114.004ZM85.1582 111.857V114.947H86.8809V116.219H85.1582V119.309H83.6406V111.857H85.1582ZM85.1582 119.883V124.217H83.6406V121.1H76.9277V119.883H85.1582ZM98.7754 117.709V118.926H93.8809V120.115H97.4082V124.066H88.8359V120.115H92.377V118.926H87.5098V117.709H98.7754ZM97.7363 112.227V113.443H96.041V115.562H97.668V116.793H88.5898V115.562H90.2168V113.443H88.5215V112.227H97.7363ZM90.3398 121.291V122.836H95.9316V121.291H90.3398ZM91.7344 115.562H94.5098V113.443H91.7344V115.562ZM107.43 114.045C107.43 115.686 108.414 117.285 110.328 117.941L109.494 119.131C108.161 118.625 107.204 117.661 106.691 116.451C106.151 117.805 105.146 118.878 103.697 119.418L102.891 118.215C104.873 117.545 105.885 115.836 105.898 114.031V112.623H107.43V114.045ZM113.281 111.871V121.045H111.764V115.836H109.303V114.592H111.764V111.871H113.281ZM113.555 122.74V123.971H105.133V120.047H106.678V122.74H113.555ZM120.35 112.719V113.936H116.959V115.139H120.227V116.301H116.959V117.6C118.47 117.586 119.516 117.524 120.719 117.299L120.883 118.529C119.434 118.803 118.23 118.844 116.316 118.844H115.496V112.719H120.35ZM125.6 111.871V119.391H124.15V116.178H122.865V119.295H121.443V112.104H122.865V114.961H124.15V111.871H125.6ZM125.6 119.938V124.217H124.082V121.168H117.137V119.938H125.6Z" fill="#6E5BB8"/>
<path d="M75 150C75 145.582 78.5817 142 83 142H192C196.418 142 200 145.582 200 150V181C200 185.418 196.418 189 192 189H83C78.5817 189 75 185.418 75 181V150Z" fill="#A89BD4" fill-opacity="0.3"/>
<rect x="242" y="95" width="316" height="282" rx="16" fill="#F3EEFF"/>
<path d="M266.588 114.154C266.588 115.494 267.367 116.834 268.994 117.449L268.188 118.611C267.087 118.188 266.321 117.401 265.877 116.438C265.426 117.545 264.619 118.488 263.443 118.98L262.623 117.818C264.318 117.066 265.111 115.521 265.125 114.154V112.623H266.588V114.154ZM273.301 111.871V119.445H271.852V116.232H270.621V119.062H269.199V112.104H270.621V114.988H271.852V111.871H273.301ZM269.131 119.65C271.715 119.65 273.355 120.498 273.369 121.92C273.355 123.342 271.715 124.203 269.131 124.203C266.52 124.203 264.893 123.342 264.893 121.92C264.893 120.498 266.52 119.65 269.131 119.65ZM269.131 120.799C267.422 120.799 266.41 121.195 266.41 121.92C266.41 122.658 267.422 123.041 269.131 123.041C270.826 123.041 271.838 122.658 271.838 121.92C271.838 121.195 270.826 120.799 269.131 120.799ZM279.357 113.635C279.344 115.316 280.328 116.848 282.27 117.463L281.449 118.652C280.103 118.181 279.159 117.285 278.633 116.109C278.086 117.456 277.054 118.516 275.557 119.035L274.75 117.805C276.801 117.135 277.826 115.48 277.826 113.703V112.527H279.357V113.635ZM285.182 111.857V119.131H283.664V115.494H281.203V114.25H283.664V111.857H285.182ZM280.998 119.459C283.623 119.459 285.223 120.334 285.223 121.838C285.223 123.342 283.623 124.203 280.998 124.203C278.387 124.203 276.787 123.342 276.801 121.838C276.787 120.334 278.387 119.459 280.998 119.459ZM280.998 120.635C279.275 120.635 278.305 121.059 278.305 121.838C278.305 122.59 279.275 123.014 280.998 123.014C282.721 123.014 283.705 122.59 283.705 121.838C283.705 121.059 282.721 120.635 280.998 120.635ZM294.123 115.74V116.957H291.826V118.352C292.858 118.311 293.884 118.242 294.848 118.146L294.957 119.24C292.332 119.609 289.488 119.678 287.191 119.678L286.986 118.461C288.005 118.454 289.133 118.447 290.295 118.406V116.957H288.053V112.623H294.027V113.854H289.584V115.74H294.123ZM297.24 111.857V121.141H295.709V111.857H297.24ZM297.596 122.74V123.971H288.955V120.457H290.486V122.74H297.596ZM309.258 112.773V113.512C309.244 114.359 309.244 115.576 308.957 117.148L307.453 117.012C307.692 115.733 307.74 114.79 307.768 114.031H302.955V112.773H309.258ZM306.141 115.59V118.051C307.419 118.003 308.731 117.907 309.928 117.736L310.01 118.83C307.439 119.295 304.527 119.336 302.354 119.35L302.217 118.133C302.948 118.126 303.769 118.119 304.637 118.105V115.59H306.141ZM312.211 111.857V115.713H313.811V116.984H312.211V121.113H310.652V111.857H312.211ZM312.607 122.74V123.971H304.062V120.293H305.594V122.74H312.607ZM325.117 111.857V124.217H323.668V111.857H325.117ZM322.561 112.158V123.629H321.111V119.5H319.184V118.256H321.111V116.424H319.402C318.821 118.475 317.529 120.238 315.219 121.605L314.33 120.525C316.894 119.015 318.069 117.08 318.295 114.592H314.986V113.361H319.799C319.799 113.983 319.758 114.592 319.676 115.18H321.111V112.158H322.561ZM336.588 117.477V118.68H332.924V121.51H337.846V122.754H326.553V121.51H331.42V118.68H327.92V112.773H336.492V113.99H329.438V117.477H336.588Z" fill="#6E5BB8"/>
<path d="M264 150C264 145.582 267.582 142 272 142H528C532.418 142 536 145.582 536 150V343C536 347.418 532.418 351 528 351H272C267.582 351 264 347.418 264 343V150Z" fill="#A89BD4" fill-opacity="0.3"/>
<path d="M476 233.125H447.875V226.182L416.366 247.188L447.875 268.193V261.25H476V289.375H447.875V274.961L414.125 252.461V261.25H386V233.125H414.125V241.914L447.875 219.414V205H476V233.125ZM453.5 266.875V283.75H470.375V266.875H453.5ZM408.5 255.625V238.75H391.625V255.625H408.5ZM453.5 210.625V227.5H470.375V210.625H453.5Z" fill="#A89BD4"/>
<g clip-path="url(#clip0_975_1721)">
<path d="M324 260.875L352.125 260.875L352.125 267.818L383.634 246.813L352.125 225.807L352.125 232.75L324 232.75L324 204.625L352.125 204.625L352.125 219.039L385.875 241.539L385.875 232.75L414 232.75L414 260.875L385.875 260.875L385.875 252.086L352.125 274.586L352.125 289L324 289L324 260.875ZM346.5 227.125L346.5 210.25L329.625 210.25L329.625 227.125L346.5 227.125ZM391.5 238.375L391.5 255.25L408.375 255.25L408.375 238.375L391.5 238.375ZM346.5 283.375L346.5 266.5L329.625 266.5L329.625 283.375L346.5 283.375Z" fill="#A89BD4"/>
</g>
<defs>
<filter id="filter0_d_975_1721" x="0" y="0" width="617" height="440" filterUnits="userSpaceOnUse" color-interpolation-filters="sRGB">
<feFlood flood-opacity="0" result="BackgroundImageFix"/>
<feColorMatrix in="SourceAlpha" type="matrix" values="0 0 0 0 0 0 0 0 0 0 0 0 0 0 0 0 0 0 127 0" result="hardAlpha"/>
<feOffset dy="4"/>
<feGaussianBlur stdDeviation="12"/>
<feComposite in2="hardAlpha" operator="out"/>
<feColorMatrix type="matrix" values="0 0 0 0 0.431373 0 0 0 0 0.356863 0 0 0 0 0.721569 0 0 0 0.08 0"/>
<feBlend mode="normal" in2="BackgroundImageFix" result="effect1_dropShadow_975_1721"/>
<feBlend mode="normal" in="SourceGraphic" in2="effect1_dropShadow_975_1721" result="shape"/>
</filter>
<clipPath id="clip0_975_1721">
<rect width="90" height="90" fill="white" transform="translate(414 289) rotate(180)"/>
</clipPath>
</defs>
</svg>
