<svg width="40" height="40" viewBox="0 0 40 40" fill="none" xmlns="http://www.w3.org/2000/svg">
<path d="M29.5383 6.81523C30.3008 6.44648 30.8289 5.66836 30.8289 4.76523C30.8289 4.16187 30.5892 3.58321 30.1626 3.15657C29.7359 2.72992 29.1573 2.49023 28.5539 2.49023C27.9505 2.49023 27.3719 2.72992 26.9452 3.15657C26.5186 3.58321 26.2789 4.16187 26.2789 4.76523C26.2789 5.68086 26.8195 6.46523 27.5977 6.82773C26.6977 11.7027 25.3164 15.3309 20.1758 16.1059C20.1758 16.1059 21.5602 23.0277 28.0352 23.0277C34.5102 23.0277 35.1664 16.1746 35.1664 16.1746C29.9133 16.4434 29.4695 9.84023 29.5383 6.81523Z" fill="#F19534"/>
<path d="M10.8555 6.81523C10.093 6.44648 9.56484 5.66836 9.56484 4.76523C9.56484 4.16187 9.80453 3.58321 10.2312 3.15657C10.6578 2.72992 11.2365 2.49023 11.8398 2.49023C12.4432 2.49023 13.0219 2.72992 13.4485 3.15657C13.8752 3.58321 14.1148 4.16187 14.1148 4.76523C14.1148 5.68086 13.5742 6.46523 12.7961 6.82773C13.6961 11.7027 15.0773 15.3309 20.218 16.1059C20.218 16.1059 18.8336 23.0277 12.3586 23.0277C5.88359 23.0277 5.23047 16.1777 5.23047 16.1777C10.4805 16.4434 10.9242 9.84023 10.8555 6.81523Z" fill="#F19534"/>
<path d="M27.9473 23.0277C27.9754 23.0277 28.0035 23.0309 28.0316 23.0309C29.816 23.0309 31.1566 22.509 32.1629 21.7559L27.9473 23.0277Z" fill="#FFCA28"/>
<path d="M37.2618 5.26916C36.2211 5.12854 35.2274 6.11916 35.0461 7.47541C34.9336 8.32228 35.1618 9.11291 35.6024 9.62228L34.8524 12.7317C34.8524 12.7317 33.7055 20.0785 27.9118 21.5285C23.2805 22.6879 21.6024 14.2098 21.1961 11.591C22.0774 11.1535 22.6868 10.2473 22.6868 9.19416C22.6868 7.71603 21.4899 6.51916 20.0118 6.51916C18.5336 6.51916 17.3368 7.71603 17.3368 9.19416C17.3368 10.2535 17.9555 11.1692 18.8524 11.6004C18.5305 14.1848 17.1118 22.3817 12.1118 21.5254C7.03675 20.6535 4.82113 12.1067 4.30863 9.78166C4.918 9.28166 5.25863 8.40041 5.13363 7.45353C4.95238 6.09416 3.87738 5.11916 2.73363 5.27229C1.58988 5.42541 0.811753 6.65041 0.993003 8.00666C1.12425 8.99416 1.7305 9.77853 2.48988 10.0754L6.46488 34.7723C6.46488 34.7723 9.93363 37.5129 20.0118 37.5129C30.0899 37.5129 33.5586 34.7723 33.5586 34.7723L37.543 10.0098C38.1868 9.67228 38.693 8.91291 38.818 7.98166C39.0024 6.62229 38.3055 5.40979 37.2618 5.26916Z" fill="#FFCA28"/>
<path d="M20.1375 31.2221C21.8185 31.2221 23.1812 29.5977 23.1812 27.5939C23.1812 25.5902 21.8185 23.9658 20.1375 23.9658C18.4565 23.9658 17.0938 25.5902 17.0938 27.5939C17.0938 29.5977 18.4565 31.2221 20.1375 31.2221Z" fill="#26A69A"/>
<path d="M20.1378 24.8625C20.2566 24.9938 20.3628 25.2344 20.1378 25.7032C19.9128 26.1719 18.7003 26.8063 18.4784 26.9344C18.2566 27.0657 18.1097 27.0063 18.0409 26.9532C17.7128 26.6907 17.8378 26.0969 18.0503 25.7344C18.5066 24.95 19.4722 24.1407 20.1378 24.8625Z" fill="#69F0AE"/>
<path d="M19.9125 28.9466C19.5688 29.1122 18.4407 29.6154 18.8125 30.2122C19.0313 30.5654 19.4844 30.7154 19.9 30.7341C20.3157 30.7529 20.725 30.6216 21.0938 30.431C22.8438 29.5247 22.9844 27.1435 22.6438 26.9622C22.2938 26.7747 22.0563 27.2591 21.875 27.4654C21.3237 28.0824 20.6571 28.5856 19.9125 28.9466Z" fill="#00796B"/>
<path d="M36.9038 24.6251C37.3913 21.9282 35.5788 21.2532 35.5788 21.2532C35.5788 21.2532 34.4101 21.0407 33.8601 24.0751C33.3101 27.1063 34.4788 27.3188 34.4788 27.3188C34.4788 27.3188 36.4132 27.322 36.9038 24.6251Z" fill="#26A69A"/>
<path d="M36.0976 22.1749C36.5226 22.7436 36.0194 23.5842 35.2038 24.1436C34.9632 24.3092 34.6444 24.2467 34.5976 24.1092C34.4663 23.7155 34.5226 23.2686 34.6976 22.8905C35.2163 21.7561 35.8819 21.8874 36.0976 22.1749Z" fill="#69F0AE"/>
<path d="M3.05092 24.7061C2.56029 22.0124 4.37592 21.3343 4.37592 21.3343C4.37592 21.3343 5.54467 21.1218 6.09467 24.1561C6.64467 27.1874 5.47592 27.3999 5.47592 27.3999C5.47592 27.3999 3.53842 27.403 3.05092 24.7061Z" fill="#26A69A"/>
<path d="M4.93188 22.2504C5.35063 22.5629 5.17876 22.9723 4.86313 23.2567C4.50376 23.5848 4.22876 23.9442 3.92251 24.316C3.87563 24.3723 3.82251 24.4348 3.74751 24.4504C3.60376 24.4817 3.48813 24.3348 3.44126 24.1942C3.30688 23.8004 3.33188 23.3379 3.53188 22.9754C4.10063 21.941 4.76938 22.1285 4.93188 22.2504Z" fill="#69F0AE"/>
<path d="M31.247 27.2372C31.0313 28.4653 30.047 29.3185 29.0438 29.1435C28.0407 28.9685 27.9032 27.9216 28.1188 26.6935C28.3345 25.4653 28.8188 24.5247 29.8188 24.6997C30.822 24.8747 31.4626 26.0122 31.247 27.2372ZM9.50946 27.2372C9.72508 28.4653 10.7095 29.3185 11.7126 29.1435C12.7157 28.9685 12.8532 27.9216 12.6376 26.6935C12.422 25.4653 11.9376 24.5247 10.9376 24.6997C9.93758 24.8747 9.29696 26.0122 9.50946 27.2372Z" fill="#F44336"/>
<path d="M10.9628 26.4185C10.7347 26.6747 10.1785 27.1904 9.98158 26.7966C9.71283 26.2591 10.0847 25.4466 10.5097 25.1779C10.9347 24.9091 11.2816 25.1216 11.341 25.3622C11.4128 25.6685 11.166 26.1872 10.9628 26.4185ZM28.7441 27.2029C28.4347 27.156 28.4003 26.0904 29.2316 25.2529C29.6285 24.8529 30.1972 25.3279 30.0535 25.9685C29.916 26.5779 29.3097 27.2904 28.7441 27.2029Z" fill="#FFA8A4"/>
<path d="M34.1094 30.6904C32.2375 31.6279 27.9438 34.1248 20.0156 34.1248C12.0875 34.1248 7.79375 31.6279 5.92188 30.6904C5.92188 30.6904 5.25 31.0498 5.25 31.4248V34.3029C5.25 34.6873 5.45313 35.0404 5.78438 35.2373C7.24688 36.0998 11.7031 38.1373 20.0187 38.1373C28.3344 38.1373 32.7906 36.0998 34.2531 35.2373C34.4156 35.1413 34.5503 35.0047 34.644 34.8409C34.7377 34.677 34.7872 34.4917 34.7875 34.3029V31.4248C34.7813 31.0498 34.1094 30.6904 34.1094 30.6904Z" fill="#FFCA28"/>
<path d="M12.3758 34.6378C13.2508 34.8097 13.5164 34.8847 13.457 35.3722C13.3352 36.3316 11.3445 36.1035 10.1664 35.7941C7.73203 35.1535 7.23828 34.4785 7.23828 33.8753C7.23828 33.3222 7.66328 33.2566 8.31953 33.4878C9.10391 33.766 10.3164 34.2347 12.3758 34.6378Z" fill="#FFF59D"/>
<path d="M34.1094 31.3223C34.1094 31.3223 28.9313 34.2535 20.0156 34.2535C11.1 34.2535 5.92188 31.3223 5.92188 31.3223" stroke="#F19534" stroke-width="0.5" stroke-miterlimit="10" stroke-linecap="round"/>
<path d="M8.42759 15.4904C10.0901 14.3029 10.9838 12.1747 11.062 8.78724C11.0682 8.48099 11.1557 8.39037 11.3213 8.37162C11.587 8.34349 11.6307 8.58412 11.6276 8.75599C11.5526 12.4122 11.087 14.6966 9.24322 15.9841C9.15259 16.0466 8.50572 16.4404 8.23072 16.1685C7.9026 15.8497 8.32134 15.5654 8.42759 15.4904ZM9.94947 4.85599C9.89634 4.29037 10.0276 3.27162 11.512 2.80912C11.9463 2.67474 12.2151 2.88724 12.2651 3.05287C12.3901 3.46537 12.0276 3.62787 11.862 3.68099C10.7213 4.04974 10.6651 4.61849 10.4307 4.98099C10.1963 5.34349 9.96822 5.02787 9.94947 4.85599ZM24.4432 14.7404C25.9463 13.406 26.9432 11.9154 27.5995 8.52162C27.6588 8.22162 27.7463 8.14037 27.9088 8.14662C28.1745 8.15287 28.187 8.39974 28.1588 8.56849C27.6026 12.1872 27.0745 13.2185 25.2213 15.2716C25.012 15.5029 24.5026 15.7122 24.2151 15.4716C23.9557 15.256 24.2557 14.9091 24.4432 14.7404ZM26.6557 4.88412C26.6026 4.31849 26.7338 3.29974 28.2182 2.83724C28.6526 2.70287 28.9213 2.91537 28.9713 3.08099C29.0963 3.49349 28.7338 3.65599 28.5682 3.70912C27.4276 4.07787 27.3713 4.64662 27.137 5.00912C26.9057 5.37162 26.6745 5.05599 26.6557 4.88412Z" fill="#FFCA28"/>
<path d="M9.87265 22.3813C6.2414 20.7344 5.17265 16.4375 4.6039 14.5719C4.5289 14.325 4.5664 14.0906 4.81327 14.0156C5.06015 13.9406 5.20702 14.1 5.28515 14.3469C5.69765 15.7 7.30077 20.2188 10.6101 21.5031C10.8508 21.5969 11.2258 21.825 11.0226 22.2156C10.8883 22.4688 10.457 22.6469 9.87265 22.3813ZM3.96327 7.69688C3.78827 7.33438 3.7164 6.99063 2.76327 6.59375C2.52265 6.49375 2.36327 6.27188 2.4289 6.02188C2.49452 5.77188 2.74452 5.58438 3.10702 5.64688C4.28515 5.85 4.5414 7.04688 4.5914 7.4625C4.63827 7.8625 4.1414 8.05938 3.96327 7.69688ZM30.2726 22.3813C33.9039 20.7344 34.9726 16.4375 35.5414 14.5719C35.6164 14.325 35.5789 14.0906 35.332 14.0156C35.0851 13.9406 34.9383 14.1 34.8601 14.3469C34.4476 15.7 32.8445 20.2188 29.5351 21.5031C29.2945 21.5969 28.9195 21.825 29.1226 22.2156C29.257 22.4688 29.6883 22.6469 30.2726 22.3813ZM36.182 7.69688C36.357 7.33438 36.4289 6.99063 37.382 6.59375C37.6227 6.49375 37.782 6.27188 37.7164 6.02188C37.6508 5.77188 37.4008 5.58438 37.0383 5.64688C35.8601 5.85 35.6039 7.04688 35.5539 7.4625C35.507 7.8625 36.007 8.05938 36.182 7.69688ZM18.557 9.23438C18.7476 8.84375 19.082 8.30938 20.1726 8.08438C20.5914 7.99688 20.7133 7.81563 20.6758 7.54063C20.6008 6.96875 19.8883 7.00938 19.5039 7.1C18.2226 7.4 17.9383 8.5375 17.8851 8.9875C17.832 9.41563 18.3695 9.625 18.557 9.23438Z" fill="#FFF59D"/>
</svg>
