<svg width="95" height="95" viewBox="0 0 95 95" fill="none" xmlns="http://www.w3.org/2000/svg">
<g filter="url(#filter0_d_975_7444)">
<path d="M52.0025 48.5C52.0038 48.7039 51.9419 48.9031 51.8252 49.0703C51.7086 49.2375 51.543 49.3645 51.3513 49.4338L48.1275 50.625L46.94 53.8512C46.8697 54.0423 46.7425 54.2072 46.5755 54.3236C46.4085 54.4401 46.2099 54.5025 46.0063 54.5025C45.8027 54.5025 45.604 54.4401 45.4371 54.3236C45.2701 54.2072 45.1429 54.0423 45.0725 53.8512L43.8775 50.625L40.6513 49.4375C40.4602 49.3672 40.2954 49.2399 40.1789 49.073C40.0624 48.906 40 48.7073 40 48.5037C40 48.3002 40.0624 48.1015 40.1789 47.9345C40.2954 47.7676 40.4602 47.6403 40.6513 47.57L43.8775 46.375L45.065 43.1488C45.1354 42.9577 45.2626 42.7928 45.4296 42.6764C45.5965 42.5599 45.7952 42.4975 45.9988 42.4975C46.2024 42.4975 46.401 42.5599 46.568 42.6764C46.735 42.7928 46.8622 42.9577 46.9325 43.1488L48.1275 46.375L51.3538 47.5625C51.5457 47.6324 51.7111 47.7601 51.8274 47.928C51.9436 48.0959 52.0048 48.2958 52.0025 48.5ZM48.5025 42.5H49.5025V43.5C49.5025 43.6326 49.5552 43.7598 49.649 43.8536C49.7428 43.9473 49.8699 44 50.0025 44C50.1351 44 50.2623 43.9473 50.3561 43.8536C50.4499 43.7598 50.5025 43.6326 50.5025 43.5V42.5H51.5025C51.6351 42.5 51.7623 42.4473 51.8561 42.3536C51.9499 42.2598 52.0025 42.1326 52.0025 42C52.0025 41.8674 51.9499 41.7402 51.8561 41.6464C51.7623 41.5527 51.6351 41.5 51.5025 41.5H50.5025V40.5C50.5025 40.3674 50.4499 40.2402 50.3561 40.1464C50.2623 40.0527 50.1351 40 50.0025 40C49.8699 40 49.7428 40.0527 49.649 40.1464C49.5552 40.2402 49.5025 40.3674 49.5025 40.5V41.5H48.5025C48.3699 41.5 48.2428 41.5527 48.149 41.6464C48.0552 41.7402 48.0025 41.8674 48.0025 42C48.0025 42.1326 48.0552 42.2598 48.149 42.3536C48.2428 42.4473 48.3699 42.5 48.5025 42.5ZM54.0025 44.5H53.5025V44C53.5025 43.8674 53.4499 43.7402 53.3561 43.6464C53.2623 43.5527 53.1351 43.5 53.0025 43.5C52.8699 43.5 52.7428 43.5527 52.649 43.6464C52.5552 43.7402 52.5025 43.8674 52.5025 44V44.5H52.0025C51.8699 44.5 51.7428 44.5527 51.649 44.6464C51.5552 44.7402 51.5025 44.8674 51.5025 45C51.5025 45.1326 51.5552 45.2598 51.649 45.3536C51.7428 45.4473 51.8699 45.5 52.0025 45.5H52.5025V46C52.5025 46.1326 52.5552 46.2598 52.649 46.3536C52.7428 46.4473 52.8699 46.5 53.0025 46.5C53.1351 46.5 53.2623 46.4473 53.3561 46.3536C53.4499 46.2598 53.5025 46.1326 53.5025 46V45.5H54.0025C54.1351 45.5 54.2623 45.4473 54.3561 45.3536C54.4499 45.2598 54.5025 45.1326 54.5025 45C54.5025 44.8674 54.4499 44.7402 54.3561 44.6464C54.2623 44.5527 54.1351 44.5 54.0025 44.5Z" fill="#CFC3FB"/>
</g>
<defs>
<filter id="filter0_d_975_7444" x="-0.998047" y="-0.5" width="96" height="96" filterUnits="userSpaceOnUse" color-interpolation-filters="sRGB">
<feFlood flood-opacity="0" result="BackgroundImageFix"/>
<feColorMatrix in="SourceAlpha" type="matrix" values="0 0 0 0 0 0 0 0 0 0 0 0 0 0 0 0 0 0 127 0" result="hardAlpha"/>
<feOffset/>
<feGaussianBlur stdDeviation="20"/>
<feComposite in2="hardAlpha" operator="out"/>
<feColorMatrix type="matrix" values="0 0 0 0 0.972549 0 0 0 0 0.843137 0 0 0 0 0.960784 0 0 0 0.45 0"/>
<feBlend mode="normal" in2="BackgroundImageFix" result="effect1_dropShadow_975_7444"/>
<feBlend mode="normal" in="SourceGraphic" in2="effect1_dropShadow_975_7444" result="shape"/>
</filter>
</defs>
</svg>
