<svg width="92" height="92" viewBox="0 0 92 92" fill="none" xmlns="http://www.w3.org/2000/svg">
<g filter="url(#filter0_d_975_7443)">
<path d="M43.4645 47.827C43.6206 47.9384 43.8078 47.9982 43.9996 47.9981C44.1915 47.9979 44.3785 47.9377 44.5345 47.826C44.6904 47.7095 44.8089 47.5499 44.8755 47.367L45.2225 46.3C45.3057 46.0486 45.4465 45.8202 45.6337 45.6328C45.8208 45.4455 46.0492 45.3045 46.3005 45.221L47.3865 44.868C47.5686 44.8027 47.7256 44.6818 47.8352 44.5224C47.9449 44.363 48.0017 44.1731 47.9976 43.9797C47.9935 43.7863 47.9288 43.599 47.8125 43.4444C47.6961 43.2897 47.5342 43.1756 47.3495 43.118L46.2805 42.772C46.0289 42.6889 45.8002 42.5482 45.6127 42.361C45.4252 42.1738 45.284 41.9454 45.2005 41.694L44.8475 40.61C44.7834 40.431 44.6654 40.2762 44.5098 40.167C44.3542 40.0578 44.1686 39.9994 43.9785 40C43.7856 39.9992 43.5974 40.059 43.4404 40.171C43.2834 40.2829 43.1655 40.4414 43.1035 40.624L42.7475 41.714C42.6639 41.958 42.5262 42.1799 42.3447 42.3631C42.1632 42.5463 41.9426 42.6861 41.6995 42.772L40.6155 43.123C40.4344 43.187 40.2777 43.3059 40.1674 43.4631C40.0571 43.6204 39.9986 43.8081 40 44.0001C40.0015 44.1922 40.0628 44.379 40.1754 44.5346C40.2881 44.6902 40.4464 44.8067 40.6285 44.868L41.6955 45.215C41.9474 45.2992 42.1762 45.4409 42.3639 45.6288C42.5515 45.8168 42.6928 46.0459 42.7765 46.298L43.1285 47.378C43.1915 47.558 43.3095 47.715 43.4655 47.826M48.5355 51.847C48.671 51.9434 48.8332 51.9951 48.9995 51.995C49.1674 51.9933 49.3306 51.9395 49.4666 51.8409C49.6026 51.7424 49.7046 51.6041 49.7585 51.445L50.0065 50.683C50.0595 50.525 50.1495 50.38 50.2665 50.262C50.3835 50.144 50.5285 50.055 50.6865 50.003L51.4585 49.751C51.6181 49.6963 51.7564 49.5924 51.8535 49.4543C51.9505 49.3162 52.0014 49.1509 51.9989 48.9822C51.9963 48.8134 51.9405 48.6497 51.8393 48.5146C51.7381 48.3795 51.5967 48.2799 51.4355 48.23L50.6715 47.981C50.5135 47.9281 50.3699 47.8394 50.252 47.7217C50.134 47.6041 50.0448 47.4608 49.9915 47.303L49.7395 46.529C49.6852 46.3701 49.5824 46.2322 49.4454 46.135C49.3085 46.0377 49.1444 45.9861 48.9765 45.9873C48.8086 45.9885 48.6453 46.0425 48.5097 46.1417C48.3742 46.2409 48.2734 46.3803 48.2215 46.54L47.9745 47.302C47.9235 47.4587 47.8371 47.6014 47.7219 47.7192C47.6067 47.837 47.4659 47.9266 47.3105 47.981L46.5345 48.234C46.417 48.2748 46.3107 48.3425 46.2239 48.4316C46.1372 48.5207 46.0724 48.6288 46.0347 48.7474C45.9971 48.8659 45.9876 48.9915 46.007 49.1144C46.0264 49.2372 46.0741 49.3539 46.1465 49.455C46.2455 49.595 46.3855 49.7 46.5465 49.755L47.3095 50.002C47.468 50.0554 47.6119 50.1449 47.7299 50.2634C47.8479 50.382 47.9367 50.5263 47.9895 50.685L48.2425 51.459C48.2972 51.6155 48.3993 51.7511 48.5345 51.847" fill="white"/>
</g>
<defs>
<filter id="filter0_d_975_7443" x="-2" y="-2.00293" width="96" height="96" filterUnits="userSpaceOnUse" color-interpolation-filters="sRGB">
<feFlood flood-opacity="0" result="BackgroundImageFix"/>
<feColorMatrix in="SourceAlpha" type="matrix" values="0 0 0 0 0 0 0 0 0 0 0 0 0 0 0 0 0 0 127 0" result="hardAlpha"/>
<feOffset/>
<feGaussianBlur stdDeviation="20"/>
<feComposite in2="hardAlpha" operator="out"/>
<feColorMatrix type="matrix" values="0 0 0 0 0.972549 0 0 0 0 0.843137 0 0 0 0 0.960784 0 0 0 0.45 0"/>
<feBlend mode="normal" in2="BackgroundImageFix" result="effect1_dropShadow_975_7443"/>
<feBlend mode="normal" in="SourceGraphic" in2="effect1_dropShadow_975_7443" result="shape"/>
</filter>
</defs>
</svg>
